<svg width="20" height="17" viewBox="0 0 20 17" fill="none" xmlns="http://www.w3.org/2000/svg">
<path d="M13.9611 0.754266C13.9611 0.554222 14.0611 0.362372 14.239 0.220919C14.417 0.079467 14.6583 0 14.9099 0H18.0727C18.3243 0 18.5656 0.079467 18.7436 0.220919C18.9215 0.362372 19.0215 0.554222 19.0215 0.754266V3.26849C19.0215 3.46853 18.9215 3.66038 18.7436 3.80183C18.5656 3.94329 18.3243 4.02275 18.0727 4.02275C17.821 4.02275 17.5797 3.94329 17.4018 3.80183C17.2238 3.66038 17.1239 3.46853 17.1239 3.26849V2.57456L11.4689 7.06999C11.291 7.21124 11.0498 7.29057 10.7984 7.29057C10.547 7.29057 10.3058 7.21124 10.1279 7.06999L7.00314 4.58594L1.66447 8.82994C1.5776 8.90405 1.47285 8.96349 1.35646 9.00471C1.24008 9.04594 1.11444 9.0681 0.987039 9.06989C0.859641 9.07168 0.733096 9.05305 0.614951 9.01511C0.496807 8.97718 0.389484 8.92071 0.299386 8.84909C0.209288 8.77746 0.13826 8.69215 0.09054 8.59823C0.0428196 8.50431 0.0193842 8.40371 0.021632 8.30244C0.0238798 8.20116 0.0517649 8.10128 0.103623 8.00876C0.155482 7.91624 0.230251 7.83296 0.323472 7.76391L6.33264 2.98689C6.51055 2.84564 6.7517 2.76631 7.00314 2.76631C7.25458 2.76631 7.49573 2.84564 7.67364 2.98689L10.7984 5.47094L15.7829 1.50853H14.9099C14.6583 1.50853 14.417 1.42907 14.239 1.28761C14.0611 1.14616 13.9611 0.95431 13.9611 0.754266V0.754266ZM0.993969 12.0683C1.24561 12.0683 1.48695 12.1477 1.66488 12.2892C1.84282 12.4306 1.94279 12.6225 1.94279 12.8225V15.3367C1.94279 15.5368 1.84282 15.7286 1.66488 15.8701C1.48695 16.0115 1.24561 16.091 0.993969 16.091C0.742327 16.091 0.500992 16.0115 0.323054 15.8701C0.145116 15.7286 0.0451521 15.5368 0.0451521 15.3367V12.8225C0.0451521 12.6225 0.145116 12.4306 0.323054 12.2892C0.500992 12.1477 0.742327 12.0683 0.993969 12.0683V12.0683ZM7.00314 9.80546C7.00314 9.60541 6.90318 9.41356 6.72524 9.27211C6.5473 9.13066 6.30597 9.05119 6.05432 9.05119C5.80268 9.05119 5.56135 9.13066 5.38341 9.27211C5.20547 9.41356 5.10551 9.60541 5.10551 9.80546V15.3367C5.10551 15.5368 5.20547 15.7286 5.38341 15.8701C5.56135 16.0115 5.80268 16.091 6.05432 16.091C6.30597 16.091 6.5473 16.0115 6.72524 15.8701C6.90318 15.7286 7.00314 15.5368 7.00314 15.3367V9.80546ZM11.1147 11.0626C11.3663 11.0626 11.6077 11.142 11.7856 11.2835C11.9635 11.4249 12.0635 11.6168 12.0635 11.8168V15.3367C12.0635 15.5368 11.9635 15.7286 11.7856 15.8701C11.6077 16.0115 11.3663 16.091 11.1147 16.091C10.863 16.091 10.6217 16.0115 10.4438 15.8701C10.2658 15.7286 10.1659 15.5368 10.1659 15.3367V11.8168C10.1659 11.6168 10.2658 11.4249 10.4438 11.2835C10.6217 11.142 10.863 11.0626 11.1147 11.0626ZM17.1239 7.79408C17.1239 7.59404 17.0239 7.40219 16.8459 7.26074C16.668 7.11928 16.4267 7.03982 16.175 7.03982C15.9234 7.03982 15.6821 7.11928 15.5041 7.26074C15.3262 7.40219 15.2262 7.59404 15.2262 7.79408V15.3367C15.2262 15.5368 15.3262 15.7286 15.5041 15.8701C15.6821 16.0115 15.9234 16.091 16.175 16.091C16.4267 16.091 16.668 16.0115 16.8459 15.8701C17.0239 15.7286 17.1239 15.5368 17.1239 15.3367V7.79408Z" fill="#C9C9C9"/>
</svg>
