<svg width="19" height="12" viewBox="0 0 19 12" fill="none" xmlns="http://www.w3.org/2000/svg">
<path d="M1.21723 7.92238C2.05534 3.99239 5.55893 1.2 9.5 1.2C13.4398 1.2 16.9434 3.99239 17.7828 7.92238C17.816 8.07833 17.9113 8.21499 18.0478 8.30231C18.1842 8.38963 18.3506 8.42045 18.5103 8.38798C18.67 8.35552 18.8099 8.26244 18.8994 8.12921C18.9888 7.99599 19.0203 7.83353 18.9871 7.67758C18.0322 3.20759 14.0383 0 9.5 0C4.96168 0 0.967764 3.20759 0.0129104 7.67758C-0.0203338 7.83353 0.0112252 7.99599 0.100645 8.12921C0.190065 8.26244 0.33002 8.35552 0.489723 8.38798C0.649426 8.42045 0.815794 8.38963 0.952228 8.30231C1.08866 8.21499 1.18399 8.07833 1.21723 7.92238Z" fill="#C9C9C9"/>
<path d="M9.48766 3.6001C10.6284 3.6001 11.7224 4.0426 12.529 4.83025C13.3357 5.6179 13.7888 6.68618 13.7888 7.80009C13.7888 8.91399 13.3357 9.98228 12.529 10.7699C11.7224 11.5576 10.6284 12.0001 9.48766 12.0001C8.34693 12.0001 7.25292 11.5576 6.4463 10.7699C5.63968 9.98228 5.18652 8.91399 5.18652 7.80009C5.18652 6.68618 5.63968 5.6179 6.4463 4.83025C7.25292 4.0426 8.34693 3.6001 9.48766 3.6001Z" fill="#C9C9C9"/>
</svg>
