<svg width="188" height="188" viewBox="0 0 188 188" fill="none" xmlns="http://www.w3.org/2000/svg">
<g filter="url(#filter0_d_247_1419)">
<ellipse cx="94" cy="94.0001" rx="75" ry="75.0001" fill="white"/>
<path d="M112.801 103.664V103.855C112.801 104.525 113.345 105.069 114.015 105.069C114.686 105.069 115.23 104.525 115.23 103.855V103.757C117.958 103.418 119.148 101.649 119.348 100.069C119.629 97.8623 118.183 95.7407 115.833 94.91C115.621 94.8351 115.42 94.7633 115.23 94.6947V90.6892C115.737 90.8386 116.088 91.0948 116.259 91.3382C116.644 91.8872 117.401 92.0199 117.95 91.6346C118.499 91.2493 118.632 90.492 118.247 89.943C117.665 89.1143 116.609 88.4233 115.23 88.2027V87.9253C115.23 87.2547 114.686 86.7109 114.015 86.7109C113.345 86.7109 112.801 87.2547 112.801 87.9253V88.2958C112.609 88.338 112.414 88.3887 112.216 88.4484C110.675 88.9125 109.512 90.4096 109.387 92.0889C109.264 93.7465 110.147 95.1872 111.749 95.9423C111.979 96.0509 112.341 96.2012 112.801 96.3806V101.169C112.153 100.979 111.555 100.657 111.169 100.177C110.748 99.6546 109.984 99.5726 109.462 99.9931C108.939 100.414 108.857 101.178 109.277 101.701C110.177 102.818 111.508 103.413 112.801 103.664ZM116.939 99.7633C116.839 100.552 116.225 101.096 115.23 101.298V97.2793C116.549 97.8327 117.044 98.9355 116.939 99.7633ZM112.785 93.7458C111.918 93.3372 111.776 92.7169 111.809 92.2686C111.856 91.6369 112.274 91.0352 112.801 90.8153V93.7533C112.795 93.7508 112.79 93.7482 112.785 93.7458Z" fill="#F4C249"/>
<path d="M123.809 76.3916H64.0639C63.3933 76.3916 62.8496 76.9354 62.8496 77.6059V114.176C62.8496 114.846 63.3933 115.39 64.0639 115.39H123.809C124.48 115.39 125.023 114.846 125.023 114.176V77.6059C125.023 76.9353 124.48 76.3916 123.809 76.3916ZM122.595 112.961H65.2783V78.8203H122.595V112.961Z" fill="#1E1E1E"/>
<path d="M104.068 108.499C104.738 108.499 105.282 107.955 105.282 107.284V105.801C105.282 105.131 104.738 104.587 104.068 104.587C103.397 104.587 102.854 105.131 102.854 105.801V107.284C102.854 107.955 103.397 108.499 104.068 108.499Z" fill="#1E1E1E"/>
<path d="M104.068 101.397C104.738 101.397 105.282 100.853 105.282 100.183V98.6997C105.282 98.0291 104.738 97.4854 104.068 97.4854C103.397 97.4854 102.854 98.0291 102.854 98.6997V100.183C102.854 100.853 103.397 101.397 104.068 101.397Z" fill="#1E1E1E"/>
<path d="M104.068 94.2955C104.738 94.2955 105.282 93.7517 105.282 93.0812V91.5981C105.282 90.9276 104.738 90.3838 104.068 90.3838C103.397 90.3838 102.854 90.9276 102.854 91.5981V93.0812C102.854 93.7519 103.397 94.2955 104.068 94.2955Z" fill="#1E1E1E"/>
<path d="M104.068 87.194C104.738 87.194 105.282 86.6503 105.282 85.9796V84.4966C105.282 83.826 104.738 83.2822 104.068 83.2822C103.397 83.2822 102.854 83.826 102.854 84.4966V85.9796C102.854 86.6502 103.397 87.194 104.068 87.194Z" fill="#1E1E1E"/>
<path d="M98.4821 89.6865C98.5761 88.6239 98.5061 87.7173 97.8388 87.0182C95.4218 84.4863 89.7102 87.4083 86.8858 89.6451C86.4531 89.339 85.9494 89.065 85.4037 88.9486C84.964 88.8119 84.4966 88.7382 84.0119 88.7382C83.5432 88.7382 83.0906 88.8072 82.6637 88.9354C82.1012 89.0372 81.5822 89.2976 81.138 89.6117C78.3135 87.375 72.602 84.5407 70.185 87.0726C69.5178 87.7717 69.4477 88.6238 69.5418 89.6863L69.3418 97.1243C69.5202 102.672 75.8943 100.878 79.9473 98.5777V105.742L84.0119 103.467L88.0766 105.742V98.5777C92.1295 100.878 98.5037 102.672 98.6821 97.1243L98.4821 89.6865Z" fill="#F4C249"/>
</g>
<defs>
<filter id="filter0_d_247_1419" x="0" y="0" width="188" height="188" filterUnits="userSpaceOnUse" color-interpolation-filters="sRGB">
<feFlood flood-opacity="0" result="BackgroundImageFix"/>
<feColorMatrix in="SourceAlpha" type="matrix" values="0 0 0 0 0 0 0 0 0 0 0 0 0 0 0 0 0 0 127 0" result="hardAlpha"/>
<feOffset/>
<feGaussianBlur stdDeviation="9.5"/>
<feComposite in2="hardAlpha" operator="out"/>
<feColorMatrix type="matrix" values="0 0 0 0 0 0 0 0 0 0 0 0 0 0 0 0 0 0 0.07 0"/>
<feBlend mode="normal" in2="BackgroundImageFix" result="effect1_dropShadow_247_1419"/>
<feBlend mode="normal" in="SourceGraphic" in2="effect1_dropShadow_247_1419" result="shape"/>
</filter>
</defs>
</svg>
