<svg width="188" height="188" viewBox="0 0 188 188" fill="none" xmlns="http://www.w3.org/2000/svg">
<g filter="url(#filter0_d_247_1326)">
<ellipse cx="94" cy="94.0001" rx="75" ry="75.0001" fill="white"/>
<g clip-path="url(#clip0_247_1326)">
<path d="M109.42 81.9078L114.022 77.3094C112.519 75.8081 112.519 73.3739 114.022 71.8727L106.616 64.4727C105.113 65.9739 102.677 65.9739 101.175 64.4727L83.7256 81.9079H109.42V81.9078Z" fill="#F4C249"/>
<path d="M124.16 112.964V125.224C124.16 126.545 123.083 127.62 121.76 127.62H70.2964V83.4497H121.76C123.083 83.4497 124.16 84.5246 124.16 85.8459V98.1063H127.244V85.8459C127.244 83.1832 125.333 80.958 122.811 80.4667L125.375 77.905C126.261 77.0199 126.748 75.8428 126.748 74.5908C126.748 73.3389 126.261 72.1617 125.375 71.2766L107.21 53.1268C105.382 51.3002 102.408 51.3002 100.58 53.1268L73.3195 80.3657H63.1573C60.1338 80.3657 57.6738 82.8241 57.6738 85.8459V125.224C57.6738 128.246 60.1336 130.704 63.1573 130.704H121.76C124.784 130.704 127.244 128.246 127.244 125.224V112.964H124.16V112.964ZM102.76 55.3084C103.386 54.683 104.404 54.683 105.03 55.3084L123.195 73.4582C123.498 73.7608 123.664 74.1631 123.664 74.5908C123.664 75.0186 123.498 75.4209 123.195 75.7234L118.549 80.3656H77.6827L102.76 55.3084ZM67.2124 127.62H63.1573C61.8343 127.62 60.7578 126.545 60.7578 125.224V85.8459C60.7578 84.5246 61.8343 83.4497 63.1573 83.4497H67.2124V127.62Z" fill="#1E1E1E"/>
<path d="M130.329 114.505H112.472C107.517 114.505 103.501 110.489 103.501 105.534C103.501 100.58 107.517 96.5635 112.472 96.5635H130.329V114.505Z" fill="#F4C249"/>
<path d="M113.499 110.658C110.673 110.658 108.373 108.36 108.373 105.535C108.373 102.709 110.673 100.411 113.499 100.411C116.326 100.411 118.626 102.71 118.626 105.535C118.626 108.36 116.326 110.658 113.499 110.658ZM113.499 103.495C112.373 103.495 111.457 104.41 111.457 105.535C111.457 106.659 112.373 107.574 113.499 107.574C114.626 107.574 115.542 106.659 115.542 105.535C115.542 104.41 114.626 103.495 113.499 103.495Z" fill="#1E1E1E"/>
</g>
</g>
<defs>
<filter id="filter0_d_247_1326" x="0" y="0" width="188" height="188" filterUnits="userSpaceOnUse" color-interpolation-filters="sRGB">
<feFlood flood-opacity="0" result="BackgroundImageFix"/>
<feColorMatrix in="SourceAlpha" type="matrix" values="0 0 0 0 0 0 0 0 0 0 0 0 0 0 0 0 0 0 127 0" result="hardAlpha"/>
<feOffset/>
<feGaussianBlur stdDeviation="9.5"/>
<feComposite in2="hardAlpha" operator="out"/>
<feColorMatrix type="matrix" values="0 0 0 0 0 0 0 0 0 0 0 0 0 0 0 0 0 0 0.07 0"/>
<feBlend mode="normal" in2="BackgroundImageFix" result="effect1_dropShadow_247_1326"/>
<feBlend mode="normal" in="SourceGraphic" in2="effect1_dropShadow_247_1326" result="shape"/>
</filter>
<clipPath id="clip0_247_1326">
<rect width="78.9475" height="78.9475" fill="white" transform="translate(54.5264 51.7568)"/>
</clipPath>
</defs>
</svg>
