<svg width="60" height="60" viewBox="0 0 60 60" fill="none" xmlns="http://www.w3.org/2000/svg">
<path fill-rule="evenodd" clip-rule="evenodd" d="M30 0C13.4388 0 0 13.4388 0 30C0 46.5612 13.4388 60 30 60C46.5612 60 60 46.5612 60 30C60 13.4388 46.5612 0 30 0ZM30 1.25C45.885 1.25 58.75 14.1138 58.75 30C58.75 45.8862 45.885 58.75 30 58.75C14.115 58.75 1.25 45.8862 1.25 30C1.25 14.1138 14.115 1.25 30 1.25ZM29.8597 17.0978C26.7747 17.0978 24.2634 19.6253 24.2634 22.7228C24.2634 24.5028 25.1072 26.0728 26.3972 27.1053H26.0584C21.9409 27.1053 18.6097 30.4528 18.6097 34.584V41.4853C18.6097 41.6511 18.6755 41.81 18.7927 41.9272C18.9099 42.0445 19.0689 42.1103 19.2347 42.1103H40.4847C40.6504 42.1103 40.8094 42.0445 40.9266 41.9272C41.0438 41.81 41.1097 41.6511 41.1097 41.4853V34.584C41.1097 30.4528 37.7784 27.1053 33.6609 27.1053H33.3222C34.6122 26.0728 35.4559 24.5028 35.4559 22.7228C35.4559 19.6253 32.9447 17.0978 29.8597 17.0978ZM29.8597 18.3478C30.4327 18.3483 31 18.462 31.529 18.6824C32.0579 18.9028 32.5382 19.2255 32.942 19.632C33.3459 20.0386 33.6654 20.5209 33.8823 21.0513C34.0992 21.5817 34.2092 22.1498 34.2059 22.7228C34.2092 23.2958 34.0992 23.8639 33.8823 24.3943C33.6654 24.9247 33.3459 25.407 32.942 25.8136C32.5382 26.2201 32.0579 26.5428 31.529 26.7632C31 26.9836 30.4327 27.0973 29.8597 27.0978C29.2866 27.0973 28.7193 26.9836 28.1903 26.7632C27.6614 26.5428 27.1812 26.2201 26.7773 25.8136C26.3734 25.407 26.0539 24.9247 25.837 24.3943C25.6201 23.8639 25.5101 23.2958 25.5134 22.7228C25.5101 22.1498 25.6201 21.5817 25.837 21.0513C26.0539 20.5209 26.3734 20.0386 26.7773 19.632C27.1812 19.2255 27.6614 18.9028 28.1903 18.6824C28.7193 18.462 29.2866 18.3483 29.8597 18.3478ZM26.0584 28.3553H28.1834L27.7259 35.0203C27.7192 35.1129 27.7333 35.2058 27.767 35.2923C27.8007 35.3788 27.8533 35.4567 27.9209 35.5203L29.4334 36.9365C29.5492 37.0448 29.7018 37.105 29.8603 37.105C30.0188 37.105 30.1714 37.0448 30.2872 36.9365L31.7984 35.5215C31.866 35.4579 31.9186 35.38 31.9523 35.2935C31.986 35.2071 32.0001 35.1141 31.9934 35.0215L31.5372 28.3553H33.6609C34.478 28.3538 35.2873 28.5141 36.0421 28.8271C36.7969 29.14 37.4822 29.5994 38.0585 30.1786C38.6348 30.7578 39.0907 31.4454 39.3999 32.2018C39.709 32.9581 39.8653 33.7682 39.8597 34.5853V40.8603H37.3597V37.7178C37.3597 37.552 37.2938 37.3931 37.1766 37.2759C37.0594 37.1586 36.9004 37.0928 36.7347 37.0928C36.5689 37.0928 36.4099 37.1586 36.2927 37.2759C36.1755 37.3931 36.1097 37.552 36.1097 37.7178V40.8603H23.5359V37.7228C23.5359 37.557 23.4701 37.3981 23.3528 37.2809C23.2356 37.1636 23.0767 37.0978 22.9109 37.0978C22.7451 37.0978 22.5862 37.1636 22.469 37.2809C22.3518 37.3981 22.2859 37.557 22.2859 37.7228V40.8603H19.8597V34.584C19.8542 33.7671 20.0106 32.9571 20.3198 32.2009C20.629 31.4447 21.0849 30.7572 21.6612 30.1781C22.2375 29.5991 22.9228 29.1398 23.6775 28.827C24.4322 28.5141 25.2414 28.3538 26.0584 28.3553ZM29.4372 28.3553H30.2847L30.7259 34.8103L29.8597 35.6228L28.9934 34.8103L29.4372 28.3553Z" fill="#A18129"/>
</svg>
