<svg width="70" height="70" viewBox="0 0 70 70" fill="none" xmlns="http://www.w3.org/2000/svg">
<path fill-rule="evenodd" clip-rule="evenodd" d="M35 10.208C21.3296 10.208 10.2083 21.3293 10.2083 34.9997C10.2083 48.6701 21.3296 59.7913 35 59.7913C48.6704 59.7913 59.7917 48.6701 59.7917 34.9997C59.7917 21.3293 48.6704 10.208 35 10.208ZM35 64.1663C18.9175 64.1663 5.83333 51.0822 5.83333 34.9997C5.83333 18.9172 18.9175 5.83301 35 5.83301C51.0825 5.83301 64.1667 18.9172 64.1667 34.9997C64.1667 51.0822 51.0825 64.1663 35 64.1663Z" fill="#A18129"/>
<path fill-rule="evenodd" clip-rule="evenodd" d="M39.207 47.3102C38.6499 47.3102 38.0899 47.0973 37.6641 46.6715L27.4937 36.5507C27.0824 36.1394 26.852 35.5823 26.852 34.999C26.852 34.4186 27.0824 33.8615 27.4937 33.4502L37.6641 23.3265C38.5187 22.4748 39.9012 22.4748 40.7557 23.3323C41.6103 24.1898 41.6045 25.5752 40.7499 26.4269L32.1399 34.999L40.7499 43.574C41.6045 44.4257 41.6103 45.8082 40.7557 46.6657C40.3299 47.0973 39.767 47.3102 39.207 47.3102Z" fill="#A18129"/>
</svg>
