<svg width="447" height="462" viewBox="0 0 447 462" fill="none" xmlns="http://www.w3.org/2000/svg">
<g filter="url(#filter0_i_0_1)">
<circle cx="221.5" cy="252.5" r="209.5" fill="#D9D9D9" fill-opacity="0.01"/>
</g>
<g filter="url(#filter1_i_0_1)">
<circle cx="221.5" cy="252.5" r="209.5" transform="rotate(-90 221.5 252.5)" fill="#D9D9D9" fill-opacity="0.01"/>
</g>
<mask id="mask0_0_1" style="mask-type:alpha" maskUnits="userSpaceOnUse" x="12" y="43" width="419" height="419">
<circle cx="221.5" cy="252.5" r="209.5" transform="rotate(-90 221.5 252.5)" fill="#D9D9D9"/>
</mask>
<g mask="url(#mask0_0_1)">
<path d="M43.8917 364H400.108C402.811 364 405 369.142 405 375.49V436.51C405 442.858 402.811 448 400.108 448H43.8917C41.1892 448 39 442.858 39 436.51V375.49C39 369.142 41.1892 364 43.8917 364Z" fill="url(#paint0_linear_0_1)"/>
</g>
<path d="M403.984 244.65C420.065 244.65 433.101 231.614 433.101 215.533C433.101 199.452 420.065 186.416 403.984 186.416C387.903 186.416 374.867 199.452 374.867 215.533C374.867 231.614 387.903 244.65 403.984 244.65Z" stroke="#8F89FF" stroke-miterlimit="10" stroke-dasharray="12.28 12.28"/>
<path d="M362.939 235.784L357.662 236.835L356.905 233.04C356.392 230.457 353.999 228.752 351.578 229.232L325.565 234.422C323.144 234.907 321.588 237.398 322.105 239.981L322.862 243.776L317.585 244.828C316.985 244.948 316.6 245.568 316.724 246.206L322.25 273.916C322.378 274.553 322.974 274.979 323.574 274.859L368.937 265.812C369.537 265.692 369.922 265.071 369.797 264.434L364.272 236.724C364.135 236.09 363.539 235.664 362.939 235.784ZM356.404 237.088L324.112 243.528L323.355 239.733C322.987 237.887 324.096 236.107 325.826 235.763L351.839 230.573C353.569 230.23 355.278 231.447 355.647 233.293L356.404 237.088Z" fill="#9AD3CC"/>
<path d="M345.647 254.008L340.229 255.088L317.254 247.89L317.407 247.671L340.287 254.84L345.498 253.801L363.878 238.4L364.102 238.545L345.647 254.008Z" fill="white"/>
<path d="M221.46 192.359C221.46 192.359 216.472 190.716 215.491 191.291C214.51 191.866 209.444 198.679 209.444 198.679L216.228 201.916L223.91 196.932L221.46 192.359ZM341.173 225.565C341.173 225.565 345.237 233.802 344.385 235.271C343.528 236.744 334.327 238.4 334.327 238.4L331.864 230.139L336.256 225.561H341.173V225.565Z" fill="#FCD2B1"/>
<path d="M270.613 357.778L249.169 364.736H275.273V357.778H270.613ZM323.76 357.778L304.175 364.736H330.059L328.731 357.778H323.76Z" fill="#0A3951"/>
<path d="M281.535 215.21L268.001 360.948H276.73C276.73 360.948 297.482 300.454 290.558 292.45C292.785 282.537 306.96 243.267 303.686 239.075C300.413 234.882 294.411 212.991 294.411 212.991L281.535 215.21Z" fill="#083047"/>
<path d="M284.764 219.138L291.8 228.827L320.813 360.948H330.031C330.031 360.948 330.796 294.668 324.191 286.299C321.55 271.325 320.3 220.388 318.351 214.804C309.543 214.365 286.419 211.65 286.419 211.65L284.764 219.138Z" fill="#0A3951"/>
<path d="M333.955 147.758C329.46 140.697 316.435 141.347 306.485 140.412C303.604 140.143 301.2 138.93 299.155 138.653L285.608 142.734C284.83 142.899 273.945 143.698 272.699 144.447C272.55 144.621 260.758 186.109 221.377 191.631C221.791 194.528 221.377 198.667 221.377 198.667C221.377 198.667 261.934 199.842 274.682 176.085C277.48 202.106 281.536 215.21 281.536 215.21L318.786 216.849C318.786 216.849 320.706 177.149 324.845 168.043C346.367 181.701 334.364 226.815 334.364 226.815C334.364 226.815 336.02 227.643 341.401 226.815C353.821 195.356 339.749 156.864 333.955 147.758Z" fill="white"/>
<path d="M290.558 146.62L294.896 152.812L303.687 139.431L300.491 137.411L290.558 146.62ZM290.558 146.62L289.209 152.812L284.764 143.301L286.419 140.412L290.558 146.62Z" fill="#F2F2F2"/>
<path d="M289.652 151.231L290.558 154.033L286.167 202.479C286.167 202.479 291.775 224.804 292.152 223.438C292.528 222.072 298.025 204.287 298.025 204.287L293.021 154.103L293.46 151.202L290.563 146.616L289.652 151.231Z" fill="#9AD3CC"/>
<path d="M300.508 101.949C305.061 105.674 307.131 114.366 305.061 118.919C302.992 123.471 297.611 125.955 295.542 128.438C291.403 123.471 285.608 120.16 285.608 120.16L288.506 107.744L294.3 104.846L300.508 101.949Z" fill="#413D8D"/>
<path d="M286.436 130.747V141.509L290.574 147.717L300.508 138.508L296.576 119.448L286.436 130.747Z" fill="#FCD2B1"/>
<path d="M273.725 105.537C274.884 118.414 268.726 130.884 275.658 134.808C277.206 136.757 292.785 138.905 294.718 133.053C296.651 127.2 301.576 110.612 297.706 105.537C293.84 100.463 273.725 105.537 273.725 105.537Z" fill="#FFE3CA"/>
<path d="M291.816 106.916C290.988 110.227 291.816 116.435 295.127 117.263C295.127 118.844 294.958 121.605 294.838 123.397C294.822 123.632 294.852 123.867 294.928 124.09C295.004 124.313 295.124 124.519 295.28 124.695C295.435 124.871 295.625 125.015 295.837 125.117C296.049 125.22 296.279 125.279 296.514 125.292C297.292 125.334 298.024 125.326 298.024 125.127C298.024 124.713 300.508 106.916 300.508 106.916H291.816Z" fill="#413D8D"/>
<path d="M301.206 120.579C301.857 118.15 301.191 115.861 299.719 115.466C298.246 115.071 296.524 116.72 295.873 119.148C295.221 121.577 295.887 123.866 297.36 124.261C298.832 124.656 300.554 123.007 301.206 120.579Z" fill="#FFE3CA"/>
<path d="M295.541 116.849L295.127 124.299L297.197 124.713L298.025 114.366L295.541 116.849ZM300.657 107.702C293.791 109.361 286.785 110.372 279.731 110.724C276.093 110.906 272.049 110.765 269.392 108.273C267.202 106.22 266.486 102.86 267.306 99.9707C268.125 97.0818 270.319 94.6978 272.964 93.2781C275.608 91.8585 278.663 91.337 281.664 91.3784C280.525 91.1839 279.536 92.5 279.76 93.6341C279.983 94.7681 281.055 95.5752 282.177 95.8608C283.298 96.1464 284.474 96.0139 285.629 95.9229C288.522 95.6994 291.46 95.7532 294.271 96.4692C297.081 97.1811 299.879 98.7042 301.212 101.283C302.544 103.861 301.828 107.582 299.2 108.807" fill="#413D8D"/>
<path d="M209.357 192.359C209.357 192.359 214.349 190.716 215.325 191.291C216.302 191.866 221.372 198.679 221.372 198.679L214.589 201.916L206.907 196.932L209.357 192.359ZM89.6438 225.565C89.6438 225.565 85.5794 237.692 86.432 239.861C87.2888 242.03 96.4895 244.468 96.4895 244.468L95.6328 235.018L97.9878 238.777L99.0598 235.018L94.5649 225.569H89.6438V225.565Z" fill="#FCD2B1"/>
<path d="M160.209 357.778L181.652 364.736H155.544V357.778H160.209ZM107.061 357.778L126.646 364.736H100.762L102.09 357.778H107.061Z" fill="#0A3951"/>
<path d="M148.305 216.961L162.815 360.948H154.087C154.087 360.948 133.334 300.454 140.259 292.45C138.032 282.537 123.856 243.267 127.13 239.075C130.404 234.882 136.405 212.991 136.405 212.991L148.305 216.961Z" fill="#083047"/>
<path d="M146.057 219.138L139.021 228.827L110.007 360.948H100.79C100.79 360.948 100.024 294.668 106.63 286.299C109.27 271.325 110.918 219.138 115.764 215.615C124.572 215.177 144.401 211.65 144.401 211.65L146.057 219.138Z" fill="#0A3951"/>
<path d="M149.017 234.675L139.911 214.808L121.7 234.675L113.422 219.775C113.422 219.775 110.111 177.145 105.972 168.039C84.4499 181.697 96.4526 226.811 96.4526 226.811C96.4526 226.811 94.7971 227.639 89.4165 226.811C76.9999 195.356 91.0721 156.864 96.8665 147.758C101.361 140.697 114.564 139.112 124.514 138.177C127.395 137.908 131.451 140.217 133.496 139.94C133.496 139.94 142.746 139.63 150.61 141.815L150.618 141.819C154.012 142.763 156.876 143.698 158.122 144.447C160.605 147.345 149.017 234.675 149.017 234.675Z" fill="#413D8D"/>
<path d="M158.122 144.447C158.122 144.447 165.158 185.422 209.444 191.631C209.03 194.528 209.444 198.667 209.444 198.667C209.444 198.667 166.814 199.908 155.225 174.247C151.5 149.828 158.122 144.447 158.122 144.447Z" fill="#413D8D"/>
<path d="M148.305 141.194L140.449 190.443L124.515 138.177C127.395 137.908 130.003 137.688 132.047 137.411L148.305 141.194Z" fill="white"/>
<path d="M130.326 100.852C125.773 104.577 123.703 113.269 125.773 117.822C127.842 122.375 133.223 124.858 135.292 127.341C139.431 122.375 145.226 119.063 145.226 119.063L142.328 106.647L136.534 103.75L130.326 100.852Z" fill="#413D8D"/>
<path d="M144.397 129.651V140.412L140.259 146.62L130.325 137.411L134.257 118.352L144.397 129.651Z" fill="#FCD2B1"/>
<path d="M158.884 104.577C157.642 118.236 158.47 133.55 156.815 135.619C155.159 137.689 138.603 137.689 136.534 131.48C134.465 125.272 129.084 109.958 133.223 104.577C137.362 99.1968 158.884 104.577 158.884 104.577Z" fill="#FFE3CA"/>
<path d="M139.017 105.819C139.845 109.13 139.017 115.338 135.706 116.166C135.706 117.747 135.875 120.508 135.995 122.3C136.011 122.535 135.981 122.77 135.905 122.993C135.829 123.216 135.709 123.422 135.553 123.598C135.398 123.774 135.208 123.918 134.996 124.021C134.784 124.123 134.554 124.183 134.319 124.196C133.541 124.237 132.809 124.229 132.809 124.03C132.809 123.616 130.325 105.819 130.325 105.819H139.017Z" fill="#413D8D"/>
<path d="M133.467 123.183C134.94 122.788 135.605 120.499 134.954 118.07C134.302 115.642 132.58 113.993 131.108 114.388C129.635 114.783 128.97 117.072 129.621 119.501C130.272 121.929 131.994 123.578 133.467 123.183Z" fill="#FFE3CA"/>
<path d="M135.292 115.752L135.706 123.202L133.636 123.616L132.809 113.269L135.292 115.752ZM137.092 106.419C139.468 108.311 142.622 109.196 145.631 108.816C148.015 108.513 150.279 107.466 152.679 107.408C154.517 107.363 156.313 107.905 158.143 108.079C160.254 108.277 162.472 107.959 164.256 106.812C166.04 105.666 167.306 103.605 167.153 101.49C166.942 98.5387 164.082 96.3326 161.16 95.8525C158.238 95.3724 155.283 96.2085 152.444 97.0528C149.608 97.893 146.661 98.758 143.735 98.3317C141.687 98.0337 139.77 97.1108 137.726 96.7714C135.511 96.3989 133.181 96.7383 131.166 97.7233C129.642 98.4683 128.277 99.5982 127.436 101.076C126.596 102.553 126.34 104.387 126.923 105.98C127.449 107.412 128.616 108.559 129.982 109.238C131.348 109.916 132.9 110.157 134.427 110.128L137.092 106.419Z" fill="#413D8D"/>
<path d="M140.258 146.62L135.925 152.812L127.134 139.431L130.325 137.411L140.258 146.62ZM140.258 146.62L141.607 152.812L146.057 143.301L144.397 140.412L140.258 146.62Z" fill="#F2F2F2"/>
<path d="M141.165 150.784L140.258 153.313L144.016 168.06C144.016 168.06 140.821 191.676 140.445 190.443C140.068 189.209 133.317 167.058 133.317 167.058L137.8 153.375L137.361 150.759L140.258 146.62L141.165 150.784Z" fill="#9AD3CC"/>
<path d="M210.173 200.649C210.972 199.532 213.372 196.539 213.372 196.539L219.448 200.649L215.293 203.368L210.173 200.649ZM221.542 192.359C221.542 192.359 218.43 190.848 216.34 190.716C214.25 190.583 211.497 193.559 211.497 193.559C211.497 193.559 211.584 194.093 212.698 194.093C213.807 194.093 216.029 193.025 216.029 193.025L221.638 195.376L221.542 192.359Z" fill="#FFE3CA"/>
<path d="M379.635 67.9482H331.289C321.716 67.9482 313.885 75.7749 313.885 85.3399C313.885 92.0242 317.709 97.8517 323.276 100.761L322.22 105.724C322.22 105.724 330.031 102.731 331.289 102.731H379.635C389.208 102.731 397.039 94.9048 397.039 85.3399C397.039 75.7749 389.208 67.9482 379.635 67.9482Z" fill="#41AAF7"/>
<path d="M383.671 72.4719H335.325C325.752 72.4719 317.921 80.2986 317.921 89.8635C317.921 96.5478 321.745 102.375 327.312 105.285L326.257 110.248C326.257 110.248 334.067 107.255 335.325 107.255H383.671C393.245 107.255 401.075 99.4285 401.075 89.8635C401.075 80.2986 393.245 72.4719 383.671 72.4719Z" stroke="#8F89FF" stroke-miterlimit="10"/>
<path d="M117.457 80.4351H64.5997C62.402 80.4351 60.6016 82.2355 60.6016 84.4332V109.271C60.6016 111.468 62.402 113.269 64.5997 113.269H104.499L111.903 118.786L108.787 113.269H117.462C119.659 113.269 121.46 111.468 121.46 109.271V84.4332C121.46 82.2355 119.659 80.4351 117.457 80.4351Z" fill="white"/>
<path d="M116.013 83.0095H63.1515C60.9537 83.0095 59.1533 84.8099 59.1533 87.0077V111.845C59.1533 114.043 60.9537 115.843 63.1515 115.843H103.05L110.455 121.36L107.338 115.843H116.013C118.211 115.843 120.012 114.043 120.012 111.845V87.0077C120.012 84.8099 118.211 83.0095 116.013 83.0095Z" stroke="white" stroke-miterlimit="10"/>
<path d="M51.8645 369.859C60.8376 369.859 64.6247 362.695 66.1147 355.092C67.7992 346.516 66.5617 337.39 66.5617 337.39H37.1673C37.1673 337.39 37.1217 337.738 37.0555 338.358C36.5092 343.756 34.7377 369.859 51.8645 369.859Z" fill="#B6E7FF"/>
<path d="M37.167 337.39C37.167 338.031 43.7478 338.553 51.8683 338.553C59.9847 338.553 66.5697 338.031 66.5697 337.39C66.5697 336.748 59.9888 336.227 51.8683 336.227C43.7478 336.227 37.167 336.748 37.167 337.39Z" fill="#85DDFF"/>
<path d="M12.0605 255.891C12.0605 255.891 27.5648 279.479 36.8649 293.874C46.165 308.269 48.6028 311.257 49.7079 315.909C50.8171 320.561 51.8104 337.721 51.8104 337.721H52.4975C52.4975 337.721 52.2574 323.152 51.4214 318.252C50.6102 313.513 51.4793 311.812 52.1457 306.828C52.812 301.845 53.6978 293.874 48.6566 288.336C43.6196 282.798 44.9482 277.372 43.1767 273.721C41.4053 270.067 27.6724 265.638 25.901 261.872C24.1295 258.105 16.3815 255.779 12.0605 255.891Z" fill="#2A94F4"/>
<path d="M12.0605 255.891C12.0605 255.891 16.932 261.429 20.2555 263.312C23.5791 265.195 25.127 263.531 27.6724 268.072C30.2179 272.612 30.3172 274.607 32.6474 276.929C34.9776 279.255 37.7465 279.367 37.97 284.457C38.1935 289.552 36.8649 293.869 36.8649 293.869C36.8649 293.869 13.058 257.108 12.0605 255.891Z" fill="#41AAF7"/>
<path d="M50.5851 337.721H49.8898C49.8898 337.721 49.6828 333.007 47.8079 330.718C46.5994 329.24 41.4672 327.564 36.397 325.553C33.6033 324.447 30.8302 323.239 28.7359 321.906C22.838 318.16 17.2174 306.091 16.7373 303.939C16.5676 303.19 16.4931 302.735 16.4972 302.424V302.416C16.5097 301.837 16.7952 301.75 17.2919 301.166C17.532 300.885 18.248 300.98 19.1254 301.249C21.6667 302.023 23.8148 303.765 25.1434 306.067C26.3726 308.194 28.3386 310.855 30.7474 311.501C34.9111 312.61 34.5635 313.301 36.099 317.535C37.6304 321.77 41.5003 322.461 46.3552 327.452C51.2101 332.448 50.5851 337.721 50.5851 337.721Z" fill="#2A94F4"/>
<path d="M36.397 325.553C33.6033 324.448 30.8302 323.239 28.7359 321.906C22.838 318.161 17.2174 306.092 16.7373 303.939C16.5676 303.19 16.4931 302.735 16.4972 302.425C16.5138 302.565 16.787 304.477 19.8622 305.748C23.0491 307.064 23.6741 307.064 24.0921 309.076C24.5101 311.087 24.8578 313.239 26.5216 313.653C28.1855 314.071 29.2285 312.196 30.5405 315.247C31.8608 318.297 32.4899 319.34 33.6985 319.754C34.9111 320.172 35.83 319.547 36.099 321.906C36.2604 323.347 36.3515 324.712 36.397 325.553Z" fill="#41AAF7"/>
<path d="M55.6844 337.721H56.508C56.508 337.721 58.1181 308.521 60.3324 305.81C61.7603 304.059 66.4786 300.926 72.4883 298.542C75.7953 297.23 79.0857 295.802 81.5649 294.225C88.5513 289.788 95.2067 275.493 95.7778 272.943C95.9806 272.057 96.0675 271.519 96.0634 271.147V271.139C96.0469 270.452 95.7075 270.348 95.1239 269.661C94.8424 269.326 93.9898 269.442 92.951 269.76C89.9379 270.679 87.3966 272.74 85.8238 275.468C84.3669 277.988 82.0367 281.142 79.185 281.904C74.2556 283.22 74.6653 284.04 72.8442 289.052C71.0314 294.064 66.4455 294.883 60.6966 300.798C54.9435 306.712 55.6844 337.721 55.6844 337.721Z" fill="#2A94F4"/>
<path d="M72.4883 298.542C75.7953 297.23 79.0857 295.802 81.5649 294.225C88.5513 289.789 95.2066 275.493 95.7778 272.943C95.9806 272.058 96.0675 271.519 96.0634 271.147C96.0427 271.317 95.7199 273.577 92.0818 275.079C88.3071 276.635 87.5663 276.635 87.0737 279.023C86.5812 281.403 86.1673 283.953 84.1972 284.445C82.2271 284.938 80.9937 282.719 79.4333 286.333C77.8688 289.946 77.128 291.179 75.6918 291.672C74.2556 292.164 73.1671 291.423 72.8484 294.221C72.6497 295.931 72.5421 297.549 72.4883 298.542Z" fill="#41AAF7"/>
<path d="M51.8645 369.859C60.8376 369.859 64.6247 362.695 66.1147 355.092C57.3195 351.756 46.2439 346.413 37.0555 338.358C36.5092 343.756 34.7377 369.859 51.8645 369.859Z" fill="#CCE9FF"/>
<path d="M371.792 370.956C377.731 370.956 380.235 366.213 381.225 361.18C382.338 355.506 381.523 349.463 381.523 349.463H362.066C362.066 349.463 362.037 349.695 361.991 350.105C361.627 353.681 360.456 370.956 371.792 370.956Z" fill="#B6E7FF"/>
<path d="M362.061 349.467C362.061 349.893 366.415 350.237 371.791 350.237C377.163 350.237 381.522 349.893 381.522 349.467C381.522 349.041 377.167 348.697 371.791 348.697C366.419 348.697 362.061 349.041 362.061 349.467Z" fill="#85DDFF"/>
<path d="M339.885 284.851C339.885 284.851 352.169 303.538 359.536 314.944C366.908 326.351 368.836 328.719 369.714 332.402C370.591 336.086 371.382 349.686 371.382 349.686H372.346C372.346 349.686 372.959 338.193 371.82 334.422C370.678 330.652 371.117 329.157 371.647 325.209C372.172 321.26 372.876 314.944 368.882 310.557C364.892 306.17 365.943 301.874 364.54 298.977C363.137 296.079 352.256 292.574 350.853 289.59C349.45 286.605 343.308 284.764 339.885 284.851Z" fill="#2A94F4"/>
<path d="M342.571 284.851C342.571 284.851 346.433 289.238 349.065 290.728C351.698 292.218 352.927 290.902 354.942 294.498C356.962 298.095 357.037 299.676 358.887 301.518C360.733 303.36 362.926 303.447 363.104 307.482C363.278 311.517 362.227 314.94 362.227 314.94C362.227 314.94 343.362 285.815 342.571 284.851Z" fill="#41AAF7"/>
<path d="M375.467 349.467L376.171 349.256C376.171 349.256 374.95 344.422 376.154 341.537C376.928 339.675 381.613 336.422 386.137 332.85C388.629 330.884 391.071 328.818 392.788 326.836C397.623 321.257 399.647 307.338 399.485 305.012C399.431 304.2 399.369 303.72 399.27 303.406L399.266 303.397C399.08 302.814 398.761 302.814 398.082 302.375C397.755 302.16 397.056 302.479 396.253 303.017C393.914 304.573 392.271 306.986 391.621 309.717C391.021 312.246 389.837 315.537 387.598 316.915C383.724 319.303 384.283 319.895 384.01 324.646C383.745 329.394 380.036 331.269 376.638 337.796C373.236 344.319 375.467 349.467 375.467 349.467Z" fill="#2A94F4"/>
<path d="M386.137 332.845C388.628 330.879 391.07 328.814 392.788 326.832C397.622 321.252 399.646 307.333 399.485 305.007C399.431 304.196 399.369 303.716 399.269 303.401C399.294 303.55 399.596 305.566 396.873 307.784C394.046 310.082 393.413 310.272 393.603 312.437C393.794 314.597 394.092 316.882 392.531 317.809C390.971 318.736 389.353 317.155 388.947 320.64C388.537 324.129 388.219 325.371 387.118 326.161C386.017 326.948 384.899 326.596 385.338 329.067C385.607 330.569 385.93 331.98 386.137 332.845Z" fill="#41AAF7"/>
<path d="M371.792 370.956C377.731 370.956 380.235 366.213 381.225 361.18C375.405 358.974 368.071 355.435 361.991 350.104C361.627 353.68 360.456 370.956 371.792 370.956Z" fill="#CCE9FF"/>
<defs>
<filter id="filter0_i_0_1" x="12" y="43" width="468" height="469" filterUnits="userSpaceOnUse" color-interpolation-filters="sRGB">
<feFlood flood-opacity="0" result="BackgroundImageFix"/>
<feBlend mode="normal" in="SourceGraphic" in2="BackgroundImageFix" result="shape"/>
<feColorMatrix in="SourceAlpha" type="matrix" values="0 0 0 0 0 0 0 0 0 0 0 0 0 0 0 0 0 0 127 0" result="hardAlpha"/>
<feOffset dx="49" dy="75"/>
<feGaussianBlur stdDeviation="25"/>
<feComposite in2="hardAlpha" operator="arithmetic" k2="-1" k3="1"/>
<feColorMatrix type="matrix" values="0 0 0 0 0.603922 0 0 0 0 0.827451 0 0 0 0 0.8 0 0 0 0.18 0"/>
<feBlend mode="normal" in2="shape" result="effect1_innerShadow_0_1"/>
</filter>
<filter id="filter1_i_0_1" x="-11" y="16" width="442" height="446" filterUnits="userSpaceOnUse" color-interpolation-filters="sRGB">
<feFlood flood-opacity="0" result="BackgroundImageFix"/>
<feBlend mode="normal" in="SourceGraphic" in2="BackgroundImageFix" result="shape"/>
<feColorMatrix in="SourceAlpha" type="matrix" values="0 0 0 0 0 0 0 0 0 0 0 0 0 0 0 0 0 0 127 0" result="hardAlpha"/>
<feOffset dx="-23" dy="-27"/>
<feGaussianBlur stdDeviation="25"/>
<feComposite in2="hardAlpha" operator="arithmetic" k2="-1" k3="1"/>
<feColorMatrix type="matrix" values="0 0 0 0 0.531246 0 0 0 0 0.393819 0 0 0 0 0.891667 0 0 0 0.18 0"/>
<feBlend mode="normal" in2="shape" result="effect1_innerShadow_0_1"/>
</filter>
<linearGradient id="paint0_linear_0_1" x1="222" y1="364" x2="222" y2="448" gradientUnits="userSpaceOnUse">
<stop stop-color="#504CA7" stop-opacity="0.58"/>
<stop offset="1" stop-color="#5B56BD" stop-opacity="0"/>
</linearGradient>
</defs>
</svg>
