<svg width="55" height="55" viewBox="0 0 55 55" fill="none" xmlns="http://www.w3.org/2000/svg">
<path fill-rule="evenodd" clip-rule="evenodd" d="M52 27.5C52 41.031 41.031 52 27.5 52C13.969 52 3 41.031 3 27.5C3 13.969 13.969 3 27.5 3C41.031 3 52 13.969 52 27.5ZM55 27.5C55 42.6878 42.6878 55 27.5 55C12.3122 55 0 42.6878 0 27.5C0 12.3122 12.3122 0 27.5 0C42.6878 0 55 12.3122 55 27.5ZM27.501 41.2504C20.8489 41.2504 15.3001 36.5266 14.026 30.2504H17.106C18.3209 34.8552 22.5145 38.2504 27.501 38.2504C32.4875 38.2504 36.681 34.8552 37.896 30.2504H40.9759C39.7019 36.5266 34.1531 41.2504 27.501 41.2504ZM40.0605 21.0624C40.0605 22.4431 38.9413 23.5624 37.5605 23.5624C36.1798 23.5624 35.0605 22.4431 35.0605 21.0624C35.0605 19.6817 36.1798 18.5624 37.5605 18.5624C38.9413 18.5624 40.0605 19.6817 40.0605 21.0624ZM16.9375 23.5624C18.3182 23.5624 19.4375 22.4431 19.4375 21.0624C19.4375 19.6817 18.3182 18.5624 16.9375 18.5624C15.5568 18.5624 14.4375 19.6817 14.4375 21.0624C14.4375 22.4431 15.5568 23.5624 16.9375 23.5624Z" fill="#A18129"/>
</svg>
