<svg width="43" height="58" fill="none" xmlns="http://www.w3.org/2000/svg"><path d="M2 17.5a3.5 3.5 0 1 0 7 0 3.5 3.5 0 0 0-7 0v0zM25 5.5a3.5 3.5 0 1 0 7 0 3.5 3.5 0 0 0-7 0zM34 17.5a3.5 3.5 0 1 0 7 0 3.5 3.5 0 0 0-7 0zM10 5.5a3.5 3.5 0 1 0 7 0 3.5 3.5 0 0 0-7 0z" stroke="#A18129" stroke-width="3" stroke-linecap="round" stroke-linejoin="round"/><mask id="a" style="mask-type:alpha" maskUnits="userSpaceOnUse" x="0" y="15" width="43" height="43"><path fill="#D9D9D9" stroke="#A18129" stroke-width=".2" d="M.1 15.512h42.153v42.153H.1z"/></mask><g mask="url(#a)"><path d="M19.588 52.471c-.695 0-1.357-.17-1.988-.507a4.635 4.635 0 0 1-1.602-1.434L6 36.456l1.004-1.103c.489-.559 1.068-.882 1.737-.97.669-.089 1.274.088 1.814.53l4.478 3.573v-17.78c0-.5.148-.919.444-1.257a1.404 1.404 0 0 1 1.1-.508c.438 0 .804.17 1.1.508.296.338.444.757.444 1.257V45.28l-4.285-3.441 4.556 6.44c.154.207.334.368.54.486.206.118.425.177.656.177h10.886c.85 0 1.577-.346 2.182-1.037.604-.691.907-1.522.907-2.493V33.06c0-.5.148-.919.444-1.257a1.404 1.404 0 0 1 1.1-.508c.437 0 .804.17 1.1.508.296.338.444.757.444 1.257v12.353c0 1.941-.605 3.603-1.815 4.985-1.209 1.383-2.663 2.074-4.362 2.074H19.588zm1.622-14.118V27.765c0-.5.148-.92.444-1.257a1.404 1.404 0 0 1 1.1-.508c.437 0 .804.17 1.1.508.296.338.444.757.444 1.257v10.588H21.21zm6.176 0V29.53c0-.5.148-.92.444-1.258a1.404 1.404 0 0 1 1.1-.507c.438 0 .805.17 1.1.507.296.339.444.758.444 1.258v8.823h-3.088z" fill="#A18129"/><path d="M19.588 52.471c-.695 0-1.357-.17-1.988-.507a4.635 4.635 0 0 1-1.602-1.434L6 36.456l1.004-1.103c.489-.559 1.068-.882 1.737-.97.669-.089 1.274.088 1.814.53l4.478 3.573v-17.78c0-.5.148-.919.444-1.257a1.404 1.404 0 0 1 1.1-.508c.438 0 .804.17 1.1.508.296.338.444.757.444 1.257V45.28l-4.285-3.441 4.556 6.44c.154.207.334.368.54.486.206.118.425.177.656.177h10.886c.85 0 1.577-.346 2.182-1.037.604-.691.907-1.522.907-2.493V33.06c0-.5.148-.919.444-1.257a1.404 1.404 0 0 1 1.1-.508c.437 0 .804.17 1.1.508.296.338.444.757.444 1.257v12.353c0 1.941-.605 3.603-1.815 4.985-1.209 1.383-2.663 2.074-4.362 2.074H19.588zm1.622-14.118V27.765c0-.5.148-.92.444-1.257a1.404 1.404 0 0 1 1.1-.508c.437 0 .804.17 1.1.508.296.338.444.757.444 1.257v10.588H21.21zm6.176 0V29.53c0-.5.148-.92.444-1.258a1.404 1.404 0 0 1 1.1-.507c.438 0 .805.17 1.1.507.296.339.444.758.444 1.258v8.823h-3.088z" stroke="#A18129"/></g></svg>