<svg width="60" height="60" fill="none" xmlns="http://www.w3.org/2000/svg"><mask id="a" style="mask-type:alpha" maskUnits="userSpaceOnUse" x="0" y="0" width="60" height="60"><path fill="#D9D9D9" d="M0 0h60v60H0z"/></mask><g mask="url(#a)"><path d="M14.52 50.23h28.46a.747.747 0 0 0 .554-.217.755.755 0 0 0 .216-.555V25.876a.755.755 0 0 0-.216-.556.747.747 0 0 0-.553-.218H14.519a.747.747 0 0 0-.553.218.755.755 0 0 0-.216.556v23.582c0 .225.072.41.216.555a.747.747 0 0 0 .553.218zm14.23-8.166c1.215 0 2.248-.428 3.099-1.283.85-.855 1.276-1.893 1.276-3.114 0-1.221-.425-2.26-1.276-3.115-.851-.855-1.884-1.283-3.099-1.283-1.215 0-2.248.428-3.099 1.283-.85.855-1.276 1.894-1.276 3.115 0 1.22.425 2.259 1.276 3.114s1.884 1.283 3.099 1.283zM14.52 54c-1.247 0-2.312-.444-3.195-1.331C10.442 51.78 10 50.71 10 49.458V25.876c0-1.254.441-2.324 1.325-3.211.883-.888 1.948-1.332 3.194-1.332H32.5v-5.025c0-3.138 1.095-5.807 3.284-8.008C37.973 6.1 40.628 5 43.75 5s5.777 1.1 7.966 3.3C53.906 10.5 55 13.17 55 16.308h-3.75c0-2.094-.73-3.874-2.188-5.34-1.458-1.466-3.229-2.199-5.312-2.199s-3.854.733-5.313 2.199c-1.458 1.466-2.187 3.246-2.187 5.34v5.025h6.73c1.248 0 2.312.444 3.195 1.332.884.887 1.325 1.957 1.325 3.21v23.583c0 1.253-.441 2.323-1.325 3.21-.883.888-1.947 1.332-3.194 1.332H14.519z" fill="#A18129"/></g></svg>