<svg width="100" height="51" fill="none" xmlns="http://www.w3.org/2000/svg"><path d="M6.417 42.577v-2.084a14.583 14.583 0 1 1 29.167 0v2.084" stroke="#A18129" stroke-width="3" stroke-linecap="square"/><path d="M21 25.91a8.333 8.333 0 1 0 0-16.667 8.333 8.333 0 0 0 0 16.667v0zM35.417 42.577v-2.084a14.583 14.583 0 1 1 29.167 0v2.084" stroke="#A18129" stroke-width="3" stroke-linecap="square"/><path d="M50 25.91a8.333 8.333 0 1 0 0-16.667 8.333 8.333 0 0 0 0 16.667v0zM65.417 42.577v-2.084a14.583 14.583 0 1 1 29.167 0v2.084" stroke="#A18129" stroke-width="3" stroke-linecap="square"/><path d="M80 25.91a8.333 8.333 0 1 0 0-16.667 8.333 8.333 0 0 0 0 16.667v0z" stroke="#A18129" stroke-width="3" stroke-linecap="square"/></svg>