<svg width="73" height="73" fill="none" xmlns="http://www.w3.org/2000/svg"><circle cx="36.5" cy="36.367" r="35.5" fill="#A18129" stroke="#fff"/><path d="M35.128 50.87c-1.82 0-3.402-.237-4.746-.713-1.344-.504-2.492-1.106-3.444-1.806l1.722-3.15c.784.588 1.694 1.106 2.73 1.554 1.036.448 2.296.672 3.78.672 1.848 0 3.304-.49 4.368-1.47 1.092-.98 1.638-2.198 1.638-3.654 0-1.036-.28-1.974-.84-2.814-.56-.868-1.428-1.568-2.604-2.1-1.148-.532-2.646-.798-4.494-.798h-2.352v-3.066h2.184c1.652 0 3.01-.252 4.074-.756 1.092-.504 1.904-1.162 2.436-1.974s.798-1.666.798-2.562c0-1.316-.504-2.38-1.512-3.192-.98-.812-2.198-1.218-3.654-1.218-1.316 0-2.492.224-3.528.672-1.008.42-1.834.896-2.478 1.428l-1.554-2.982c.84-.56 1.918-1.106 3.234-1.638 1.316-.56 2.856-.84 4.62-.84 1.848 0 3.416.336 4.704 1.008 1.288.672 2.268 1.568 2.94 2.688a6.487 6.487 0 0 1 1.05 3.57c0 1.652-.42 3.038-1.26 4.158-.812 1.12-1.974 2.044-3.486 2.772 1.764.672 3.136 1.666 4.116 2.982 1.008 1.288 1.512 2.8 1.512 4.536 0 1.456-.364 2.856-1.092 4.2-.7 1.316-1.792 2.394-3.276 3.234-1.456.84-3.318 1.26-5.586 1.26z" fill="#fff"/></svg>