<svg width="73" height="73" fill="none" xmlns="http://www.w3.org/2000/svg"><circle cx="36.5" cy="36.367" r="35.5" fill="#A18129" stroke="#fff"/><path d="M27.946 50.367a9.438 9.438 0 0 1-.126-1.554c0-1.82.308-3.444.924-4.872a15.927 15.927 0 0 1 2.478-3.948 32.66 32.66 0 0 1 3.192-3.318 199.467 199.467 0 0 0 3.192-2.94c1.008-.952 1.834-1.904 2.478-2.856.644-.952.966-1.946.966-2.982 0-1.176-.434-2.142-1.302-2.898-.868-.784-1.988-1.176-3.36-1.176-1.176 0-2.254.238-3.234.714a10.48 10.48 0 0 0-2.688 1.848l-2.1-2.562a14.58 14.58 0 0 1 3.696-2.436c1.372-.616 2.954-.924 4.746-.924 1.652 0 3.094.322 4.326.966 1.232.616 2.184 1.47 2.856 2.562.7 1.092 1.05 2.31 1.05 3.654a8.08 8.08 0 0 1-.882 3.738 14.694 14.694 0 0 1-2.268 3.234 42.327 42.327 0 0 1-2.982 2.94 59.595 59.595 0 0 0-3.066 2.856c-.98.98-1.82 2.002-2.52 3.066a8.541 8.541 0 0 0-1.26 3.444h12.936v3.444H27.946z" fill="#fff"/></svg>