<svg width="86" height="86" fill="none" xmlns="http://www.w3.org/2000/svg"><circle cx="43" cy="43" r="43" fill="#fff"/><path d="M56.937 49.929a8.026 8.026 0 0 0-6.28 3.101l-14.903-7.457a8.04 8.04 0 0 0 .306-2.073 8.04 8.04 0 0 0-.306-2.073l14.904-7.457a8.032 8.032 0 0 0 6.279 3.102 8.025 8.025 0 0 0 7.419-4.961 8.042 8.042 0 0 0-1.741-8.757 8.028 8.028 0 0 0-13.708 5.682c.011.701.114 1.398.305 2.073L34.31 38.566a8.03 8.03 0 0 0-6.28-3.102c-2.129 0-4.171.847-5.677 2.354a8.039 8.039 0 0 0 5.678 13.718 8.026 8.026 0 0 0 6.279-3.102l14.903 7.457a8.042 8.042 0 0 0 3.308 8.762 8.026 8.026 0 0 0 12.141-4.379 8.04 8.04 0 0 0-3.038-8.859 8.026 8.026 0 0 0-4.686-1.486zm0-25.715a4.815 4.815 0 0 1 4.451 2.977 4.825 4.825 0 0 1-3.511 6.573 4.814 4.814 0 0 1-4.946-2.05 4.824 4.824 0 0 1 4.006-7.5zM28.03 48.322a4.815 4.815 0 0 1-4.451-2.977 4.825 4.825 0 0 1 3.51-6.574 4.815 4.815 0 0 1 4.947 2.05 4.824 4.824 0 0 1-4.006 7.5zm28.907 14.464a4.815 4.815 0 0 1-4.451-2.977 4.825 4.825 0 0 1 1.044-5.254 4.817 4.817 0 0 1 8.225 3.41 4.823 4.823 0 0 1-4.818 4.82z" fill="#7E817A"/></svg>