<svg width="29" height="29" viewBox="0 0 29 29" fill="none" xmlns="http://www.w3.org/2000/svg">
<path d="M23 18.3053C22.2448 18.3109 21.5007 18.4904 20.8235 18.8304C20.1463 19.1703 19.5537 19.6618 19.09 20.268L9.81 15.5493C9.92937 15.1223 9.99325 14.6813 10 14.2374C9.99325 13.7936 9.92937 13.3525 9.81 12.9256L19.09 8.20687C19.5537 8.81307 20.1463 9.30459 20.8235 9.64452C21.5007 9.98445 22.2448 10.164 23 10.1696C23.9889 10.1696 24.9556 9.87138 25.7779 9.31266C26.6001 8.75393 27.241 7.95979 27.6194 7.03067C27.9978 6.10154 28.0969 5.07916 27.9039 4.09281C27.711 3.10645 27.2348 2.20043 26.5355 1.48931C25.8363 0.778184 24.9454 0.293903 23.9755 0.0977053C23.0055 -0.0984928 22.0002 0.00220316 21.0866 0.38706C20.173 0.771916 19.3921 1.42365 18.8427 2.25984C18.2932 3.09603 18 4.07912 18 5.0848C18.0068 5.52865 18.0706 5.9697 18.19 6.39668L8.91 11.1154C8.44633 10.5092 7.85366 10.0177 7.17647 9.67772C6.49928 9.33779 5.75517 9.15827 5 9.15264C3.67392 9.15264 2.40215 9.68836 1.46447 10.6419C0.526784 11.5955 0 12.8889 0 14.2374C0 15.586 0.526784 16.8794 1.46447 17.8329C2.40215 18.7865 3.67392 19.3222 5 19.3222C5.75517 19.3166 6.49928 19.1371 7.17647 18.7972C7.85366 18.4572 8.44633 17.9657 8.91 17.3595L18.19 22.0782C17.9203 23.1054 17.974 24.1927 18.3434 25.1872C18.7129 26.1817 19.3797 27.0335 20.2499 27.6226C21.1201 28.2118 22.15 28.5088 23.1948 28.4718C24.2396 28.4347 25.2467 28.0656 26.0745 27.4163C26.9023 26.767 27.5091 25.8702 27.8096 24.8519C28.1102 23.8336 28.0893 22.7452 27.75 21.7396C27.4107 20.734 26.77 19.8619 25.9179 19.2458C25.0659 18.6298 24.0454 18.3009 23 18.3053ZM23 2.03392C23.5933 2.03392 24.1734 2.21285 24.6667 2.54809C25.1601 2.88332 25.5446 3.3598 25.7716 3.91728C25.9987 4.47476 26.0581 5.08819 25.9424 5.68C25.8266 6.27181 25.5409 6.81543 25.1213 7.2421C24.7018 7.66877 24.1672 7.95934 23.5853 8.07706C23.0033 8.19478 22.4001 8.13436 21.8519 7.90345C21.3038 7.67253 20.8352 7.28149 20.5056 6.77978C20.1759 6.27806 20 5.68821 20 5.0848C20 4.27566 20.3161 3.49965 20.8787 2.9275C21.4413 2.35535 22.2044 2.03392 23 2.03392ZM5 17.2883C4.40666 17.2883 3.82664 17.1094 3.33329 16.7742C2.83994 16.4389 2.45542 15.9624 2.22836 15.405C2.0013 14.8475 1.94189 14.2341 2.05764 13.6422C2.1734 13.0504 2.45912 12.5068 2.87868 12.0801C3.29824 11.6535 3.83279 11.3629 4.41473 11.2452C4.99667 11.1275 5.59987 11.1879 6.14805 11.4188C6.69623 11.6497 7.16476 12.0407 7.49441 12.5425C7.82405 13.0442 8 13.634 8 14.2374C8 15.0466 7.68393 15.8226 7.12132 16.3947C6.55871 16.9669 5.79565 17.2883 5 17.2883ZM23 26.441C22.4067 26.441 21.8266 26.262 21.3333 25.9268C20.8399 25.5916 20.4554 25.1151 20.2284 24.5576C20.0013 24.0001 19.9419 23.3867 20.0576 22.7949C20.1734 22.2031 20.4591 21.6595 20.8787 21.2328C21.2982 20.8061 21.8328 20.5155 22.4147 20.3978C22.9967 20.2801 23.5999 20.3405 24.1481 20.5714C24.6962 20.8023 25.1648 21.1934 25.4944 21.6951C25.8241 22.1968 26 22.7867 26 23.3901C26 24.1992 25.6839 24.9752 25.1213 25.5474C24.5587 26.1195 23.7956 26.441 23 26.441Z" fill="#E0FF22"/>
</svg>
