<svg width="203" height="97" viewBox="0 0 203 97" fill="none" xmlns="http://www.w3.org/2000/svg">
<path d="M150.371 38.0875C151.595 31.5418 150.025 29.759 147.285 29.759C144.358 29.759 142.495 32.3933 141.404 38.0875C140.18 44.6333 141.75 46.416 144.491 46.416C147.418 46.416 149.28 43.8084 150.371 38.0875ZM160.376 38.0875C158.381 48.8374 152.181 54.2922 143.666 54.2922C132.73 54.2922 129.883 46.0967 131.373 38.0875C133.368 27.3376 139.568 21.8828 148.083 21.8828C159.019 21.8828 161.866 30.0783 160.376 38.0875ZM68.4165 22.0957C58.2519 22.0957 50.6152 28.7479 48.6728 39.4712C47.7149 44.7131 48.5664 48.2787 50.6153 50.7799C51.9457 52.3764 53.5422 53.6004 56.0966 53.76C60.833 54.0794 64.2389 50.9661 65.5959 48.8108H65.7024C65.6226 52.1103 67.8843 53.76 70.0928 53.76C72.8867 53.76 75.042 52.3232 76.1596 49.9018C75.8403 49.7421 75.5476 49.5027 75.3081 49.2366C74.5365 48.2787 74.5631 46.8418 75.042 44.2873L78.8471 23.8252C76.3991 22.8673 72.8867 22.0957 68.4165 22.0957ZM62.1368 45.9371C60.4871 45.9371 59.4759 45.3517 58.7309 44.2873C57.7996 42.9569 57.5069 40.9346 58.0657 38.1141C59.2631 32.34 61.7909 29.9453 65.5427 29.9186C66.5539 29.892 67.5916 30.0251 68.5495 30.2912L65.9419 44.2607C65.0106 45.2453 63.3342 45.9371 62.1368 45.9371ZM97.9521 29.9186C99.6019 29.892 100.533 30.504 101.305 31.5684C102.263 32.9254 102.422 35.2936 101.864 38.1141C100.693 43.8882 98.3513 45.9371 94.5462 45.9371C93.5351 45.9637 92.4973 45.8306 91.5128 45.5646L94.1205 31.595C95.1316 30.5839 96.5153 29.9985 97.9521 29.9186ZM90.209 52.5094C94.3866 53.7068 98.1384 53.3343 101.278 51.8442C106.494 49.343 110.059 44.1011 111.283 37.3957C112.241 32.1538 111.283 28.1359 109.554 25.7145C108.037 23.5592 105.589 22.2287 102.955 22.1223C98.8302 21.8562 95.9565 23.4793 94.0673 25.7677H93.9608C94.014 23.4527 92.4707 22.1223 89.4107 22.1223C86.6168 22.1223 84.4615 23.5592 83.3706 25.9806C83.6899 26.1402 83.9826 26.3797 84.2487 26.6458C85.0203 27.6037 84.9937 29.0406 84.5147 31.595L78.6874 62.9667H88.2666L90.209 52.5094Z" fill="white"/>
<path d="M109.101 77.442C107.877 83.9345 103.646 87.2074 98.8302 86.9945C95.0518 86.8348 92.4441 83.8547 93.2424 79.4908C94.2801 73.903 99.389 71.8275 104.631 71.8275H110.139L109.101 77.442ZM185.681 22.5748L175.942 44.8197H175.463L174.319 22.5748H164.634L168.492 55.5962C165.112 61.9823 158.859 62.9668 153.298 62.9668H121.368L128.871 22.5748H119.292L111.762 62.9668H105.695C95.8234 62.9668 85.5524 67.2242 83.3971 78.5862C81.2152 90.3206 90.1025 96.0415 98.3778 96.0415C110.485 96.0415 116.818 87.2606 118.467 78.3201L119.718 71.7743H153.272C169.317 71.7743 174.638 64.7762 180.466 53.1482C185.734 42.6378 195.792 22.5482 195.792 22.5482H185.681V22.5748ZM40.77 53.2281L48.3269 12.5966H130.734L132.357 3.89551H24.9378C11.9794 3.89551 4.76841 8.17951 3.30493 17.1999C2.48006 22.2555 3.70406 26.3799 6.60441 29.4931C9.6378 32.7926 14.6136 34.2827 19.6161 34.3093L21.2126 25.7945C18.2856 25.7146 15.7844 25.1293 14.3742 23.6924C13.1235 22.4152 12.6446 20.5792 13.0969 18.344C14.0016 13.8738 18.4187 12.5966 25.9755 12.5966H37.9761L30.3926 53.2014L40.77 53.2281Z" fill="white"/>
</svg>
