<svg width="81" height="96" viewBox="0 0 81 96" fill="none" xmlns="http://www.w3.org/2000/svg">
<path d="M80.9275 88.8444L79.6271 77.9571C79.6249 77.9389 79.6224 77.9209 79.6195 77.9029C79.2623 75.6785 78.2369 73.6191 76.6825 72.0043C75.1281 70.3894 73.1199 69.2973 70.9306 68.8761L57.669 66.3536H57.6681L54.0764 65.6704C57.5571 64.9863 60.9838 64.046 64.3291 62.8569C65.8227 62.3241 67.0875 61.2842 67.9081 59.9144C68.7286 58.5445 69.0542 56.9293 68.8294 55.344L66.76 40.9989H67.9145C68.6545 40.9981 69.364 40.7004 69.8873 40.1713C70.4106 39.6421 70.7049 38.9246 70.7057 38.1763V32.4458C70.7049 31.6974 70.4106 30.98 69.8873 30.4508C69.364 29.9216 68.6545 29.624 67.9145 29.6231H65.6189C65.4395 29.1904 65.2126 28.7796 64.9423 28.3982L63.788 20.3957C62.9698 14.7293 60.1618 9.54999 55.8775 5.80494C51.5933 2.05989 46.1191 -0.000689065 40.456 1.7285e-07H39.4098C33.6676 0.00766464 28.125 2.13068 23.8188 5.97182C19.5127 9.81296 16.7381 15.109 16.0143 20.8691L14.9283 29.6231H12.6575C11.9175 29.6239 11.2079 29.9216 10.6846 30.4507C10.1613 30.9799 9.86693 31.6974 9.86615 32.4458V38.1763C9.86693 38.9247 10.1613 39.6422 10.6846 40.1713C11.2079 40.7005 11.9175 40.9981 12.6575 40.9989H13.5172L11.7241 55.4524C11.5369 57.0126 11.8791 58.5909 12.6945 59.9289C13.51 61.2669 14.7504 62.2853 16.2129 62.8176C19.6619 64.0508 23.1981 65.0187 26.7914 65.7131L23.7315 66.3216L23.7109 66.3257L10.5997 68.9329C8.55992 69.3416 6.67931 70.3345 5.18186 71.7935C3.68442 73.2524 2.63325 75.1159 2.15356 77.1619C2.14763 77.1865 2.1425 77.2113 2.13817 77.2361L0.154679 88.4134C-0.0510406 89.322 -0.0515651 90.2659 0.153145 91.1748C0.357856 92.0837 0.762535 92.9343 1.3371 93.6633C1.91166 94.3923 2.64133 94.9809 3.47186 95.3855C4.30239 95.79 5.21241 96.0001 6.13428 96H74.8641C75.7494 96 76.6242 95.8063 77.4285 95.4322C78.2328 95.0581 78.9475 94.5124 79.5235 93.8326C80.0996 93.1528 80.5233 92.355 80.7657 91.494C81.008 90.6329 81.0632 89.7291 80.9275 88.8444ZM66.0944 32.4399L67.9245 32.4456L67.9145 38.1864H66.0944V32.4399ZM64.2446 43.0462L66.0769 55.7501C66.2098 56.6903 66.0162 57.648 65.5292 58.4601C65.0422 59.2722 64.2918 59.8884 63.4059 60.2038C59.5514 61.574 55.5857 62.6003 51.5542 63.2709V57.8486L52.5602 57.2122C54.026 56.289 55.2631 55.0383 56.1765 53.5564H56.4035C58.0092 53.5547 59.5487 52.9091 60.6842 51.7612C61.8198 50.6132 62.4587 49.0567 62.4608 47.433V44.2886C63.1228 43.9834 63.7266 43.5629 64.2446 43.0462ZM45.6853 58.2442C44.0639 59.2608 42.1939 59.7994 40.2861 59.7994C38.3783 59.7994 36.5084 59.2608 34.8869 58.2442L32.0037 56.4202C31.9991 56.4171 31.9939 56.4143 31.9891 56.4111L29.4858 54.8274C28.2568 54.0561 27.2436 52.9795 26.5424 51.7002C25.8413 50.4208 25.4756 48.9813 25.4803 47.5187V28.4888C26.8471 28.2991 28.1552 27.8052 29.3105 27.0426C30.4658 26.2801 31.4394 25.2679 32.1611 24.0789C33.0451 24.9626 34.0034 25.7669 35.0252 26.4827L35.2952 26.6685C41.6234 31.0056 48.455 29.9947 55.0912 28.8446V47.5191C55.0926 48.6238 54.8845 49.7186 54.4782 50.7441H45.1535C44.8703 49.9333 44.3456 49.2313 43.6517 48.7343C42.9578 48.2374 42.1286 47.97 41.2783 47.9689H38.9166C37.8271 47.9702 36.7827 48.4084 36.0124 49.1873C35.2421 49.9663 34.8088 51.0224 34.8075 52.1241V52.1766C34.8088 53.2781 35.2421 54.3342 36.0124 55.1132C36.7828 55.8921 37.8272 56.3303 38.9166 56.3316H41.2783C42.1286 56.3305 42.9577 56.0631 43.6516 55.5662C44.3455 55.0693 44.8702 54.3672 45.1535 53.5566H52.6506C52.1797 54.0406 51.6544 54.4673 51.0853 54.8278L45.6853 58.2442ZM48.7728 59.6085V66.0112C48.7722 66.1712 48.7358 66.3288 48.6661 66.4724C48.5965 66.616 48.4956 66.7417 48.371 66.8402L40.5164 73.0221L32.9996 66.8578C32.7876 66.685 32.6516 66.4344 32.6214 66.1607C32.6206 66.1504 32.6206 66.1401 32.6197 66.1299C32.6175 66.1012 32.6149 66.0724 32.6149 66.0431V60.1247L33.4122 60.6291C35.4766 61.9233 37.8573 62.6089 40.2863 62.6089C42.7152 62.6088 45.0959 61.923 47.1602 60.6287L48.7728 59.6085ZM42.606 52.1239V52.1764C42.6056 52.5323 42.4656 52.8735 42.2167 53.1252C41.9678 53.3769 41.6303 53.5185 41.2783 53.5189H38.9166C38.5646 53.5185 38.2271 53.3769 37.9782 53.1252C37.7293 52.8735 37.5893 52.5323 37.5889 52.1764V52.1239C37.5893 51.7679 37.7293 51.4267 37.9782 51.175C38.2271 50.9232 38.5645 50.7816 38.9166 50.7812H41.2783C41.6303 50.7816 41.9678 50.9232 42.2167 51.175C42.4656 51.4267 42.6056 51.7679 42.606 52.1239ZM57.4697 50.5601C57.7375 49.5691 57.873 48.5463 57.8726 47.5189V44.8507H59.6794V47.433C59.6782 48.1218 59.4647 48.7932 59.0687 49.3537C58.6726 49.9141 58.1137 50.3359 57.4697 50.5603V50.5601ZM63.313 32.0269V38.5952C63.312 39.508 62.953 40.3832 62.3147 41.0286C61.6764 41.6741 60.8109 42.0372 59.9082 42.0382H57.8726V28.5838H59.9082C60.8109 28.5849 61.6764 28.9479 62.3147 29.5934C62.953 30.2389 63.312 31.1141 63.313 32.0269ZM18.7738 21.2192C19.4124 16.1386 21.8598 11.4673 25.658 8.07942C29.4563 4.69151 34.3452 2.81909 39.41 2.8125H40.4561C45.4512 2.81177 50.2795 4.62914 54.0584 7.93226C57.8372 11.2354 60.314 15.8036 61.0358 20.8014L61.796 26.0708C61.186 25.8723 60.5492 25.7712 59.9084 25.7713H56.5522C56.5453 25.7711 56.5386 25.7717 56.5318 25.7713H56.4821L56.4765 25.7717C56.4332 25.7719 56.3899 25.7741 56.3467 25.7784L56.3282 25.7805C56.3015 25.7835 56.275 25.7852 56.2485 25.7899L55.2965 25.9551C48.7015 27.1039 42.4721 28.1889 36.8559 24.3403L36.6028 24.1659C35.2033 23.1855 33.9437 22.0152 32.8595 20.6878C32.7008 20.4934 32.4934 20.3458 32.2589 20.2602C32.0245 20.1747 31.7716 20.1544 31.5268 20.2016C31.2819 20.2487 31.0541 20.3616 30.8672 20.5282C30.6803 20.6949 30.541 20.9093 30.4641 21.1491C30.031 22.5053 29.1799 23.6856 28.0355 24.5174C26.891 25.3492 25.5133 25.7887 24.104 25.7715L24.0979 25.7717L24.0898 25.7713H20.6637C19.7939 25.7716 18.9342 25.9586 18.1413 26.3199L18.7738 21.2192ZM17.2589 32.0267C17.26 31.114 17.619 30.2389 18.2572 29.5935C18.8955 28.9482 19.7608 28.5851 20.6635 28.584H22.6989V42.0382H20.6635C19.7607 42.0372 18.8953 41.6741 18.257 41.0286C17.6187 40.3832 17.2597 39.508 17.2587 38.5952L17.2589 32.0267ZM12.6473 38.1763L12.6574 32.4356H14.4773V38.1821L12.6473 38.1763ZM17.1406 60.1663C16.2745 59.8506 15.54 59.247 15.0573 58.4543C14.5746 57.6615 14.3724 56.7266 14.4836 55.8024L16.0961 42.8046C16.6741 43.4489 17.3791 43.9639 18.1657 44.3163C18.9523 44.6687 19.8031 44.8507 20.6635 44.8507H22.6989V47.5189C22.6928 49.4587 23.1777 51.3678 24.1075 53.0644C25.0374 54.7611 26.3811 56.189 28.011 57.2121L29.8337 58.3652V63.39C25.5122 62.7196 21.2625 61.6403 17.1406 60.1663ZM30.2937 67.8831C30.5333 68.3291 30.8574 68.723 31.2476 69.0424L38.9371 75.348C39.3752 75.7105 39.9225 75.911 40.4885 75.9166C41.0545 75.9222 41.6055 75.7324 42.0504 75.3786L50.0788 69.0602C50.4636 68.7563 50.787 68.3805 51.0315 67.9532L55.8479 68.8691C55.6689 69.4198 55.3331 69.9048 54.8826 70.2634L40.5746 81.5237C40.5161 81.57 40.4437 81.5947 40.3694 81.594C40.295 81.5932 40.2232 81.5669 40.1656 81.5194L26.4589 70.2784C26.0047 69.906 25.6739 69.402 25.511 68.8341L30.2937 67.8831ZM77.4174 91.9959C77.1026 92.3698 76.7112 92.67 76.2703 92.8757C75.8295 93.0815 75.3496 93.1879 74.8641 93.1875H6.13428C5.62859 93.1876 5.12944 93.0719 4.6742 92.8493C4.21896 92.6267 3.81943 92.3028 3.50551 91.9019C3.1916 91.501 2.97144 91.0335 2.86152 90.5344C2.75161 90.0352 2.75477 89.5175 2.87079 89.0198C2.87648 88.9951 2.88148 88.9702 2.88581 88.9451L4.86875 77.7716C5.23046 76.2589 6.01291 74.8826 7.12361 73.8053C8.2343 72.728 9.6268 71.9948 11.1365 71.6923L22.7731 69.3786C23.0657 70.5938 23.7457 71.6779 24.708 72.4637L38.4144 83.7043C38.9593 84.1541 39.6394 84.403 40.3428 84.4098C41.0461 84.4167 41.7309 84.1813 42.2843 83.7422L56.5924 72.4819C57.5816 71.7056 58.2873 70.6188 58.5987 69.3924L70.4157 71.64C72.0384 71.9522 73.5272 72.7604 74.6813 73.9554C75.8353 75.1504 76.5989 76.6747 76.8691 78.3225L78.1689 89.2069C78.1711 89.2247 78.1737 89.2425 78.1765 89.2605C78.2535 89.7449 78.2255 90.2403 78.0944 90.7127C77.9632 91.185 77.7322 91.6228 77.4172 91.9959H77.4174Z" fill="#A18129"/>
</svg>
