<svg width="90" height="90" viewBox="0 0 90 90" fill="none" xmlns="http://www.w3.org/2000/svg">
<path d="M72.581 22.9589V26.1292H75.4842V23.226H78.3874V18.8712C78.3874 16.4702 76.4335 14.5163 74.0326 14.5163C73.2327 14.5163 72.581 13.8645 72.581 13.0647V11.6131H74.0326C74.8324 11.6131 75.4842 12.2649 75.4842 13.0647V14.5163H78.3874V13.0647C78.3874 11.1747 77.1695 9.57793 75.4842 8.97696V5.80664H72.581V8.70987H69.6777V13.0647C69.6777 15.4657 71.6316 17.4195 74.0326 17.4195C74.8324 17.4195 75.4842 18.0713 75.4842 18.8712V20.3228H74.0326C73.2327 20.3228 72.581 19.671 72.581 18.8712V17.4195H69.6777V18.8712C69.6777 20.7612 70.8956 22.3579 72.581 22.9589Z" fill="#A18129"/>
<path d="M74.0322 31.9355C82.8362 31.9355 89.9999 24.7718 89.9999 15.9677C89.9999 7.16371 82.8362 0 74.0322 0C65.2282 0 58.0645 7.16371 58.0645 15.9677C58.0645 24.7718 65.2282 31.9355 74.0322 31.9355ZM74.0322 2.90323C81.2351 2.90323 87.0967 8.76484 87.0967 15.9677C87.0967 23.1706 81.2351 29.0323 74.0322 29.0323C66.8293 29.0323 60.9677 23.1706 60.9677 15.9677C60.9677 8.76484 66.8293 2.90323 74.0322 2.90323Z" fill="#A18129"/>
<path d="M66.7743 37.7417H63.8711V40.6449H66.7743V37.7417Z" fill="#A18129"/>
<path d="M72.581 37.7417H69.6777V40.6449H72.581V37.7417Z" fill="#A18129"/>
<path d="M78.3866 37.7417H75.4834V40.6449H78.3866V37.7417Z" fill="#A18129"/>
<path d="M84.1933 37.7417H81.29V40.6449H84.1933V37.7417Z" fill="#A18129"/>
<path d="M39.041 54.3588L36.4441 53.0596C35.7952 54.3559 34.4931 55.1615 33.0444 55.1615H26.1289V58.0647H33.0444C35.5992 58.0647 37.8971 56.6436 39.041 54.3588Z" fill="#A18129"/>
<path d="M20.3231 37.7417C17.1208 37.7417 14.5166 40.3459 14.5166 43.5482H17.4198C17.4198 41.947 18.7219 40.6449 20.3231 40.6449C21.9242 40.6449 23.2263 41.947 23.2263 43.5482H26.1295C26.1295 40.3459 23.5253 37.7417 20.3231 37.7417Z" fill="#A18129"/>
<path d="M40.6453 40.6449C42.2464 40.6449 43.5485 41.947 43.5485 43.5482H46.4518C46.4518 40.3459 43.8476 37.7417 40.6453 37.7417C37.4431 37.7417 34.8389 40.3459 34.8389 43.5482H37.7421C37.7421 41.947 39.0442 40.6449 40.6453 40.6449Z" fill="#A18129"/>
<path d="M82.7419 60.9679H82.3369L81.601 58.76C80.4019 55.1643 77.2127 52.6603 73.4995 52.3032L71.624 48.5537C70.9781 47.2574 69.6745 46.4518 68.2258 46.4518C66.7771 46.4518 65.4735 47.2574 64.8261 48.5522L62.9739 52.2582H50.9879C51.3232 51.3147 51.6165 50.3522 51.8197 49.355H52.2581C55.4603 49.355 58.0645 46.7508 58.0645 43.5485C58.0645 41.6847 57.166 40.0414 55.7956 38.9774L57.0919 35.0871C57.7379 33.1521 58.0645 31.1387 58.0645 29.0977C58.0645 18.6563 49.5697 10.1614 39.1282 10.1614H19.4023C17.8229 6.73998 14.3695 4.35498 10.3602 4.35498H9.96097C4.46952 4.35498 0 8.8245 0 14.3159C0 18.8711 1.7521 23.014 4.59871 26.1451C3.5071 28.0148 2.90323 30.1168 2.90323 32.2956C2.90323 34.1827 3.35032 36.0742 4.19371 37.7639L4.90935 39.1937C3.69 40.2592 2.90323 41.8066 2.90323 43.5485C2.90323 46.7508 5.50742 49.355 8.70968 49.355H9.14806C10.7463 57.1995 16.5774 63.5184 24.1418 65.8264C21.8279 67.5814 20.3226 70.3511 20.3226 73.4735C20.3226 82.5868 27.736 90.0001 36.8477 90.0001H53.7097H54.254H72.5806C74.1818 90.0001 75.4839 88.6981 75.4839 87.0969V84.1937H78.3871C79.9882 84.1937 81.2903 82.8916 81.2903 81.2905V75.1661L83.7987 74.5376C85.7395 74.0542 87.0968 72.3151 87.0968 70.3134V65.3227C87.0968 62.9218 85.1429 60.9679 82.7419 60.9679ZM52.2581 46.4518H52.184C52.216 45.9698 52.2581 45.4908 52.2581 45.0001V40.6453C53.8592 40.6453 55.1613 41.9474 55.1613 43.5485C55.1613 45.1497 53.8592 46.4518 52.2581 46.4518ZM9.96097 7.25821H10.3602C14.2534 7.25821 17.4194 10.4242 17.4194 14.3159C17.4194 16.6821 16.245 18.8769 14.2766 20.1892L13.7105 20.5666L15.3203 22.9821L15.8865 22.6047C18.6634 20.7539 20.3226 17.6561 20.3226 14.3159C20.3226 13.8921 20.2877 13.4755 20.2355 13.0647H39.1282C47.9685 13.0647 55.1613 20.2574 55.1613 29.0977C55.1613 30.8251 54.884 32.5308 54.3382 34.1682L53.1174 37.8292C52.8358 37.7871 52.5527 37.7421 52.2581 37.7421V36.0422C52.2581 33.9722 51.6585 31.9472 50.596 30.1835C51.6208 29.1355 52.2581 27.7071 52.2581 26.1292C52.2581 22.9269 49.6539 20.3227 46.4516 20.3227H46.2397C44.0274 20.3227 42.0358 21.5522 41.0458 23.5322L40.7976 24.0287L43.3945 25.3279L43.6427 24.8314C44.1377 23.8414 45.1335 23.2259 46.2397 23.2259H46.4516C48.0527 23.2259 49.3548 24.528 49.3548 26.1292C49.3548 27.7303 48.0527 29.0324 46.4516 29.0324H17.6197C9.50516 29.0324 2.90323 22.4305 2.90323 14.3159C2.90323 10.4242 6.06919 7.25821 9.96097 7.25821ZM6.79064 36.4647C6.14613 35.1756 5.80645 33.7342 5.80645 32.2956C5.80645 30.8556 6.14613 29.4534 6.77613 28.1759C7.84742 29.015 9.01597 29.7306 10.2658 30.3069C9.25548 32.0372 8.70968 34.0172 8.70968 36.0422V37.7421C8.29306 37.7421 7.88806 37.79 7.49613 37.8742L6.79064 36.4647ZM8.70968 46.4518C7.10855 46.4518 5.80645 45.1497 5.80645 43.5485C5.80645 41.9474 7.10855 40.6453 8.70968 40.6453V45.0001C8.70968 45.4908 8.75177 45.9698 8.78371 46.4518H8.70968ZM11.6129 45.0001V36.0422C11.6129 34.3511 12.15 32.7166 13.0892 31.3245C14.5379 31.7092 16.0505 31.9356 17.6197 31.9356H46.4516C47.0308 31.9356 47.5795 31.8239 48.1079 31.6656C48.9048 32.9822 49.3548 34.4948 49.3548 36.0422V45.0001C49.3548 55.4053 40.889 63.8711 30.4839 63.8711C20.0787 63.8711 11.6129 55.4053 11.6129 45.0001ZM23.2258 73.4735C23.2258 69.7792 26.2321 66.7743 29.9264 66.7743C33.0068 66.7743 35.6792 68.8618 36.4268 71.8492L37.5866 76.49L35.264 78.8126L37.3166 80.8651L39.751 78.4308L49.3548 79.116V87.0969H36.8477C29.3371 87.0969 23.2258 80.9856 23.2258 73.4735ZM55.1613 76.6642V69.6776H58.0645V77.7877C57.2182 77.1984 56.2311 76.8108 55.1613 76.6642ZM58.0645 66.7743H55.1613V65.3227C55.1613 64.5214 55.8131 63.8711 56.6129 63.8711C57.4127 63.8711 58.0645 64.5214 58.0645 65.3227V66.7743ZM53.7097 87.0969H52.2581V79.3235L54.5255 79.4861C56.5098 79.6284 58.0645 81.2977 58.0645 83.2864C58.0645 85.3869 56.3545 87.0969 54.254 87.0969H53.7097ZM72.5806 87.0969H59.7702C60.5221 86.0126 60.9677 84.7018 60.9677 83.2864C60.9677 82.5897 60.8327 81.9263 60.631 81.2905H72.5806V87.0969ZM84.1935 70.3134C84.1935 70.9811 83.7406 71.5589 83.0932 71.7229L78.3871 72.8987V81.2905H75.4839C75.4839 79.6893 74.1818 78.3872 72.5806 78.3872H60.9677V65.3227C60.9677 62.9218 59.0139 60.9679 56.6129 60.9679C54.2119 60.9679 52.2581 62.9218 52.2581 65.3227V76.4145L40.3461 75.5639L39.2415 71.1466C38.7232 69.0751 37.5503 67.3172 35.9884 66.0427C41.9385 64.4837 46.9045 60.4845 49.7264 55.1629H64.7681L67.4231 49.8529C67.7293 49.2403 68.7223 49.2403 69.0271 49.8529L71.6835 55.1614H72.5806C75.4273 55.1614 77.9458 56.9759 78.8458 59.6774L80.2437 63.8711H82.7419C83.5418 63.8711 84.1935 64.5214 84.1935 65.3227V70.3134Z" fill="#A18129"/>
<path d="M74.0327 60.9677C74.8344 60.9677 75.4843 60.3178 75.4843 59.5161C75.4843 58.7144 74.8344 58.0645 74.0327 58.0645C73.231 58.0645 72.5811 58.7144 72.5811 59.5161C72.5811 60.3178 73.231 60.9677 74.0327 60.9677Z" fill="#A18129"/>
<path d="M69.6775 58.0645H60.9678V60.9677H69.6775V58.0645Z" fill="#A18129"/>
</svg>
