<svg width="86" height="86" viewBox="0 0 86 86" fill="none" xmlns="http://www.w3.org/2000/svg">
<circle cx="43" cy="43" r="43" fill="white"/>
<path d="M66.2143 30.8H55.5V21.8C55.5 20.72 54.7857 20 53.7143 20H32.2857C31.2143 20 30.5 20.72 30.5 21.8V30.8H19.7857C18.7143 30.8 18 31.52 18 32.6V54.2C18 57.26 20.3214 59.6 23.3571 59.6H30.5V63.2C30.5 64.28 31.2143 65 32.2857 65H50.1429C50.6786 65 51.0357 64.82 51.3929 64.46L54.9643 60.86C55.3214 60.5 55.5 60.14 55.5 59.6H62.6429C65.6786 59.6 68 57.26 68 54.2V32.6C68 31.52 67.2857 30.8 66.2143 30.8ZM34.0714 23.6H51.9286V30.8H34.0714V23.6ZM51.9286 58.88L49.4286 61.4H34.0714V50.6H51.9286V58.88ZM64.4286 54.2C64.4286 55.28 63.7143 56 62.6429 56H55.5V50.6H59.0714C60.1429 50.6 60.8571 49.88 60.8571 48.8C60.8571 47.72 60.1429 47 59.0714 47H26.9286C25.8571 47 25.1429 47.72 25.1429 48.8C25.1429 49.88 25.8571 50.6 26.9286 50.6H30.5V56H23.3571C22.2857 56 21.5714 55.28 21.5714 54.2V34.4H64.4286V54.2Z" fill="#7E817A"/>
</svg>
