<svg width="86" height="86" viewBox="0 0 86 86" fill="none" xmlns="http://www.w3.org/2000/svg">
<circle cx="43" cy="43" r="43" fill="white"/>
<path d="M54.9369 49.9286C53.7242 49.9375 52.5292 50.2212 51.4416 50.7584C50.3541 51.2956 49.4023 52.0724 48.6576 53.0304L33.7544 45.5733C33.9461 44.8985 34.0487 44.2015 34.0595 43.5C34.0487 42.7986 33.9461 42.1016 33.7544 41.4268L48.6576 33.9697C49.4023 34.9277 50.3541 35.7044 51.4416 36.2416C52.5292 36.7789 53.7242 37.0626 54.9369 37.0715C56.5251 37.0715 58.0775 36.6002 59.398 35.7172C60.7185 34.8342 61.7477 33.5792 62.3555 32.1109C62.9632 30.6425 63.1222 29.0268 62.8124 27.468C62.5026 25.9093 61.7378 24.4774 60.6148 23.3536C59.4918 22.2298 58.0611 21.4645 56.5035 21.1544C54.9458 20.8443 53.3313 21.0035 51.8641 21.6117C50.3968 22.2199 49.1427 23.2499 48.2604 24.5713C47.3781 25.8928 46.9072 27.4464 46.9072 29.0357C46.918 29.7372 47.0206 30.4342 47.2123 31.1089L32.309 38.5661C31.5644 37.6081 30.6126 36.8313 29.5251 36.2941C28.4375 35.7569 27.2425 35.4732 26.0298 35.4643C23.9001 35.4643 21.8577 36.3109 20.3519 37.8179C18.846 39.3249 18 41.3688 18 43.5C18 45.6312 18.846 47.6752 20.3519 49.1821C21.8577 50.6891 23.9001 51.5358 26.0298 51.5358C27.2425 51.5269 28.4375 51.2432 29.5251 50.706C30.6126 50.1687 31.5644 49.392 32.309 48.434L47.2123 55.8911C46.7792 57.5144 46.8653 59.2327 47.4587 60.8044C48.0521 62.3761 49.1228 63.7221 50.5203 64.6532C51.9179 65.5843 53.5719 66.0536 55.2497 65.9951C56.9276 65.9366 58.545 65.3533 59.8744 64.3272C61.2038 63.301 62.1783 61.8837 62.661 60.2745C63.1437 58.6653 63.1102 56.9452 62.5652 55.356C62.0203 53.7668 60.9913 52.3885 59.623 51.415C58.2546 50.4415 56.6158 49.9216 54.9369 49.9286ZM54.9369 24.2143C55.8898 24.2143 56.8213 24.4971 57.6136 25.0269C58.4059 25.5566 59.0234 26.3096 59.3881 27.1906C59.7527 28.0716 59.8481 29.0411 59.6622 29.9763C59.4763 30.9116 59.0175 31.7707 58.3437 32.445C57.6699 33.1193 56.8114 33.5785 55.8769 33.7645C54.9423 33.9506 53.9736 33.8551 53.0932 33.4902C52.2129 33.1252 51.4604 32.5073 50.931 31.7144C50.4016 30.9215 50.1191 29.9893 50.1191 29.0357C50.1191 27.757 50.6267 26.5307 51.5302 25.6265C52.4337 24.7223 53.6591 24.2143 54.9369 24.2143ZM26.0298 48.3215C25.0769 48.3215 24.1454 48.0387 23.3531 47.5089C22.5608 46.9791 21.9433 46.2261 21.5786 45.3451C21.214 44.4641 21.1186 43.4947 21.3045 42.5594C21.4904 41.6242 21.9492 40.7651 22.623 40.0908C23.2968 39.4165 24.1553 38.9573 25.0898 38.7712C26.0244 38.5852 26.9931 38.6807 27.8735 39.0456C28.7538 39.4105 29.5063 40.0285 30.0357 40.8214C30.5651 41.6143 30.8476 42.5464 30.8476 43.5C30.8476 44.7788 30.34 46.0051 29.4365 46.9093C28.533 47.8135 27.3075 48.3215 26.0298 48.3215ZM54.9369 62.7858C53.984 62.7858 53.0526 62.503 52.2603 61.9732C51.468 61.4434 50.8505 60.6904 50.4858 59.8094C50.1212 58.9284 50.0257 57.959 50.2116 57.0237C50.3975 56.0885 50.8564 55.2294 51.5302 54.5551C52.204 53.8808 53.0624 53.4216 53.997 53.2355C54.9316 53.0495 55.9003 53.145 56.7806 53.5099C57.661 53.8748 58.4134 54.4928 58.9428 55.2857C59.4722 56.0786 59.7548 57.0107 59.7548 57.9643C59.7548 59.2431 59.2472 60.4694 58.3437 61.3736C57.4401 62.2778 56.2147 62.7858 54.9369 62.7858Z" fill="#7E817A"/>
</svg>
