<svg width="56" height="55" viewBox="0 0 56 55" fill="none" xmlns="http://www.w3.org/2000/svg">
<path fill-rule="evenodd" clip-rule="evenodd" d="M52.5 27.5C52.5 41.031 41.531 52 28 52C14.469 52 3.5 41.031 3.5 27.5C3.5 13.969 14.469 3 28 3C41.531 3 52.5 13.969 52.5 27.5ZM55.5 27.5C55.5 42.6878 43.1878 55 28 55C12.8122 55 0.5 42.6878 0.5 27.5C0.5 12.3122 12.8122 0 28 0C43.1878 0 55.5 12.3122 55.5 27.5ZM28.002 30.2501C34.6541 30.2501 40.2029 34.9739 41.4769 41.2501H38.397C37.182 36.6453 32.9885 33.2501 28.002 33.2501C23.0154 33.2501 18.8219 36.6453 17.6069 41.2501H14.527C15.801 34.9739 21.3498 30.2501 28.002 30.2501ZM40.5605 21.0624C40.5605 22.4431 39.4413 23.5624 38.0605 23.5624C36.6798 23.5624 35.5605 22.4431 35.5605 21.0624C35.5605 19.6817 36.6798 18.5624 38.0605 18.5624C39.4413 18.5624 40.5605 19.6817 40.5605 21.0624ZM17.4375 23.5624C18.8182 23.5624 19.9375 22.4431 19.9375 21.0624C19.9375 19.6817 18.8182 18.5624 17.4375 18.5624C16.0568 18.5624 14.9375 19.6817 14.9375 21.0624C14.9375 22.4431 16.0568 23.5624 17.4375 23.5624Z" fill="#A18129"/>
</svg>
