<svg width="19" height="16" viewBox="0 0 19 16" fill="none" xmlns="http://www.w3.org/2000/svg">
<path d="M0.59375 15.1972C0.436278 15.1972 0.285255 15.14 0.173905 15.0382C0.0625557 14.9364 0 14.7984 0 14.6544C0 14.5105 0.0625557 14.3724 0.173905 14.2706C0.285255 14.1689 0.436278 14.1117 0.59375 14.1117H18.4062C18.5637 14.1117 18.7147 14.1689 18.8261 14.2706C18.9374 14.3724 19 14.5105 19 14.6544C19 14.7984 18.9374 14.9364 18.8261 15.0382C18.7147 15.14 18.5637 15.1972 18.4062 15.1972H0.59375ZM2.375 10.8551C2.375 11.4309 2.62522 11.9831 3.07062 12.3903C3.51602 12.7974 4.12011 13.0262 4.75 13.0262H5.9375C6.56739 13.0262 7.17148 12.7974 7.61688 12.3903C8.06228 11.9831 8.3125 11.4309 8.3125 10.8551V2.17103C8.3125 1.59523 8.06228 1.04303 7.61688 0.635879C7.17148 0.228732 6.56739 0 5.9375 0H4.75C4.12011 0 3.51602 0.228732 3.07062 0.635879C2.62522 1.04303 2.375 1.59523 2.375 2.17103V10.8551ZM10.6875 10.8551C10.6875 11.4309 10.9377 11.9831 11.3831 12.3903C11.8285 12.7974 12.4326 13.0262 13.0625 13.0262H14.25C14.8799 13.0262 15.484 12.7974 15.9294 12.3903C16.3748 11.9831 16.625 11.4309 16.625 10.8551V5.42757C16.625 4.85177 16.3748 4.29956 15.9294 3.89242C15.484 3.48527 14.8799 3.25654 14.25 3.25654H13.0625C12.4326 3.25654 11.8285 3.48527 11.3831 3.89242C10.9377 4.29956 10.6875 4.85177 10.6875 5.42757V10.8551Z" fill="#C9C9C9"/>
</svg>
