<svg width="60" height="60" viewBox="0 0 60 60" fill="none" xmlns="http://www.w3.org/2000/svg">
<path d="M14.0069 33.27L5 43.3332L13.3333 44.9999L16.6667 54.9999L25.2193 41.6935" stroke="#A18129" stroke-width="2" stroke-linecap="square"/>
<path d="M46.6668 33.0996L55.0002 43.3335L46.6668 45.0002L43.3335 55.0002L35.0088 41.5231" stroke="#A18129" stroke-width="2" stroke-linecap="square"/>
<path d="M11.667 23.3333C11.667 28.1956 13.5985 32.8588 17.0367 36.297C20.4749 39.7351 25.138 41.6667 30.0003 41.6667C34.8626 41.6667 39.5258 39.7351 42.964 36.297C46.4021 32.8588 48.3337 28.1956 48.3337 23.3333C48.3337 18.471 46.4021 13.8079 42.964 10.3697C39.5258 6.93154 34.8626 5 30.0003 5C25.138 5 20.4749 6.93154 17.0367 10.3697C13.5985 13.8079 11.667 18.471 11.667 23.3333Z" stroke="#A18129" stroke-width="2" stroke-linecap="square"/>
</svg>
