<svg width="70" height="43" viewBox="0 0 70 43" fill="none" xmlns="http://www.w3.org/2000/svg">
<path d="M24.2524 0L33.5254 11.2133L28.2411 17.781L18.814 5.38625L0.555764 39.4627C0.0970997 38.4718 -0.0594173 37.4339 0.0195622 36.7936C0.495102 32.9391 1.66017 24.1086 2.51614 19.6233C2.56437 19.3705 2.61195 19.1194 2.65924 18.8699C3.66093 13.584 4.5288 9.00425 8.57925 4.55538C9.27897 3.78683 10.2885 3.13627 11.4683 2.58892C11.3588 2.46891 11.277 2.32045 11.236 2.15144C11.1057 1.61476 11.4351 1.07403 11.9718 0.943706L14.887 0.235761C15.4237 0.105432 15.9644 0.43485 16.0948 0.971537C16.1021 1.00156 16.1079 1.0316 16.1124 1.06158C19.4189 0.287158 22.7612 0 24.2524 0Z" fill="white"/>
<path d="M3.33484 41.9918C3.41688 42.0137 3.50063 42.0331 3.5861 42.0499C6.43932 42.6105 8.22259 42.0499 9.29255 40.9986L19.9922 28.0332L25.8876 20.7061L19.3472 12.1069L3.33484 41.9918Z" fill="white"/>
<path d="M28.3684 23.9679L24.7793 28.4233H31.7571L28.3684 23.9679Z" fill="white"/>
<path d="M38.8817 28.4233H45.9149L42.2603 23.8866L38.8817 28.4233Z" fill="white"/>
<path d="M44.635 20.698L50.4086 28.0332L60.8756 40.9986C61.9223 42.0499 63.6668 42.6105 66.458 42.0499C66.5247 42.0365 66.5903 42.0214 66.6548 42.0048L50.9956 12.1572L44.635 20.698Z" fill="white"/>
<path d="M69.4288 39.4485L51.532 5.33594L42.3003 17.7319L37.1695 11.2133L46.2409 0C47.7017 0 50.9782 0.287942 54.2172 1.06475C54.2218 1.03372 54.2278 1.00262 54.2353 0.971537C54.3656 0.43485 54.9064 0.105432 55.443 0.235761L58.3583 0.943706C58.895 1.07403 59.2244 1.61476 59.0941 2.15144C59.0487 2.33854 58.9533 2.50045 58.8257 2.62647C59.9461 3.16596 60.9044 3.80433 61.5734 4.55538C65.5358 9.00424 66.3847 13.5839 67.3646 18.8697C67.4109 19.1193 67.4575 19.3705 67.5047 19.6233C68.342 24.1086 69.4818 32.9391 69.947 36.7936C70.0239 37.4308 69.8726 38.4619 69.4288 39.4485Z" fill="white"/>
<path d="M39.8994 20.9558L35.3263 27.0965L30.7233 21.0445L35.3471 15.3047L39.8994 20.9558Z" fill="white"/>
</svg>
