<svg width="60" height="60" viewBox="0 0 60 60" fill="none" xmlns="http://www.w3.org/2000/svg">
<path d="M51.1532 30C51.1532 27.8346 50.8263 25.7462 50.2224 23.7808L53.6032 20.8808L49.6994 14.1192L45.4724 15.6077C42.6378 12.5615 38.9263 10.3577 34.7301 9.39615L33.9032 5H26.0955L25.2724 9.39615C21.0763 10.3577 17.3647 12.5615 14.5301 15.6077L10.2994 14.1192L6.39551 20.8808L9.77628 23.7808C9.17243 25.7462 8.84551 27.8346 8.84551 30C8.84551 32.1654 9.17243 34.2538 9.77628 36.2192L6.39551 39.1192L10.2994 45.8808L14.5263 44.3923C17.3609 47.4385 21.0724 49.6423 25.2686 50.6038L26.0955 55H33.9032L34.7263 50.6038C38.9224 49.6423 42.634 47.4385 45.4686 44.3923L49.6955 45.8808L53.5994 39.1192L50.2186 36.2192C50.8263 34.2538 51.1532 32.1654 51.1532 30ZM29.9994 39.6154C24.6878 39.6154 20.384 35.3115 20.384 30C20.384 24.6885 24.6878 20.3846 29.9994 20.3846C35.3109 20.3846 39.6147 24.6885 39.6147 30C39.6147 35.3115 35.3109 39.6154 29.9994 39.6154Z" stroke="#A18129" stroke-width="2" stroke-linecap="square"/>
</svg>
