<svg width="45" height="45" viewBox="0 0 45 45" fill="none" xmlns="http://www.w3.org/2000/svg">
<rect x="0.5" y="0.5" width="44" height="44" rx="3.5" fill="white"/>
<path d="M18.316 27.332C19.6707 26.244 20.732 25.3533 21.5 24.66C22.268 23.956 22.9133 23.2253 23.436 22.468C23.9693 21.7 24.236 20.948 24.236 20.212C24.236 19.5187 24.0653 18.9747 23.724 18.58C23.3933 18.1747 22.8547 17.972 22.108 17.972C21.3827 17.972 20.8173 18.2013 20.412 18.66C20.0173 19.108 19.804 19.7107 19.772 20.468H18.364C18.4067 19.2733 18.7693 18.3507 19.452 17.7C20.1347 17.0493 21.0147 16.724 22.092 16.724C23.1907 16.724 24.06 17.028 24.7 17.636C25.3507 18.244 25.676 19.0813 25.676 20.148C25.676 21.0333 25.4093 21.8973 24.876 22.74C24.3533 23.572 23.756 24.308 23.084 24.948C22.412 25.5773 21.5533 26.3133 20.508 27.156H26.012V28.372H18.316V27.332Z" fill="#1E1E1E"/>
<rect x="0.5" y="0.5" width="44" height="44" rx="3.5" stroke="#1E1E1E"/>
</svg>
