<svg width="100" height="51" viewBox="0 0 100 51" fill="none" xmlns="http://www.w3.org/2000/svg">
<path d="M6.41699 42.5768V40.4935C6.41699 38.5784 6.7942 36.682 7.52708 34.9127C8.25996 33.1434 9.33416 31.5357 10.6884 30.1815C12.0425 28.8273 13.6502 27.7531 15.4195 27.0202C17.1889 26.2874 19.0852 25.9102 21.0003 25.9102C22.9154 25.9102 24.8118 26.2874 26.5811 27.0202C28.3505 27.7531 29.9581 28.8273 31.3123 30.1815C32.6665 31.5357 33.7407 33.1434 34.4736 34.9127C35.2065 36.682 35.5837 38.5784 35.5837 40.4935V42.5768" stroke="#A18129" stroke-width="3" stroke-linecap="square"/>
<path d="M21.0003 25.9098C23.2105 25.9098 25.3301 25.0319 26.8929 23.4691C28.4557 21.9063 29.3337 19.7866 29.3337 17.5765C29.3337 15.3664 28.4557 13.2467 26.8929 11.6839C25.3301 10.1211 23.2105 9.24316 21.0003 9.24316C18.7902 9.24316 16.6706 10.1211 15.1078 11.6839C13.545 13.2467 12.667 15.3664 12.667 17.5765C12.667 19.7866 13.545 21.9063 15.1078 23.4691C16.6706 25.0319 18.7902 25.9098 21.0003 25.9098V25.9098Z" stroke="#A18129" stroke-width="3" stroke-linecap="square"/>
<path d="M35.417 42.5768V40.4935C35.417 38.5784 35.7942 36.682 36.5271 34.9127C37.26 33.1434 38.3342 31.5357 39.6884 30.1815C41.0425 28.8273 42.6502 27.7531 44.4195 27.0202C46.1889 26.2874 48.0852 25.9102 50.0003 25.9102C51.9154 25.9102 53.8118 26.2874 55.5811 27.0202C57.3505 27.7531 58.9581 28.8273 60.3123 30.1815C61.6665 31.5357 62.7407 33.1434 63.4736 34.9127C64.2065 36.682 64.5837 38.5784 64.5837 40.4935V42.5768" stroke="#A18129" stroke-width="3" stroke-linecap="square"/>
<path d="M50.0003 25.9098C52.2105 25.9098 54.3301 25.0319 55.8929 23.4691C57.4557 21.9063 58.3337 19.7866 58.3337 17.5765C58.3337 15.3664 57.4557 13.2467 55.8929 11.6839C54.3301 10.1211 52.2105 9.24316 50.0003 9.24316C47.7902 9.24316 45.6706 10.1211 44.1078 11.6839C42.545 13.2467 41.667 15.3664 41.667 17.5765C41.667 19.7866 42.545 21.9063 44.1078 23.4691C45.6706 25.0319 47.7902 25.9098 50.0003 25.9098V25.9098Z" stroke="#A18129" stroke-width="3" stroke-linecap="square"/>
<path d="M65.417 42.5768V40.4935C65.417 38.5784 65.7942 36.682 66.5271 34.9127C67.26 33.1434 68.3342 31.5357 69.6884 30.1815C71.0425 28.8273 72.6502 27.7531 74.4195 27.0202C76.1889 26.2874 78.0852 25.9102 80.0003 25.9102C81.9154 25.9102 83.8118 26.2874 85.5811 27.0202C87.3505 27.7531 88.9581 28.8273 90.3123 30.1815C91.6665 31.5357 92.7407 33.1434 93.4736 34.9127C94.2065 36.682 94.5837 38.5784 94.5837 40.4935V42.5768" stroke="#A18129" stroke-width="3" stroke-linecap="square"/>
<path d="M80.0003 25.9098C82.2105 25.9098 84.3301 25.0319 85.8929 23.4691C87.4557 21.9063 88.3337 19.7866 88.3337 17.5765C88.3337 15.3664 87.4557 13.2467 85.8929 11.6839C84.3301 10.1211 82.2105 9.24316 80.0003 9.24316C77.7902 9.24316 75.6706 10.1211 74.1078 11.6839C72.545 13.2467 71.667 15.3664 71.667 17.5765C71.667 19.7866 72.545 21.9063 74.1078 23.4691C75.6706 25.0319 77.7902 25.9098 80.0003 25.9098V25.9098Z" stroke="#A18129" stroke-width="3" stroke-linecap="square"/>
</svg>
