<svg width="188" height="188" viewBox="0 0 188 188" fill="none" xmlns="http://www.w3.org/2000/svg">
<g filter="url(#filter0_d_247_1319)">
<ellipse cx="94" cy="94.0001" rx="75" ry="75.0001" fill="white"/>
<path d="M94.0011 67.6855C79.2612 67.6855 67.2695 79.6772 67.2695 94.4171C67.2695 109.157 79.2612 121.149 94.0011 121.149C108.741 121.149 120.733 109.157 120.733 94.4171C120.733 79.6772 108.741 67.6855 94.0011 67.6855ZM94.0011 118.065C80.9617 118.065 70.3534 107.457 70.3534 94.4171C70.3534 81.3777 80.9617 70.7694 94.0011 70.7694C107.041 70.7694 117.649 81.3777 117.649 94.4171C117.649 107.457 107.04 118.065 94.0011 118.065Z" fill="#1E1E1E"/>
<path d="M131.368 99.7182C132.356 98.1831 133.475 96.4431 133.475 94.4173C133.475 92.3915 132.356 90.6516 131.368 89.1164C130.707 88.0889 130.083 87.1184 129.882 86.2384C129.669 85.2998 129.812 84.1198 129.963 82.8706C130.189 81.002 130.423 79.0698 129.572 77.3089C128.707 75.517 126.955 74.4433 125.41 73.4959C124.352 72.8469 123.352 72.2337 122.77 71.5062C122.182 70.7712 121.803 69.6562 121.401 68.4758C120.819 66.7675 120.16 64.8315 118.614 63.5982C117.075 62.3715 115.044 62.1587 113.252 61.9709C112.004 61.8403 110.826 61.7169 109.969 61.3037C109.14 60.9046 108.325 60.074 107.462 59.1946C106.188 57.896 104.743 56.424 102.784 55.9792C100.898 55.5511 99.0761 56.2046 97.3144 56.837C96.1165 57.2667 94.9848 57.6728 94.0011 57.6728C93.0173 57.6728 91.8857 57.2667 90.6877 56.8368C88.9262 56.2046 87.1047 55.551 85.2182 55.979C83.2588 56.4237 81.8143 57.8957 80.5399 59.1944C79.6769 60.0738 78.8618 60.9044 78.0335 61.3035C77.1759 61.7166 75.998 61.8399 74.7507 61.9707C72.9585 62.1585 70.9273 62.3713 69.3887 63.5981C67.842 64.8313 67.1828 66.7674 66.6014 68.4755C66.1995 69.656 65.8199 70.771 65.2321 71.5061C64.6505 72.2336 63.6504 72.8466 62.5917 73.4958C61.0468 74.4432 59.2958 75.5168 58.43 77.3087C57.5792 79.0698 57.8131 81.002 58.0393 82.8706C58.1905 84.1199 58.3335 85.2998 58.1198 86.2384C57.9195 87.1184 57.2951 88.0889 56.6341 89.1164C55.6466 90.6516 54.5273 92.3915 54.5273 94.4173C54.5273 96.4431 55.6466 98.1831 56.6341 99.7181C57.2951 100.746 57.9195 101.716 58.1198 102.596C58.3335 103.535 58.1905 104.715 58.0393 105.964C57.8131 107.833 57.579 109.765 58.4298 111.526C59.2956 113.318 61.0467 114.392 62.5917 115.339C63.6504 115.988 64.6504 116.601 65.232 117.328C65.8198 118.063 66.1994 119.178 66.6012 120.359C67.1827 122.067 67.8419 124.003 69.3886 125.236C70.9273 126.463 72.9585 126.676 74.7505 126.864C75.9977 126.994 77.1757 127.118 78.0333 127.531C78.8617 127.93 79.6769 128.761 80.5399 129.64C81.8143 130.939 83.2588 132.411 85.2182 132.855C87.1049 133.284 88.9262 132.63 90.6877 131.998C91.8858 131.568 93.0173 131.162 94.0011 131.162C94.9848 131.162 96.1165 131.568 97.3144 131.998C98.6827 132.489 100.087 132.993 101.53 132.993C101.945 132.993 102.363 132.951 102.784 132.855C104.743 132.411 106.188 130.939 107.462 129.64C108.325 128.761 109.14 127.93 109.969 127.531C110.826 127.118 112.004 126.995 113.251 126.864C115.044 126.676 117.075 126.463 118.613 125.237C120.16 124.003 120.819 122.067 121.401 120.359C121.803 119.179 122.182 118.064 122.77 117.329C123.352 116.601 124.352 115.988 125.41 115.339C126.955 114.392 128.706 113.318 129.572 111.526C130.423 109.765 130.189 107.833 129.963 105.964C129.812 104.715 129.669 103.535 129.882 102.596C130.083 101.716 130.707 100.746 131.368 99.7182ZM128.775 98.0497C127.998 99.2561 127.196 100.504 126.875 101.912C126.543 103.373 126.725 104.879 126.901 106.335C127.082 107.828 127.253 109.238 126.795 110.184C126.323 111.162 125.097 111.914 123.798 112.71C122.56 113.469 121.28 114.254 120.362 115.402C119.437 116.559 118.951 117.985 118.481 119.365C117.993 120.8 117.532 122.155 116.691 122.825C115.857 123.49 114.435 123.639 112.93 123.797C111.475 123.949 109.971 124.107 108.63 124.753C107.317 125.385 106.272 126.45 105.261 127.48C104.189 128.572 103.177 129.604 102.101 129.848C101.092 130.077 99.763 129.6 98.3558 129.095C96.9622 128.595 95.5211 128.078 94.0008 128.078C92.4804 128.078 91.0393 128.595 89.6457 129.095C88.2385 129.6 86.9094 130.077 85.9003 129.848C84.8248 129.604 83.8124 128.572 82.7406 127.48C81.73 126.45 80.685 125.385 79.3713 124.753C78.0303 124.107 76.5261 123.949 75.0714 123.797C73.5662 123.639 72.1445 123.49 71.3108 122.825C70.47 122.155 70.0086 120.8 69.5203 119.365C69.0506 117.985 68.5649 116.559 67.6402 115.402C66.7216 114.254 65.4415 113.469 64.2033 112.71C62.9049 111.914 61.6784 111.162 61.2063 110.184C60.7489 109.238 60.9196 107.828 61.1003 106.335C61.2767 104.879 61.459 103.373 61.1262 101.912C60.8057 100.504 60.0032 99.2559 59.2272 98.0495C58.3964 96.7575 57.6112 95.5368 57.6112 94.4173C57.6112 93.2977 58.3964 92.0771 59.2276 90.7848C60.0037 89.5784 60.8061 88.331 61.1267 86.9229C61.4595 85.4613 61.2772 83.9557 61.1008 82.4998C60.9201 81.0069 60.7494 79.5968 61.2067 78.6502C61.679 77.6729 62.9053 76.9209 64.2038 76.1248C65.4418 75.3657 66.7221 74.5807 67.6406 73.4321C68.5653 72.2758 69.0511 70.8491 69.5207 69.4695C70.0092 68.0349 70.4706 66.6798 71.3114 66.0094C72.1453 65.3445 73.5669 65.1957 75.0722 65.0379C76.5269 64.8856 78.0309 64.728 79.372 64.0821C80.6858 63.4493 81.7306 62.3844 82.7412 61.3547C83.813 60.2625 84.8254 59.231 85.9009 58.9867C86.9097 58.7579 88.2391 59.2347 89.6463 59.7397C91.0396 60.2396 92.4807 60.7567 94.0011 60.7567C95.5214 60.7567 96.9625 60.2396 98.3561 59.7394C99.7633 59.2345 101.092 58.7576 102.102 58.9864C103.177 59.2305 104.189 60.2622 105.261 61.3544C106.272 62.3841 107.317 63.449 108.631 64.0818C109.972 64.7277 111.476 64.8853 112.93 65.0378C114.436 65.1955 115.857 65.3445 116.691 66.0092C117.532 66.6796 117.993 68.0347 118.482 69.4695C118.951 70.8491 119.437 72.2757 120.362 73.4321C121.28 74.5807 122.56 75.3657 123.799 76.1248C125.097 76.9209 126.324 77.6728 126.796 78.6502C127.253 79.5968 127.082 81.0069 126.902 82.4998C126.725 83.9557 126.543 85.4614 126.876 86.9229C127.196 88.331 127.999 89.5784 128.775 90.7848C129.606 92.0771 130.391 93.2977 130.391 94.4173C130.391 95.5368 129.606 96.7575 128.775 98.0497Z" fill="#1E1E1E"/>
<path d="M94.0005 104.846L85.1865 107.98L85.4437 98.629L79.7393 91.2151L88.7121 88.57L94.0005 80.8535L99.2889 88.57L108.262 91.2151L102.557 98.629L102.815 107.98L94.0005 104.846Z" fill="#F4C249"/>
</g>
<defs>
<filter id="filter0_d_247_1319" x="0" y="0" width="188" height="188" filterUnits="userSpaceOnUse" color-interpolation-filters="sRGB">
<feFlood flood-opacity="0" result="BackgroundImageFix"/>
<feColorMatrix in="SourceAlpha" type="matrix" values="0 0 0 0 0 0 0 0 0 0 0 0 0 0 0 0 0 0 127 0" result="hardAlpha"/>
<feOffset/>
<feGaussianBlur stdDeviation="9.5"/>
<feComposite in2="hardAlpha" operator="out"/>
<feColorMatrix type="matrix" values="0 0 0 0 0 0 0 0 0 0 0 0 0 0 0 0 0 0 0.07 0"/>
<feBlend mode="normal" in2="BackgroundImageFix" result="effect1_dropShadow_247_1319"/>
<feBlend mode="normal" in="SourceGraphic" in2="effect1_dropShadow_247_1319" result="shape"/>
</filter>
</defs>
</svg>
