<svg width="188" height="188" viewBox="0 0 188 188" fill="none" xmlns="http://www.w3.org/2000/svg">
<g filter="url(#filter0_d_247_1340)">
<ellipse cx="94" cy="94.0001" rx="75" ry="75.0001" fill="url(#paint0_linear_247_1340)"/>
<g clip-path="url(#clip0_247_1340)">
<path d="M94 61.5752C93.1586 61.5752 92.4766 62.2572 92.4766 63.0986V65.9843C92.4766 66.8257 93.1586 67.5078 94 67.5078C94.8414 67.5078 95.5234 66.8257 95.5234 65.9843V63.0986C95.5234 62.2572 94.8414 61.5752 94 61.5752Z" fill="white"/>
<path d="M94 121.165C93.1586 121.165 92.4766 121.847 92.4766 122.688V125.574C92.4766 126.416 93.1586 127.098 94 127.098C94.8414 127.098 95.5234 126.416 95.5234 125.574V122.688C95.5234 121.847 94.8414 121.165 94 121.165Z" fill="white"/>
<path d="M125.237 92.8125H122.352C121.51 92.8125 120.828 93.4945 120.828 94.3359C120.828 95.1773 121.51 95.8594 122.352 95.8594H125.237C126.079 95.8594 126.761 95.1773 126.761 94.3359C126.761 93.4945 126.079 92.8125 125.237 92.8125Z" fill="white"/>
<path d="M65.6485 92.8125H62.7627C61.9213 92.8125 61.2393 93.4945 61.2393 94.3359C61.2393 95.1773 61.9213 95.8594 62.7627 95.8594H65.6485C66.4899 95.8594 67.172 95.1773 67.172 94.3359C67.172 93.4945 66.4899 92.8125 65.6485 92.8125Z" fill="white"/>
<path d="M115.011 71.1708L112.971 73.2114C112.376 73.8063 112.376 74.771 112.971 75.366C113.268 75.6636 113.658 75.8122 114.048 75.8122C114.438 75.8122 114.828 75.6636 115.125 75.366L117.166 73.3254C117.761 72.7305 117.761 71.7658 117.166 71.1708C116.571 70.5759 115.606 70.5759 115.011 71.1708Z" fill="white"/>
<path d="M72.8745 113.307L70.8339 115.347C70.239 115.942 70.239 116.907 70.8339 117.502C71.1314 117.799 71.5212 117.948 71.9111 117.948C72.3009 117.948 72.6909 117.799 72.9883 117.502L75.029 115.461C75.6239 114.866 75.6239 113.902 75.029 113.307C74.4341 112.712 73.4694 112.712 72.8745 113.307Z" fill="white"/>
<path d="M115.125 113.307C114.53 112.712 113.566 112.712 112.971 113.307C112.376 113.901 112.376 114.866 112.971 115.461L115.011 117.502C115.309 117.799 115.699 117.948 116.088 117.948C116.478 117.948 116.868 117.799 117.166 117.502C117.761 116.907 117.761 115.942 117.166 115.347L115.125 113.307Z" fill="white"/>
<path d="M72.9885 71.1708C72.3936 70.5759 71.4289 70.5759 70.8339 71.1708C70.239 71.7657 70.239 72.7303 70.8339 73.3254L72.8745 75.366C73.172 75.6636 73.5619 75.8122 73.9517 75.8122C74.3416 75.8122 74.7316 75.6636 75.029 75.366C75.6239 74.7711 75.6239 73.8065 75.029 73.2114L72.9885 71.1708Z" fill="white"/>
<path d="M121.577 66.4229C114.211 59.0566 104.417 55 94 55C83.5827 55 73.789 59.0566 66.4229 66.4229C59.0566 73.789 55 83.5827 55 94C55 104.417 59.0566 114.211 66.4229 121.577C73.789 128.943 83.5827 133 94 133C104.417 133 114.211 128.943 121.577 121.577C128.943 114.211 133 104.417 133 94C133 83.5827 128.943 73.789 121.577 66.4229ZM94 129.953C74.1754 129.953 58.0469 113.825 58.0469 94C58.0469 74.1754 74.1754 58.0469 94 58.0469C113.825 58.0469 129.953 74.1754 129.953 94C129.953 113.825 113.825 129.953 94 129.953Z" fill="white"/>
<path d="M93.9992 116.44C106.392 116.44 116.439 106.393 116.439 94.0002C116.439 81.6071 106.392 71.5605 93.9992 71.5605C81.6061 71.5605 71.5596 81.6071 71.5596 94.0002C71.5596 106.393 81.6061 116.44 93.9992 116.44Z" fill="white"/>
<path d="M96.5814 92.8414C96.0944 92.6693 95.641 92.5067 95.221 92.3541V84.5995C96.4892 84.8061 97.4213 85.3757 97.8937 86.0489C98.3769 86.7376 99.3271 86.904 100.016 86.4208C100.705 85.9374 100.871 84.9874 100.388 84.2986C99.4209 82.921 97.6045 81.7898 95.221 81.5269V80.6084C95.221 79.767 94.5389 79.085 93.6975 79.085C92.8561 79.085 92.1741 79.767 92.1741 80.6084V81.6553C91.7341 81.7364 91.2827 81.8451 90.8211 81.9842C88.431 82.7042 86.6265 85.0331 86.4326 87.6476C86.2423 90.2123 87.6164 92.4451 90.108 93.6201C90.5397 93.8236 91.255 94.1173 92.1741 94.4705V103.537C90.7434 103.231 89.3574 102.589 88.5078 101.534C87.9801 100.879 87.0209 100.776 86.3657 101.304C85.7104 101.831 85.6072 102.791 86.1349 103.446C87.6598 105.339 89.9758 106.29 92.1741 106.64V107.393C92.1741 108.234 92.8561 108.916 93.6975 108.916C94.5389 108.916 95.221 108.234 95.221 107.393V106.762C95.2316 106.761 95.2423 106.76 95.2528 106.759C99.8467 106.358 101.828 103.502 102.151 100.963C102.591 97.4955 100.301 94.156 96.5814 92.8414ZM91.4073 90.864C89.5929 90.0085 89.4154 88.6227 89.4711 87.8728C89.5722 86.5097 90.5094 85.2601 91.6998 84.9016C91.86 84.8533 92.0181 84.81 92.1739 84.7715V91.1942C91.8272 91.0522 91.5722 90.9416 91.4073 90.864ZM99.128 100.579C98.9115 102.282 97.4577 103.438 95.221 103.7V95.5919C95.3349 95.6324 95.4499 95.6732 95.566 95.7142C98.3145 96.6855 99.339 98.9168 99.128 100.579Z" fill="url(#paint1_linear_247_1340)"/>
</g>
</g>
<defs>
<filter id="filter0_d_247_1340" x="0" y="0" width="188" height="188" filterUnits="userSpaceOnUse" color-interpolation-filters="sRGB">
<feFlood flood-opacity="0" result="BackgroundImageFix"/>
<feColorMatrix in="SourceAlpha" type="matrix" values="0 0 0 0 0 0 0 0 0 0 0 0 0 0 0 0 0 0 127 0" result="hardAlpha"/>
<feOffset/>
<feGaussianBlur stdDeviation="9.5"/>
<feComposite in2="hardAlpha" operator="out"/>
<feColorMatrix type="matrix" values="0 0 0 0 0 0 0 0 0 0 0 0 0 0 0 0 0 0 0.11 0"/>
<feBlend mode="normal" in2="BackgroundImageFix" result="effect1_dropShadow_247_1340"/>
<feBlend mode="normal" in="SourceGraphic" in2="effect1_dropShadow_247_1340" result="shape"/>
</filter>
<linearGradient id="paint0_linear_247_1340" x1="35.4064" y1="36.195" x2="126.884" y2="165.501" gradientUnits="userSpaceOnUse">
<stop stop-color="#0B0D17"/>
<stop offset="0.604167" stop-color="#A4832B"/>
<stop offset="1" stop-color="#6B9698"/>
</linearGradient>
<linearGradient id="paint1_linear_247_1340" x1="94.0012" y1="79.085" x2="94.0012" y2="108.916" gradientUnits="userSpaceOnUse">
<stop stop-color="white"/>
<stop offset="0.0001" stop-color="#705B25"/>
<stop offset="1" stop-color="#9B873E"/>
</linearGradient>
<clipPath id="clip0_247_1340">
<rect width="78" height="78" fill="white" transform="translate(55 55)"/>
</clipPath>
</defs>
</svg>
