<svg width="346" height="342" viewBox="0 0 346 342" fill="none" xmlns="http://www.w3.org/2000/svg">
<g filter="url(#filter0_d_341_19291)">
<circle cx="173.5" cy="170.5" r="134" stroke="white" shape-rendering="crispEdges"/>
</g>
<g filter="url(#filter1_d_341_19291)">
<ellipse cx="53.7112" cy="161.711" rx="42.7112" ry="42.7112" fill="white"/>
<path d="M64.4164 167.215V167.324C64.4164 167.705 64.726 168.015 65.1079 168.015C65.4898 168.015 65.7995 167.705 65.7995 167.324V167.268C67.3531 167.075 68.0308 166.067 68.1451 165.168C68.3047 163.911 67.4815 162.703 66.1432 162.23C66.0224 162.187 65.9079 162.146 65.7995 162.107V159.826C66.0883 159.911 66.2881 160.057 66.3854 160.196C66.6049 160.508 67.0362 160.584 67.3487 160.364C67.6615 160.145 67.737 159.714 67.5176 159.401C67.1864 158.929 66.5848 158.536 65.7995 158.41V158.252C65.7995 157.87 65.4898 157.561 65.1079 157.561C64.726 157.561 64.4164 157.87 64.4164 158.252V158.463C64.3071 158.487 64.1959 158.516 64.0831 158.55C63.2056 158.814 62.5432 159.667 62.4723 160.623C62.4023 161.567 62.9052 162.388 63.8172 162.818C63.9483 162.879 64.1542 162.965 64.4164 163.067V165.794C64.0472 165.686 63.7071 165.503 63.487 165.229C63.2473 164.932 62.8119 164.885 62.5147 165.124C62.2172 165.364 62.1703 165.799 62.4098 166.097C62.9223 166.733 63.6799 167.072 64.4164 167.215ZM66.773 164.994C66.7161 165.443 66.3661 165.753 65.7996 165.868V163.579C66.5507 163.894 66.8329 164.522 66.773 164.994ZM64.4073 161.567C63.9137 161.334 63.8327 160.981 63.8517 160.726C63.8783 160.366 64.1161 160.023 64.4165 159.898V161.571C64.4133 161.57 64.4102 161.568 64.4073 161.567Z" fill="#F4C249"/>
<path d="M70.6851 151.683H36.6613C36.2793 151.683 35.9697 151.993 35.9697 152.375V173.201C35.9697 173.583 36.2793 173.892 36.6613 173.892H70.6851C71.067 173.892 71.3766 173.583 71.3766 173.201V152.375C71.3766 151.993 71.067 151.683 70.6851 151.683ZM69.9936 172.509H37.3528V153.067H69.9936V172.509Z" fill="#1E1E1E"/>
<path d="M59.4425 169.968C59.8244 169.968 60.1341 169.659 60.1341 169.277V168.432C60.1341 168.05 59.8244 167.741 59.4425 167.741C59.0606 167.741 58.751 168.05 58.751 168.432V169.277C58.751 169.659 59.0606 169.968 59.4425 169.968Z" fill="#1E1E1E"/>
<path d="M59.4425 165.924C59.8244 165.924 60.1341 165.614 60.1341 165.232V164.388C60.1341 164.006 59.8244 163.696 59.4425 163.696C59.0606 163.696 58.751 164.006 58.751 164.388V165.232C58.751 165.614 59.0606 165.924 59.4425 165.924Z" fill="#1E1E1E"/>
<path d="M59.4425 161.88C59.8244 161.88 60.1341 161.57 60.1341 161.188V160.344C60.1341 159.962 59.8244 159.652 59.4425 159.652C59.0606 159.652 58.751 159.962 58.751 160.344V161.188C58.751 161.57 59.0606 161.88 59.4425 161.88Z" fill="#1E1E1E"/>
<path d="M59.4425 157.836C59.8244 157.836 60.1341 157.526 60.1341 157.144V156.299C60.1341 155.918 59.8244 155.608 59.4425 155.608C59.0606 155.608 58.751 155.918 58.751 156.299V157.144C58.751 157.526 59.0606 157.836 59.4425 157.836Z" fill="#1E1E1E"/>
<path d="M56.2619 159.255C56.3154 158.65 56.2756 158.134 55.8956 157.735C54.5191 156.294 51.2664 157.958 49.658 159.231C49.4116 159.057 49.1247 158.901 48.814 158.835C48.5635 158.757 48.2974 158.715 48.0214 158.715C47.7544 158.715 47.4967 158.754 47.2536 158.827C46.9332 158.885 46.6377 159.034 46.3847 159.212C44.7762 157.939 41.5236 156.325 40.1472 157.766C39.7672 158.165 39.7273 158.65 39.7809 159.255L39.667 163.491C39.7686 166.65 43.3986 165.629 45.7066 164.318V168.398L48.0214 167.103L50.3361 168.398V164.318C52.6442 165.629 56.2742 166.65 56.3758 163.491L56.2619 159.255Z" fill="#F4C249"/>
</g>
<g filter="url(#filter2_d_341_19291)">
<ellipse cx="173" cy="53.7112" rx="42.7112" ry="42.7112" fill="white"/>
<path d="M173 38.7254C164.606 38.7254 157.777 45.5545 157.777 53.9486C157.777 62.3427 164.606 69.1717 173 69.1717C181.395 69.1717 188.224 62.3427 188.224 53.9486C188.224 45.5545 181.395 38.7254 173 38.7254ZM173 67.4155C165.575 67.4155 159.534 61.3743 159.534 53.9486C159.534 46.5228 165.575 40.4816 173 40.4816C180.426 40.4816 186.467 46.5228 186.467 53.9486C186.467 61.3743 180.426 67.4155 173 67.4155Z" fill="#1E1E1E"/>
<path d="M194.28 56.9673C194.842 56.0931 195.48 55.1022 195.48 53.9486C195.48 52.7949 194.842 51.804 194.28 50.9298C193.903 50.3446 193.548 49.7919 193.434 49.2908C193.312 48.7563 193.394 48.0843 193.48 47.3729C193.609 46.3087 193.742 45.2084 193.257 44.2056C192.764 43.1851 191.767 42.5737 190.887 42.0342C190.284 41.6646 189.715 41.3154 189.384 40.9011C189.049 40.4825 188.833 39.8475 188.604 39.1753C188.273 38.2025 187.897 37.0999 187.016 36.3976C186.14 35.699 184.984 35.5778 183.963 35.4709C183.253 35.3965 182.582 35.3262 182.093 35.0909C181.622 34.8636 181.157 34.3906 180.666 33.8898C179.94 33.1503 179.118 32.312 178.002 32.0587C176.928 31.8149 175.89 32.1871 174.887 32.5472C174.205 32.7919 173.56 33.0232 173 33.0232C172.44 33.0232 171.795 32.7919 171.113 32.5471C170.11 32.1871 169.073 31.8149 167.998 32.0586C166.883 32.3119 166.06 33.1501 165.334 33.8897C164.843 34.3905 164.379 34.8636 163.907 35.0908C163.418 35.3261 162.748 35.3963 162.037 35.4708C161.017 35.5777 159.86 35.6989 158.984 36.3975C158.103 37.0998 157.728 38.2024 157.396 39.1752C157.168 39.8474 156.951 40.4824 156.617 40.901C156.285 41.3153 155.716 41.6644 155.113 42.0341C154.233 42.5736 153.236 43.185 152.743 44.2055C152.258 45.2084 152.392 46.3087 152.52 47.3729C152.607 48.0844 152.688 48.7563 152.566 49.2908C152.452 49.7919 152.097 50.3446 151.72 50.9298C151.158 51.804 150.521 52.7949 150.521 53.9486C150.521 55.1022 151.158 56.0931 151.72 56.9672C152.097 57.5525 152.452 58.1052 152.566 58.6063C152.688 59.1408 152.607 59.8127 152.52 60.5242C152.392 61.5884 152.258 62.6887 152.743 63.6915C153.236 64.712 154.233 65.3235 155.113 65.8629C155.716 66.2326 156.285 66.5817 156.617 66.996C156.951 67.4146 157.168 68.0496 157.396 68.7218C157.727 69.6946 158.103 70.7972 158.984 71.4995C159.86 72.1981 161.017 72.3193 162.037 72.4262C162.747 72.5006 163.418 72.5709 163.907 72.8062C164.378 73.0335 164.843 73.5065 165.334 74.0073C166.06 74.7468 166.883 75.5851 167.998 75.8384C169.073 76.0823 170.11 75.7101 171.113 75.3499C171.796 75.1051 172.44 74.8738 173 74.8738C173.56 74.8738 174.205 75.1051 174.887 75.3499C175.666 75.6296 176.466 75.9166 177.288 75.9166C177.524 75.9166 177.762 75.8928 178.002 75.8384C179.118 75.5852 179.94 74.7469 180.666 74.0074C181.157 73.5065 181.622 73.0335 182.093 72.8063C182.582 72.571 183.253 72.5007 183.963 72.4263C184.983 72.3194 186.14 72.1982 187.016 71.4996C187.897 70.7973 188.273 69.6947 188.604 68.7219C188.833 68.0497 189.049 67.4147 189.384 66.9961C189.715 66.5818 190.284 66.2327 190.887 65.863C191.767 65.3235 192.764 64.7121 193.257 63.6916C193.742 62.6887 193.609 61.5884 193.48 60.5242C193.394 59.8127 193.312 59.1408 193.434 58.6063C193.548 58.1052 193.903 57.5525 194.28 56.9673ZM192.803 56.0171C192.361 56.7041 191.904 57.4145 191.721 58.2164C191.532 59.0487 191.636 59.9062 191.736 60.7353C191.839 61.5855 191.936 62.3885 191.676 62.9276C191.407 63.4841 190.709 63.9124 189.969 64.3657C189.264 64.798 188.535 65.2451 188.012 65.8992C187.485 66.5578 187.209 67.3701 186.941 68.1558C186.663 68.9728 186.4 69.7445 185.921 70.1263C185.447 70.5049 184.637 70.5897 183.78 70.6795C182.951 70.7663 182.095 70.856 181.331 71.2239C180.583 71.5843 179.988 72.1907 179.412 72.7771C178.802 73.3991 178.225 73.9866 177.613 74.1256C177.038 74.2559 176.281 73.9845 175.48 73.6969C174.686 73.412 173.866 73.1175 173 73.1175C172.134 73.1175 171.313 73.412 170.52 73.6969C169.718 73.9845 168.962 74.256 168.387 74.1256C167.774 73.9866 167.198 73.3991 166.587 72.7771C166.012 72.1907 165.417 71.5843 164.669 71.2239C163.905 70.856 163.048 70.7664 162.22 70.6795C161.363 70.5898 160.553 70.5049 160.078 70.1263C159.6 69.7445 159.337 68.9728 159.059 68.1558C158.791 67.3702 158.515 66.5578 157.988 65.8992C157.465 65.2451 156.736 64.7981 156.031 64.3657C155.291 63.9124 154.593 63.4842 154.324 62.9276C154.064 62.3885 154.161 61.5855 154.264 60.7353C154.364 59.9062 154.468 59.0488 154.278 58.2164C154.096 57.4145 153.639 56.7041 153.197 56.017C152.724 55.2813 152.277 54.5861 152.277 53.9486C152.277 53.311 152.724 52.6158 153.197 51.8799C153.639 51.1929 154.096 50.4825 154.279 49.6806C154.468 48.8482 154.364 47.9908 154.264 47.1617C154.161 46.3116 154.064 45.5085 154.324 44.9694C154.593 44.4129 155.292 43.9847 156.031 43.5313C156.736 43.099 157.465 42.6519 157.988 41.9978C158.515 41.3393 158.792 40.5268 159.059 39.7412C159.337 38.9242 159.6 38.1525 160.079 37.7707C160.554 37.3921 161.363 37.3073 162.22 37.2175C163.049 37.1307 163.905 37.041 164.669 36.6732C165.417 36.3128 166.012 35.7064 166.588 35.12C167.198 34.498 167.775 33.9105 168.387 33.7715C168.962 33.6411 169.719 33.9127 170.52 34.2002C171.314 34.4849 172.134 34.7794 173 34.7794C173.866 34.7794 174.687 34.4849 175.48 34.2001C176.282 33.9126 177.038 33.641 177.613 33.7713C178.226 33.9103 178.802 34.4978 179.413 35.1198C179.988 35.7062 180.583 36.3126 181.331 36.673C182.095 37.0408 182.952 37.1306 183.78 37.2174C184.637 37.3072 185.447 37.3921 185.922 37.7706C186.401 38.1524 186.663 38.9241 186.941 39.7412C187.209 40.5268 187.485 41.3393 188.012 41.9978C188.535 42.6519 189.264 43.099 189.969 43.5313C190.709 43.9847 191.407 44.4128 191.676 44.9694C191.937 45.5085 191.839 46.3116 191.736 47.1617C191.636 47.9908 191.532 48.8483 191.722 49.6806C191.904 50.4825 192.361 51.1929 192.803 51.8799C193.276 52.6158 193.723 53.311 193.723 53.9486C193.723 54.5861 193.276 55.2813 192.803 56.0171Z" fill="#1E1E1E"/>
<path d="M172.998 59.8876L167.979 61.6724L168.126 56.3471L164.877 52.125L169.987 50.6187L172.998 46.2243L176.01 50.6187L181.12 52.125L177.871 56.3471L178.018 61.6724L172.998 59.8876Z" fill="#F4C249"/>
</g>
<g filter="url(#filter3_d_341_19291)">
<ellipse cx="173.253" cy="287.711" rx="42.7112" ry="42.7112" fill="url(#paint0_linear_341_19291)"/>
<g clip-path="url(#clip0_341_19291)">
<path d="M173.256 269.246C172.777 269.246 172.389 269.635 172.389 270.114V271.757C172.389 272.236 172.777 272.625 173.256 272.625C173.735 272.625 174.124 272.236 174.124 271.757V270.114C174.124 269.635 173.735 269.246 173.256 269.246Z" fill="white"/>
<path d="M173.256 303.181C172.777 303.181 172.389 303.569 172.389 304.048V305.692C172.389 306.171 172.777 306.559 173.256 306.559C173.735 306.559 174.124 306.171 174.124 305.692V304.048C174.124 303.569 173.735 303.181 173.256 303.181Z" fill="white"/>
<path d="M191.045 287.035H189.402C188.923 287.035 188.534 287.423 188.534 287.902C188.534 288.382 188.923 288.77 189.402 288.77H191.045C191.524 288.77 191.913 288.382 191.913 287.902C191.913 287.423 191.524 287.035 191.045 287.035Z" fill="white"/>
<path d="M157.11 287.035H155.466C154.987 287.035 154.599 287.423 154.599 287.902C154.599 288.382 154.987 288.77 155.466 288.77H157.11C157.589 288.77 157.977 288.382 157.977 287.902C157.977 287.423 157.589 287.035 157.11 287.035Z" fill="white"/>
<path d="M185.221 274.71L184.059 275.872C183.72 276.211 183.72 276.761 184.059 277.099C184.228 277.269 184.45 277.354 184.672 277.354C184.894 277.354 185.116 277.269 185.286 277.099L186.448 275.937C186.787 275.599 186.787 275.049 186.448 274.71C186.109 274.372 185.56 274.372 185.221 274.71Z" fill="white"/>
<path d="M161.227 298.706L160.065 299.868C159.726 300.207 159.726 300.756 160.065 301.095C160.234 301.264 160.456 301.349 160.678 301.349C160.9 301.349 161.122 301.264 161.292 301.095L162.454 299.933C162.792 299.594 162.792 299.045 162.454 298.706C162.115 298.367 161.566 298.367 161.227 298.706Z" fill="white"/>
<path d="M185.286 298.706C184.947 298.367 184.398 298.367 184.059 298.706C183.72 299.045 183.72 299.594 184.059 299.933L185.221 301.095C185.39 301.264 185.612 301.349 185.834 301.349C186.056 301.349 186.278 301.264 186.448 301.095C186.787 300.756 186.787 300.207 186.448 299.868L185.286 298.706Z" fill="white"/>
<path d="M161.292 274.71C160.953 274.372 160.404 274.372 160.065 274.71C159.726 275.049 159.726 275.598 160.065 275.937L161.227 277.099C161.396 277.269 161.618 277.354 161.84 277.354C162.062 277.354 162.284 277.269 162.454 277.099C162.792 276.761 162.792 276.211 162.454 275.872L161.292 274.71Z" fill="white"/>
<path d="M188.961 272.006C184.766 267.811 179.189 265.501 173.257 265.501C167.324 265.501 161.747 267.811 157.552 272.006C153.357 276.201 151.047 281.779 151.047 287.711C151.047 293.644 153.357 299.221 157.552 303.416C161.747 307.611 167.324 309.921 173.257 309.921C179.189 309.921 184.766 307.611 188.961 303.416C193.156 299.221 195.466 293.644 195.466 287.711C195.466 281.779 193.156 276.201 188.961 272.006ZM173.257 308.186C161.967 308.186 152.782 299.001 152.782 287.711C152.782 276.421 161.967 267.236 173.257 267.236C184.546 267.236 193.731 276.421 193.731 287.711C193.731 299.001 184.546 308.186 173.257 308.186Z" fill="white"/>
<path d="M173.254 300.49C180.311 300.49 186.033 294.769 186.033 287.711C186.033 280.654 180.311 274.932 173.254 274.932C166.196 274.932 160.475 280.654 160.475 287.711C160.475 294.769 166.196 300.49 173.254 300.49Z" fill="white"/>
<path d="M174.723 287.052C174.446 286.954 174.188 286.861 173.948 286.774V282.358C174.671 282.476 175.201 282.8 175.47 283.183C175.746 283.576 176.287 283.67 176.679 283.395C177.071 283.12 177.166 282.579 176.891 282.187C176.34 281.402 175.306 280.758 173.948 280.608V280.085C173.948 279.606 173.56 279.217 173.081 279.217C172.602 279.217 172.213 279.606 172.213 280.085V280.681C171.963 280.727 171.706 280.789 171.443 280.869C170.082 281.279 169.054 282.605 168.943 284.094C168.835 285.554 169.618 286.826 171.037 287.495C171.282 287.611 171.69 287.778 172.213 287.979V293.142C171.398 292.968 170.609 292.603 170.125 292.002C169.825 291.629 169.279 291.57 168.905 291.871C168.532 292.171 168.473 292.717 168.774 293.091C169.642 294.169 170.961 294.71 172.213 294.909V295.338C172.213 295.817 172.602 296.206 173.081 296.206C173.56 296.206 173.948 295.817 173.948 295.338V294.979C173.954 294.978 173.96 294.978 173.966 294.977C176.583 294.749 177.711 293.122 177.895 291.676C178.145 289.702 176.841 287.8 174.723 287.052ZM171.777 285.925C170.743 285.438 170.642 284.649 170.674 284.222C170.731 283.446 171.265 282.734 171.943 282.53C172.034 282.502 172.124 282.478 172.213 282.456V286.113C172.016 286.033 171.87 285.97 171.777 285.925ZM176.173 291.458C176.05 292.428 175.222 293.086 173.948 293.235V288.618C174.013 288.641 174.079 288.664 174.145 288.688C175.71 289.241 176.293 290.511 176.173 291.458Z" fill="url(#paint1_linear_341_19291)"/>
</g>
</g>
<g filter="url(#filter4_d_341_19291)">
<ellipse cx="291.711" cy="161.711" rx="42.7112" ry="42.7112" fill="white"/>
<g clip-path="url(#clip1_341_19291)">
<path d="M301.168 151.824L303.789 149.206C302.934 148.351 302.934 146.965 303.789 146.11L299.572 141.895C298.716 142.75 297.329 142.75 296.473 141.895L286.536 151.824H301.168V151.824Z" fill="#F4C249"/>
<path d="M309.561 169.51V176.492C309.561 177.245 308.948 177.857 308.194 177.857H278.887V152.703H308.194C308.948 152.703 309.561 153.315 309.561 154.067V161.049H311.317V154.067C311.317 152.551 310.229 151.284 308.793 151.004L310.253 149.545C310.757 149.041 311.035 148.371 311.035 147.658C311.035 146.945 310.757 146.274 310.253 145.77L299.908 135.434C298.867 134.394 297.174 134.394 296.133 135.434L280.608 150.946H274.821C273.099 150.946 271.698 152.346 271.698 154.067V176.492C271.698 178.213 273.099 179.613 274.821 179.613H308.194C309.916 179.613 311.317 178.213 311.317 176.492V169.51H309.561V169.51ZM297.374 136.677C297.73 136.32 298.31 136.32 298.667 136.677L309.011 147.013C309.184 147.185 309.279 147.414 309.279 147.658C309.279 147.901 309.184 148.13 309.011 148.303L306.366 150.946H283.093L297.374 136.677ZM277.13 177.857H274.821C274.068 177.857 273.455 177.245 273.455 176.492V154.067C273.455 153.315 274.068 152.703 274.821 152.703H277.13V177.857Z" fill="#1E1E1E"/>
<path d="M313.074 170.388H302.905C300.083 170.388 297.796 168.101 297.796 165.28C297.796 162.458 300.083 160.171 302.905 160.171H313.074V170.388Z" fill="#F4C249"/>
<path d="M303.49 168.198C301.88 168.198 300.57 166.889 300.57 165.28C300.57 163.671 301.88 162.362 303.49 162.362C305.099 162.362 306.409 163.671 306.409 165.28C306.409 166.889 305.099 168.198 303.49 168.198ZM303.49 164.119C302.848 164.119 302.327 164.64 302.327 165.28C302.327 165.921 302.848 166.442 303.49 166.442C304.131 166.442 304.653 165.92 304.653 165.28C304.653 164.64 304.131 164.119 303.49 164.119Z" fill="#1E1E1E"/>
</g>
</g>
<defs>
<filter id="filter0_d_341_19291" x="24" y="21" width="299" height="299" filterUnits="userSpaceOnUse" color-interpolation-filters="sRGB">
<feFlood flood-opacity="0" result="BackgroundImageFix"/>
<feColorMatrix in="SourceAlpha" type="matrix" values="0 0 0 0 0 0 0 0 0 0 0 0 0 0 0 0 0 0 127 0" result="hardAlpha"/>
<feOffset/>
<feGaussianBlur stdDeviation="7.5"/>
<feComposite in2="hardAlpha" operator="out"/>
<feColorMatrix type="matrix" values="0 0 0 0 0 0 0 0 0 0 0 0 0 0 0 0 0 0 0.25 0"/>
<feBlend mode="normal" in2="BackgroundImageFix" result="effect1_dropShadow_341_19291"/>
<feBlend mode="normal" in="SourceGraphic" in2="effect1_dropShadow_341_19291" result="shape"/>
</filter>
<filter id="filter1_d_341_19291" x="0.179836" y="108.18" width="107.062" height="107.063" filterUnits="userSpaceOnUse" color-interpolation-filters="sRGB">
<feFlood flood-opacity="0" result="BackgroundImageFix"/>
<feColorMatrix in="SourceAlpha" type="matrix" values="0 0 0 0 0 0 0 0 0 0 0 0 0 0 0 0 0 0 127 0" result="hardAlpha"/>
<feOffset/>
<feGaussianBlur stdDeviation="5.41008"/>
<feComposite in2="hardAlpha" operator="out"/>
<feColorMatrix type="matrix" values="0 0 0 0 0 0 0 0 0 0 0 0 0 0 0 0 0 0 0.07 0"/>
<feBlend mode="normal" in2="BackgroundImageFix" result="effect1_dropShadow_341_19291"/>
<feBlend mode="normal" in="SourceGraphic" in2="effect1_dropShadow_341_19291" result="shape"/>
</filter>
<filter id="filter2_d_341_19291" x="119.469" y="0.179836" width="107.062" height="107.063" filterUnits="userSpaceOnUse" color-interpolation-filters="sRGB">
<feFlood flood-opacity="0" result="BackgroundImageFix"/>
<feColorMatrix in="SourceAlpha" type="matrix" values="0 0 0 0 0 0 0 0 0 0 0 0 0 0 0 0 0 0 127 0" result="hardAlpha"/>
<feOffset/>
<feGaussianBlur stdDeviation="5.41008"/>
<feComposite in2="hardAlpha" operator="out"/>
<feColorMatrix type="matrix" values="0 0 0 0 0 0 0 0 0 0 0 0 0 0 0 0 0 0 0.07 0"/>
<feBlend mode="normal" in2="BackgroundImageFix" result="effect1_dropShadow_341_19291"/>
<feBlend mode="normal" in="SourceGraphic" in2="effect1_dropShadow_341_19291" result="shape"/>
</filter>
<filter id="filter3_d_341_19291" x="119.722" y="234.18" width="107.062" height="107.063" filterUnits="userSpaceOnUse" color-interpolation-filters="sRGB">
<feFlood flood-opacity="0" result="BackgroundImageFix"/>
<feColorMatrix in="SourceAlpha" type="matrix" values="0 0 0 0 0 0 0 0 0 0 0 0 0 0 0 0 0 0 127 0" result="hardAlpha"/>
<feOffset/>
<feGaussianBlur stdDeviation="5.41008"/>
<feComposite in2="hardAlpha" operator="out"/>
<feColorMatrix type="matrix" values="0 0 0 0 0 0 0 0 0 0 0 0 0 0 0 0 0 0 0.11 0"/>
<feBlend mode="normal" in2="BackgroundImageFix" result="effect1_dropShadow_341_19291"/>
<feBlend mode="normal" in="SourceGraphic" in2="effect1_dropShadow_341_19291" result="shape"/>
</filter>
<filter id="filter4_d_341_19291" x="238.18" y="108.18" width="107.062" height="107.063" filterUnits="userSpaceOnUse" color-interpolation-filters="sRGB">
<feFlood flood-opacity="0" result="BackgroundImageFix"/>
<feColorMatrix in="SourceAlpha" type="matrix" values="0 0 0 0 0 0 0 0 0 0 0 0 0 0 0 0 0 0 127 0" result="hardAlpha"/>
<feOffset/>
<feGaussianBlur stdDeviation="5.41008"/>
<feComposite in2="hardAlpha" operator="out"/>
<feColorMatrix type="matrix" values="0 0 0 0 0 0 0 0 0 0 0 0 0 0 0 0 0 0 0.07 0"/>
<feBlend mode="normal" in2="BackgroundImageFix" result="effect1_dropShadow_341_19291"/>
<feBlend mode="normal" in="SourceGraphic" in2="effect1_dropShadow_341_19291" result="shape"/>
</filter>
<linearGradient id="paint0_linear_341_19291" x1="139.885" y1="254.792" x2="191.98" y2="328.43" gradientUnits="userSpaceOnUse">
<stop stop-color="#0B0D17"/>
<stop offset="0.604167" stop-color="#A4832B"/>
<stop offset="1" stop-color="#6B9698"/>
</linearGradient>
<linearGradient id="paint1_linear_341_19291" x1="173.254" y1="279.217" x2="173.254" y2="296.206" gradientUnits="userSpaceOnUse">
<stop stop-color="white"/>
<stop offset="0.0001" stop-color="#705B25"/>
<stop offset="1" stop-color="#9B873E"/>
</linearGradient>
<clipPath id="clip0_341_19291">
<rect width="44.4196" height="44.4196" fill="white" transform="translate(151.043 265.501)"/>
</clipPath>
<clipPath id="clip1_341_19291">
<rect width="44.9592" height="44.9592" fill="white" transform="translate(269.906 134.654)"/>
</clipPath>
</defs>
</svg>
