<svg width="144" height="144" viewBox="0 0 144 144" fill="none" xmlns="http://www.w3.org/2000/svg">
<rect width="144" height="144" rx="72" fill="#5B56BD"/>
<path fill-rule="evenodd" clip-rule="evenodd" d="M39.4463 49.5794L39.445 49.5802L39.4339 49.5865L39.4168 49.5959L39.4147 49.5972L39.4109 49.5994L39.3847 49.6148L39.3835 49.6157C39.2553 49.6933 39.1364 49.7902 39.0309 49.9063L39.0292 49.9082C39.0218 49.9162 39.0146 49.9245 39.0073 49.9327L39.0045 49.9361L39.0016 49.9394C38.9961 49.9456 38.9907 49.9522 38.9853 49.9586L38.9833 49.9609L38.9798 49.9653L38.9753 49.9708C38.9697 49.9776 38.9645 49.9841 38.9591 49.9908L38.9556 49.9952L38.9501 50.0024L38.9467 50.0068L38.9385 50.0177L38.9323 50.0256L38.9264 50.0337L38.9222 50.0394L38.916 50.0481L38.9097 50.0565L38.9039 50.0649L38.8987 50.0725L38.8934 50.08L38.8879 50.0881L38.8827 50.096L38.876 50.1059L38.8716 50.1128L38.8667 50.1202L38.8627 50.1266L38.8543 50.1398L38.8508 50.1459L38.8464 50.153L38.8267 50.1861L38.8241 50.1909L38.8079 50.2198L38.8049 50.2255L38.8044 50.2264L38.8026 50.2297L38.7898 50.2539L38.7866 50.2606L38.7861 50.2615L38.7846 50.2645L38.7727 50.2885L38.769 50.2964L38.7562 50.3236L38.752 50.3334C38.6641 50.5311 38.6152 50.75 38.6152 50.9805V94.1515C38.6152 94.4381 38.6908 94.7072 38.8232 94.9396C38.9097 95.0925 39.0235 95.2336 39.1633 95.3552L39.1668 95.3584L39.1688 95.3601C39.1742 95.3646 39.1795 95.3693 39.1851 95.3738L39.1906 95.3784L39.196 95.3831L39.2 95.3863C39.2066 95.3917 39.2133 95.397 39.22 95.4024L39.2259 95.4071L39.2313 95.4113C39.2378 95.4164 39.2444 95.4214 39.2509 95.4263L39.2563 95.4305L39.2627 95.435C39.2693 95.44 39.276 95.4449 39.2827 95.4496L39.2874 95.4532L39.2941 95.4578L39.2987 95.4609L39.3145 95.4718L39.319 95.475L39.3259 95.4795L39.3321 95.4837L39.3454 95.4923L39.3511 95.4962L39.3578 95.5004L39.3659 95.5054L39.3775 95.5126C39.6202 95.6616 39.9056 95.7475 40.2112 95.7475H106.718C107.024 95.7475 107.309 95.6616 107.552 95.5126L107.563 95.5054L107.572 95.5004L107.578 95.4962L107.584 95.4923L107.597 95.4837L107.603 95.4795L107.61 95.475L107.615 95.4718L107.631 95.4609L107.635 95.4578L107.642 95.4532L107.647 95.4496C107.653 95.4449 107.66 95.44 107.667 95.435L107.673 95.4305L107.678 95.4263C107.685 95.4214 107.691 95.4164 107.698 95.4113L107.703 95.4071L107.709 95.4024C107.716 95.3972 107.723 95.3917 107.729 95.3863L107.733 95.3831L107.739 95.3784L107.744 95.3738C107.75 95.3693 107.755 95.3646 107.761 95.3601L107.763 95.3584L107.766 95.3552C107.906 95.2336 108.019 95.0926 108.106 94.9396C108.238 94.7072 108.314 94.4381 108.314 94.1515V50.9805C108.314 50.75 108.265 50.5311 108.177 50.3334L108.173 50.3236L108.162 50.2989L108.157 50.2885L108.145 50.2645L108.143 50.2615L108.143 50.2606L108.14 50.2539L108.127 50.2297L108.125 50.2264L108.124 50.2255L108.121 50.2198L108.107 50.1943L108.103 50.1861L108.083 50.153L108.079 50.1459L108.075 50.1398L108.067 50.1266L108.063 50.1202L108.058 50.1128L108.053 50.1059L108.047 50.096L108.041 50.0881L108.036 50.08L108.031 50.0725L108.025 50.0649L108.02 50.0565L108.013 50.0481L108.007 50.0394L108.003 50.0337L107.997 50.0256L107.991 50.0177L107.983 50.0068L107.979 50.0024L107.974 49.9952L107.97 49.9908C107.965 49.9843 107.96 49.9776 107.954 49.9708L107.95 49.9653L107.946 49.9609L107.944 49.9586C107.939 49.9522 107.933 49.9456 107.928 49.9394L107.925 49.9361L107.922 49.9327C107.915 49.9245 107.908 49.9162 107.9 49.9082L107.898 49.9063C107.793 49.7902 107.674 49.6933 107.546 49.6157L107.518 49.5994L107.515 49.5972L107.513 49.5959L107.495 49.5865L107.484 49.5802L107.483 49.5794C107.256 49.4551 106.995 49.3845 106.718 49.3845H40.2112C39.934 49.3845 39.6733 49.4551 39.4463 49.5794ZM105.122 54.3886L82.4488 73.2874C77.2447 77.6252 69.6847 77.6252 64.4805 73.2874L41.8072 54.3886V89.7682L57.1104 71.5399C57.6769 70.8652 58.6843 70.7773 59.359 71.3436C60.0336 71.91 60.1214 72.9176 59.5551 73.5921L43.6351 92.5555H103.294L87.3742 73.5921C86.8079 72.9176 86.8958 71.91 87.5703 71.3436C88.245 70.7773 89.2525 70.8652 89.819 71.5399L105.122 89.7682V54.3886ZM44.6187 52.5765L66.5242 70.8356C70.5445 74.1865 76.3848 74.1865 80.4051 70.8356L102.311 52.5765H44.6187Z" fill="white"/>
</svg>
