<svg width="1512" height="894" viewBox="0 0 1512 894" fill="none" xmlns="http://www.w3.org/2000/svg">
<rect width="1512" height="894" transform="matrix(-1 0 0 1 1512 0)" fill="white"/>
<g clip-path="url(#clip0_304_6356)">
<g filter="url(#filter0_ii_304_6356)">
<path d="M449.488 893.363C449.488 899.112 444.827 903.773 439.077 903.773H429.459C423.709 903.773 419.048 899.112 419.048 893.363V252.073C419.048 247.902 425.862 244.521 434.268 244.521C442.674 244.521 449.488 247.902 449.488 252.073L449.488 893.363Z" fill="#A18129"/>
</g>
<path d="M418.126 434.029H131.309V534.943H418.126V434.029Z" fill="#1E1E1E" stroke="#1E1E1E" stroke-width="2.08216" stroke-miterlimit="10" stroke-linecap="round" stroke-linejoin="round"/>
<path d="M737.166 325.859H450.349V426.773H737.166V325.859Z" fill="#1E1E1E" stroke="#1E1E1E" stroke-width="2.08216" stroke-miterlimit="10" stroke-linecap="round" stroke-linejoin="round"/>
<path d="M450.349 603.953L610.506 624.284V482.702L450.349 503.036V603.953Z" fill="#1E1E1E" stroke="#1E1E1E" stroke-width="2.08216" stroke-miterlimit="10" stroke-linecap="round" stroke-linejoin="round"/>
<path d="M576.437 553.855L546.807 523.504V536.739L484.924 539V567.83L546.807 570.685V583.921L576.437 553.855Z" fill="white" stroke="#1E1E1E" stroke-width="2.08216" stroke-miterlimit="10" stroke-linecap="round" stroke-linejoin="round"/>
<path d="M678.613 376.459L631.7 349.362V361.234H508.024V391.687H631.7V403.559L678.613 376.459Z" fill="white" stroke="#1E1E1E" stroke-width="2.08216" stroke-miterlimit="10" stroke-linecap="round" stroke-linejoin="round"/>
<path d="M189.06 484.854L235.973 457.756V469.629H359.648V500.081H235.973V511.954L189.06 484.854Z" fill="white" stroke="#1E1E1E" stroke-width="2.08216" stroke-miterlimit="10" stroke-linecap="round" stroke-linejoin="round"/>
<path d="M593.319 816.607C627.667 816.607 655.512 788.783 655.512 754.461C655.512 720.139 627.667 692.315 593.319 692.315C558.97 692.315 531.125 720.139 531.125 754.461C531.125 788.783 558.97 816.607 593.319 816.607Z" stroke="#1E1E1E" stroke-width="1.59926" stroke-miterlimit="10" stroke-linecap="round" stroke-linejoin="round"/>
<path d="M634.218 795.494C630.069 799.623 625.297 803.128 620.056 805.856" stroke="#1E1E1E" stroke-width="1.59926" stroke-miterlimit="10" stroke-linecap="round" stroke-linejoin="round"/>
<path d="M611.767 809.379C605.972 811.321 599.769 812.373 593.319 812.373C561.31 812.373 535.362 786.445 535.362 754.461C535.362 722.476 561.31 696.548 593.319 696.548C625.328 696.548 651.276 722.476 651.276 754.461C651.276 765.278 648.308 775.403 643.141 784.067" stroke="#1E1E1E" stroke-width="1.59926" stroke-miterlimit="10" stroke-linecap="round" stroke-linejoin="round"/>
<path d="M593.318 759.047C595.853 759.047 597.908 756.994 597.908 754.461C597.908 751.928 595.853 749.875 593.318 749.875C590.783 749.875 588.729 751.928 588.729 754.461C588.729 756.994 590.783 759.047 593.318 759.047Z" fill="#1E1E1E" stroke="#1E1E1E" stroke-width="1.59926" stroke-miterlimit="10" stroke-linecap="round" stroke-linejoin="round"/>
<path d="M599.92 780.212L593.318 754.461L631.837 728.097" stroke="#1E1E1E" stroke-width="1.59926" stroke-miterlimit="10" stroke-linecap="round" stroke-linejoin="round"/>
<path d="M252.142 233.859C217.793 233.859 189.949 261.682 189.949 296.005C189.949 330.327 217.793 358.15 252.142 358.15C286.491 358.15 314.336 330.327 314.336 296.005C314.336 261.682 286.491 233.859 252.142 233.859ZM252.142 335.321C230.413 335.321 212.796 317.718 212.796 296.005C212.796 274.289 230.413 256.688 252.142 256.688C273.872 256.688 291.489 274.292 291.489 296.005C291.491 317.72 273.874 335.321 252.142 335.321Z" stroke="#1E1E1E" stroke-width="1.59926" stroke-miterlimit="10" stroke-linecap="round" stroke-linejoin="round"/>
<path d="M253.412 233.892V256.752C274.55 257.427 291.488 274.719 291.488 296.005C291.488 306.769 287.15 316.515 280.139 323.615L298.082 337.892C308.176 326.845 314.335 312.145 314.335 296.005C314.335 262.109 287.172 234.57 253.412 233.892Z" stroke="#1E1E1E" stroke-width="1.59926" stroke-miterlimit="10" stroke-linecap="round" stroke-linejoin="round"/>
<path d="M230.375 290.067H274.802" stroke="#1E1E1E" stroke-width="1.59926" stroke-miterlimit="10" stroke-linecap="round" stroke-linejoin="round"/>
<path d="M230.375 301.48H274.802" stroke="#1E1E1E" stroke-width="1.59926" stroke-miterlimit="10" stroke-linecap="round" stroke-linejoin="round"/>
<path d="M624.323 191.886H713.264" stroke="#1E1E1E" stroke-width="1.59926" stroke-miterlimit="10" stroke-linecap="round" stroke-linejoin="round"/>
<path d="M588.876 191.886H598.035" stroke="#1E1E1E" stroke-width="1.59926" stroke-miterlimit="10" stroke-linecap="round" stroke-linejoin="round"/>
<path d="M653.941 209.542H713.264" stroke="#1E1E1E" stroke-width="1.59926" stroke-miterlimit="10" stroke-linecap="round" stroke-linejoin="round"/>
<path d="M588.876 209.542H598.758" stroke="#1E1E1E" stroke-width="1.59926" stroke-miterlimit="10" stroke-linecap="round" stroke-linejoin="round"/>
<path d="M682.476 227.201H713.264" stroke="#1E1E1E" stroke-width="1.59926" stroke-miterlimit="10" stroke-linecap="round" stroke-linejoin="round"/>
<path d="M588.876 227.201H598.035" stroke="#1E1E1E" stroke-width="1.59926" stroke-miterlimit="10" stroke-linecap="round" stroke-linejoin="round"/>
<path d="M707.759 244.859H713.263" stroke="#1E1E1E" stroke-width="1.59926" stroke-miterlimit="10" stroke-linecap="round" stroke-linejoin="round"/>
<path d="M588.876 244.859H598.035" stroke="#1E1E1E" stroke-width="1.59926" stroke-miterlimit="10" stroke-linecap="round" stroke-linejoin="round"/>
<path d="M707.759 265.406H713.263" stroke="#1E1E1E" stroke-width="1.59926" stroke-miterlimit="10" stroke-linecap="round" stroke-linejoin="round"/>
<path d="M588.876 265.406H598.035" stroke="#1E1E1E" stroke-width="1.59926" stroke-miterlimit="10" stroke-linecap="round" stroke-linejoin="round"/>
<path d="M707.759 285.956H713.263" stroke="#1E1E1E" stroke-width="1.59926" stroke-miterlimit="10" stroke-linecap="round" stroke-linejoin="round"/>
<path d="M588.876 285.956H598.035" stroke="#1E1E1E" stroke-width="1.59926" stroke-miterlimit="10" stroke-linecap="round" stroke-linejoin="round"/>
<path d="M620.997 179.662H600.373V287.836H620.997V179.662Z" stroke="#1E1E1E" stroke-width="1.59926" stroke-miterlimit="10" stroke-linecap="round" stroke-linejoin="round"/>
<path d="M649.218 200.036H628.595V287.838H649.218V200.036Z" stroke="#1E1E1E" stroke-width="1.59926" stroke-miterlimit="10" stroke-linecap="round" stroke-linejoin="round"/>
<path d="M677.441 219.051H656.817V287.836H677.441V219.051Z" stroke="#1E1E1E" stroke-width="1.59926" stroke-miterlimit="10" stroke-linecap="round" stroke-linejoin="round"/>
<path d="M705.665 243.501H685.04V287.836H705.665V243.501Z" stroke="#1E1E1E" stroke-width="1.59926" stroke-miterlimit="10" stroke-linecap="round" stroke-linejoin="round"/>
<path d="M154.407 605.447L154.525 606.413C157.867 606.215 160.398 607.104 162.243 608.757C164.106 610.426 165.371 612.965 165.981 616.245L166.06 616.666L162.012 617.42L161.866 616.635C161.422 614.251 160.497 612.269 158.926 611.014C157.33 609.738 155.232 609.343 152.741 609.806C150.286 610.263 148.492 611.386 147.474 613.149C146.474 614.882 146.323 617.062 146.767 619.446C147.358 622.619 149.152 624.744 151.446 626.35C153.437 627.744 155.866 628.788 158.241 629.807C158.548 629.939 158.853 630.07 159.157 630.202C164.584 632.552 169.575 635.086 170.807 641.702C171.416 644.978 171.135 647.826 169.98 650.077C168.835 652.309 166.773 654.069 163.587 655.086L162.764 655.348L162.922 656.198L163.461 659.093L160.149 659.709L159.61 656.814L159.451 655.962L158.587 656.016C155.156 656.229 152.585 655.344 150.722 653.688C148.84 652.016 147.572 649.46 146.954 646.142L146.551 643.976L150.6 643.222L151.072 645.754C151.523 648.178 152.469 650.144 154.065 651.368C155.682 652.608 157.789 652.954 160.263 652.493C162.774 652.026 164.622 650.947 165.676 649.204C166.715 647.486 166.866 645.313 166.416 642.897C165.829 639.741 164.041 637.625 161.757 636.021C159.781 634.633 157.37 633.589 155.012 632.567C154.698 632.432 154.386 632.296 154.076 632.161C148.67 629.797 143.692 627.243 142.46 620.624C141.835 617.268 142.107 614.464 143.236 612.27C144.356 610.094 146.385 608.389 149.541 607.34L150.351 607.07L150.195 606.231L149.615 603.118L152.927 602.501L153.507 605.615L154.407 605.447Z" fill="#1E1E1E" stroke="#1E1E1E" stroke-width="1.95822"/>
<path d="M186.698 675.719C190.425 673.211 193.796 670.26 196.751 666.952" stroke="#1E1E1E" stroke-width="1.95822" stroke-miterlimit="10" stroke-linecap="round" stroke-linejoin="round"/>
<path d="M128.885 585.263C110.356 596.512 99.7695 618.413 103.971 640.986C109.396 670.131 137.42 689.357 166.563 683.933C170.225 683.251 173.731 682.213 177.052 680.859" stroke="#1E1E1E" stroke-width="1.95822" stroke-miterlimit="10" stroke-linecap="round" stroke-linejoin="round"/>
<path d="M202.257 659.616C209.138 648.616 212.075 635.102 209.513 621.341C204.088 592.195 176.065 572.969 146.922 578.393C142.453 579.225 138.216 580.588 134.267 582.405" stroke="#1E1E1E" stroke-width="1.95822" stroke-miterlimit="10" stroke-linecap="round" stroke-linejoin="round"/>
<path d="M192.055 657.381C206.562 637.879 202.513 610.309 183.011 595.802C163.509 581.295 135.939 585.345 121.432 604.847C106.926 624.349 110.975 651.918 130.477 666.425C149.979 680.932 177.548 676.883 192.055 657.381Z" stroke="#1E1E1E" stroke-width="1.95822" stroke-miterlimit="10" stroke-linecap="round" stroke-linejoin="round"/>
</g>
<defs>
<filter id="filter0_ii_304_6356" x="412.828" y="239.19" width="40.2132" height="668.137" filterUnits="userSpaceOnUse" color-interpolation-filters="sRGB">
<feFlood flood-opacity="0" result="BackgroundImageFix"/>
<feBlend mode="normal" in="SourceGraphic" in2="BackgroundImageFix" result="shape"/>
<feColorMatrix in="SourceAlpha" type="matrix" values="0 0 0 0 0 0 0 0 0 0 0 0 0 0 0 0 0 0 127 0" result="hardAlpha"/>
<feOffset dx="-7.10784" dy="-5.33088"/>
<feGaussianBlur stdDeviation="3.10968"/>
<feComposite in2="hardAlpha" operator="arithmetic" k2="-1" k3="1"/>
<feColorMatrix type="matrix" values="0 0 0 0 0 0 0 0 0 0 0 0 0 0 0 0 0 0 0.2 0"/>
<feBlend mode="normal" in2="shape" result="effect1_innerShadow_304_6356"/>
<feColorMatrix in="SourceAlpha" type="matrix" values="0 0 0 0 0 0 0 0 0 0 0 0 0 0 0 0 0 0 127 0" result="hardAlpha"/>
<feOffset dx="5.33088" dy="3.55392"/>
<feGaussianBlur stdDeviation="1.77696"/>
<feComposite in2="hardAlpha" operator="arithmetic" k2="-1" k3="1"/>
<feColorMatrix type="matrix" values="0 0 0 0 1 0 0 0 0 1 0 0 0 0 1 0 0 0 0.25 0"/>
<feBlend mode="normal" in2="effect1_innerShadow_304_6356" result="effect2_innerShadow_304_6356"/>
</filter>
<clipPath id="clip0_304_6356">
<rect width="741.881" height="725" fill="white" transform="translate(78 169)"/>
</clipPath>
</defs>
</svg>
