<svg width="30" height="30" viewBox="0 0 30 30" fill="none" xmlns="http://www.w3.org/2000/svg">
<path d="M15.8814 25.1202L10.0343 25.0109C8.14115 24.9728 6.24327 25.0488 4.38723 24.6543C1.56377 24.0649 1.36375 21.1747 1.15444 18.7504C0.866042 15.3421 0.97769 11.872 1.52194 8.49222C1.82918 6.5958 3.03832 5.46419 4.90821 5.34105C11.2205 4.89415 17.5747 4.94711 23.8729 5.15561C24.5381 5.17472 25.2079 5.27919 25.8638 5.3981C29.1014 5.97805 29.1804 9.25325 29.3902 12.0103C29.5995 14.7959 29.5112 17.5957 29.1111 20.3623C28.7902 22.653 28.1761 24.5739 25.5846 24.7593C22.3377 25.0018 19.1653 25.1971 15.9092 25.1349C15.9094 25.1202 15.8907 25.1202 15.8814 25.1202ZM12.4439 19.3209C14.8907 17.8852 17.2908 16.4735 19.7237 15.0474C17.2723 13.6118 14.8767 12.2 12.4439 10.774V19.3209Z" fill="white"/>
</svg>
