<svg width="300" height="311" viewBox="0 0 300 311" fill="none" xmlns="http://www.w3.org/2000/svg">
<mask id="mask0_385_969" style="mask-type:alpha" maskUnits="userSpaceOnUse" x="8" y="29" width="282" height="282">
<ellipse cx="148.657" cy="170.168" rx="140.602" ry="140.604" transform="rotate(-90 148.657 170.168)" fill="#D9D9D9"/>
</mask>
<g mask="url(#mask0_385_969)">
<path d="M29.4569 245H268.529C270.342 245 271.812 248.451 271.812 252.711V293.664C271.812 297.924 270.342 301.375 268.529 301.375H29.4569C27.6431 301.375 26.1738 297.924 26.1738 293.664V252.711C26.1738 248.451 27.6431 245 29.4569 245Z" fill="url(#paint0_linear_385_969)"/>
</g>
<g filter="url(#filter0_i_385_969)">
<ellipse cx="148.658" cy="170.17" rx="140.604" ry="140.602" fill="#D9D9D9" fill-opacity="0.01"/>
</g>
<g filter="url(#filter1_i_385_969)">
<ellipse cx="148.658" cy="170.165" rx="140.602" ry="140.604" transform="rotate(-90 148.658 170.165)" fill="#D9D9D9" fill-opacity="0.01"/>
</g>
<path d="M271.131 164.899C281.924 164.899 290.673 156.15 290.673 145.358C290.673 134.565 281.924 125.816 271.131 125.816C260.338 125.816 251.589 134.565 251.589 145.358C251.589 156.15 260.338 164.899 271.131 164.899Z" stroke="#8F89FF" stroke-width="0.671131" stroke-miterlimit="10" stroke-dasharray="8.24 8.24"/>
<path d="M243.584 158.949L240.042 159.654L239.534 157.107C239.189 155.374 237.584 154.229 235.959 154.551L218.5 158.035C216.875 158.36 215.831 160.032 216.178 161.765L216.686 164.312L213.145 165.018C212.742 165.098 212.484 165.515 212.567 165.943L216.275 184.54C216.361 184.968 216.761 185.254 217.164 185.173L247.609 179.101C248.011 179.021 248.27 178.604 248.186 178.176L244.478 159.579C244.386 159.154 243.986 158.868 243.584 158.949ZM239.197 159.824L217.525 164.146L217.017 161.599C216.77 160.36 217.514 159.165 218.675 158.935L236.134 155.451C237.295 155.221 238.442 156.037 238.689 157.276L239.197 159.824Z" fill="#9AD3CC"/>
<path d="M231.977 171.179L228.341 171.904L212.922 167.073L213.025 166.926L228.38 171.737L231.877 171.04L244.214 160.704L244.364 160.801L231.977 171.179Z" fill="white"/>
<path d="M148.631 129.805C148.631 129.805 145.284 128.702 144.625 129.088C143.967 129.474 140.567 134.046 140.567 134.046L145.12 136.218L150.275 132.874L148.631 129.805ZM228.975 152.09C228.975 152.09 231.703 157.618 231.131 158.604C230.556 159.593 224.381 160.704 224.381 160.704L222.728 155.16L225.675 152.088H228.975V152.09Z" fill="#FCD2B1"/>
<path d="M181.62 240.823L167.228 245.493H184.747V240.823H181.62ZM217.289 240.823L204.145 245.493H221.517L220.625 240.823H217.289Z" fill="#0A3951"/>
<path d="M188.95 145.141L179.867 242.951H185.725C185.725 242.951 199.653 202.352 195.006 196.979C196.5 190.327 206.014 163.972 203.817 161.158C201.619 158.344 197.592 143.652 197.592 143.652L188.95 145.141Z" fill="#083047"/>
<path d="M191.117 147.777L195.839 154.28L215.311 242.951H221.497C221.497 242.951 222.011 198.468 217.578 192.851C215.806 182.801 214.967 148.616 213.658 144.869C207.747 144.574 192.228 142.752 192.228 142.752L191.117 147.777Z" fill="#0A3951"/>
<path d="M224.13 99.8757C221.114 95.1369 212.372 95.573 205.694 94.9452C203.761 94.7646 202.147 93.9508 200.775 93.7646L191.683 96.5035C191.161 96.6146 183.855 97.1507 183.019 97.6535C182.919 97.7701 175.005 125.614 148.575 129.32C148.852 131.264 148.575 134.042 148.575 134.042C148.575 134.042 175.794 134.831 184.35 118.887C186.228 136.35 188.95 145.145 188.95 145.145L213.95 146.244C213.95 146.244 215.239 119.6 218.016 113.489C232.461 122.656 224.405 152.933 224.405 152.933C224.405 152.933 225.516 153.489 229.128 152.933C237.464 131.82 228.019 105.987 224.13 99.8757Z" fill="white"/>
<path d="M195.006 99.1102L197.917 103.266L203.817 94.2852L201.673 92.9297L195.006 99.1102ZM195.006 99.1102L194.101 103.266L191.117 96.8824L192.228 94.9435L195.006 99.1102Z" fill="#F2F2F2"/>
<path d="M194.397 102.206L195.005 104.086L192.058 136.6C192.058 136.6 195.822 151.583 196.075 150.666C196.328 149.749 200.016 137.813 200.016 137.813L196.658 104.133L196.953 102.186L195.008 99.1084L194.397 102.206Z" fill="#9AD3CC"/>
<path d="M201.684 69.1299C204.739 71.6299 206.128 77.4631 204.739 80.5186C203.35 83.5741 199.739 85.2408 198.35 86.9074C195.572 83.5741 191.684 81.3519 191.684 81.3519L193.628 73.0187L197.517 71.0743L201.684 69.1299Z" fill="#413D8D"/>
<path d="M192.239 88.4592V95.6813L195.017 99.8479L201.684 93.6675L199.045 80.876L192.239 88.4592Z" fill="#FCD2B1"/>
<path d="M183.708 71.538C184.486 80.1795 180.353 88.5489 185.005 91.1822C186.044 92.4905 196.5 93.9321 197.797 90.0044C199.094 86.0767 202.4 74.9435 199.803 71.538C197.208 68.1325 183.708 71.538 183.708 71.538Z" fill="#FFE3CA"/>
<path d="M195.85 72.4629C195.294 74.6851 195.85 78.8517 198.072 79.4072C198.072 80.4683 197.958 82.3211 197.878 83.5239C197.867 83.6815 197.888 83.8396 197.939 83.9892C197.989 84.1387 198.07 84.2767 198.174 84.395C198.279 84.5134 198.406 84.6098 198.548 84.6786C198.69 84.7475 198.845 84.7874 199.003 84.7961C199.525 84.8238 200.016 84.8183 200.016 84.685C200.016 84.4072 201.683 72.4629 201.683 72.4629H195.85Z" fill="#413D8D"/>
<path d="M202.151 81.6339C202.588 80.004 202.141 78.4678 201.153 78.2027C200.165 77.9376 199.009 79.0439 198.572 80.6738C198.135 82.3037 198.581 83.8399 199.57 84.105C200.558 84.3701 201.714 83.2638 202.151 81.6339Z" fill="#FFE3CA"/>
<path d="M198.35 79.1306L198.072 84.1305L199.461 84.4083L200.017 77.4639L198.35 79.1306ZM201.783 72.9918C197.176 74.105 192.474 74.7839 187.739 75.0195C185.297 75.1417 182.583 75.0473 180.8 73.3751C179.331 71.9973 178.85 69.7418 179.4 67.803C179.95 65.8641 181.422 64.2641 183.197 63.3113C184.972 62.3586 187.022 62.0086 189.036 62.0364C188.272 61.9058 187.608 62.7891 187.758 63.5502C187.908 64.3113 188.628 64.853 189.381 65.0447C190.133 65.2363 190.922 65.1474 191.697 65.0863C193.639 64.9363 195.611 64.9724 197.497 65.453C199.383 65.9308 201.261 66.953 202.156 68.6835C203.05 70.414 202.57 72.9112 200.806 73.7334" fill="#413D8D"/>
<path d="M140.508 129.805C140.508 129.805 143.858 128.702 144.514 129.088C145.169 129.474 148.572 134.046 148.572 134.046L144.019 136.218L138.864 132.874L140.508 129.805ZM60.1637 152.09C60.1637 152.09 57.4359 160.229 58.0081 161.685C58.5831 163.14 64.7581 164.776 64.7581 164.776L64.1831 158.435L65.7637 160.957L66.4831 158.435L63.4664 152.093H60.1637V152.09Z" fill="#FCD2B1"/>
<path d="M107.522 240.823L121.913 245.493H104.391V240.823H107.522ZM71.8523 240.823L84.9967 245.493H67.6245L68.5162 240.823H71.8523Z" fill="#0A3951"/>
<path d="M99.533 146.316L109.272 242.951H103.414C103.414 242.951 89.4858 202.352 94.133 196.979C92.6386 190.327 83.1247 163.972 85.3219 161.158C87.5191 158.344 91.5469 143.652 91.5469 143.652L99.533 146.316Z" fill="#083047"/>
<path d="M98.0252 147.777L93.303 154.28L73.8308 242.951H67.6447C67.6447 242.951 67.1308 198.468 71.5641 192.851C73.3363 182.801 74.4419 147.777 77.6947 145.413C83.6058 145.119 96.9141 142.752 96.9141 142.752L98.0252 147.777Z" fill="#0A3951"/>
<path d="M100.012 158.207L93.9004 144.874L81.6782 158.207L76.1226 148.208C76.1226 148.208 73.9004 119.597 71.1226 113.486C56.6782 122.652 64.7337 152.93 64.7337 152.93C64.7337 152.93 63.6226 153.485 60.0115 152.93C51.6782 131.819 61.1226 105.986 65.0115 99.8748C68.0282 95.136 76.8893 94.0721 83.5671 93.4444C85.5004 93.2638 88.2226 94.8138 89.5949 94.6277C89.5949 94.6277 95.8032 94.4193 101.081 95.886L101.087 95.8888C103.364 96.5221 105.287 97.1499 106.123 97.6526C107.789 99.597 100.012 158.207 100.012 158.207Z" fill="#413D8D"/>
<path d="M106.122 97.6523C106.122 97.6523 110.844 125.152 140.566 129.319C140.289 131.263 140.566 134.041 140.566 134.041C140.566 134.041 111.955 134.874 104.177 117.652C101.677 101.263 106.122 97.6523 106.122 97.6523Z" fill="#413D8D"/>
<path d="M99.5331 95.4685L94.2608 128.521L83.5664 93.4436C85.4997 93.263 87.2497 93.1158 88.622 92.9297L99.5331 95.4685Z" fill="white"/>
<path d="M87.4668 68.3945C84.4112 70.8945 83.0223 76.7278 84.4112 79.7833C85.8001 82.8388 89.4112 84.5054 90.8001 86.1721C93.5779 82.8388 97.4668 80.6166 97.4668 80.6166L95.5223 72.2834L91.6334 70.339L87.4668 68.3945Z" fill="#413D8D"/>
<path d="M96.9107 87.7199V94.9421L94.133 99.1087L87.4663 92.9282L90.1052 80.1367L96.9107 87.7199Z" fill="#FCD2B1"/>
<path d="M106.634 70.894C105.8 80.0605 106.356 90.3382 105.245 91.727C104.134 93.1159 93.0224 93.1159 91.6335 88.9493C90.2446 84.7827 86.6335 74.505 89.4113 70.894C92.1891 67.2829 106.634 70.894 106.634 70.894Z" fill="#FFE3CA"/>
<path d="M93.3001 71.7275C93.8557 73.9497 93.3001 78.1163 91.0779 78.6719C91.0779 79.733 91.1918 81.5857 91.2723 82.7885C91.283 82.9461 91.2623 83.1043 91.2114 83.2538C91.1605 83.4034 91.0803 83.5413 90.9757 83.6597C90.871 83.778 90.7439 83.8744 90.6017 83.9433C90.4595 84.0121 90.3051 84.052 90.1473 84.0607C89.6251 84.0885 89.1335 84.0829 89.1335 83.9496C89.1335 83.6718 87.4668 71.7275 87.4668 71.7275H93.3001Z" fill="#413D8D"/>
<path d="M89.5755 83.3803C90.5638 83.1152 91.0105 81.579 90.5733 79.9491C90.1361 78.3192 88.9805 77.2129 87.9921 77.478C87.0038 77.7431 86.5571 79.2793 86.9943 80.9092C87.4315 82.5391 88.5871 83.6455 89.5755 83.3803Z" fill="#FFE3CA"/>
<path d="M90.8002 78.3941L91.078 83.394L89.6891 83.6718L89.1336 76.7274L90.8002 78.3941ZM92.0086 72.1303C93.603 73.3997 95.7197 73.9941 97.7391 73.7386C99.3391 73.5358 100.859 72.8331 102.47 72.7942C103.703 72.7636 104.909 73.1275 106.136 73.2442C107.553 73.3775 109.042 73.1636 110.239 72.3942C111.436 71.6247 112.286 70.2414 112.184 68.822C112.042 66.8415 110.122 65.3609 108.161 65.0387C106.2 64.7165 104.217 65.2776 102.311 65.8443C100.409 66.4081 98.4308 66.9887 96.4669 66.7026C95.0919 66.5026 93.8058 65.8831 92.4336 65.6554C90.9475 65.4054 89.3836 65.6331 88.0308 66.2942C87.0086 66.7942 86.0919 67.5526 85.528 68.5442C84.9641 69.5359 84.7919 70.7664 85.1836 71.8358C85.5363 72.7969 86.3197 73.5664 87.2363 74.0219C88.153 74.4775 89.1947 74.6386 90.2197 74.6191L92.0086 72.1303Z" fill="#413D8D"/>
<path d="M94.1325 99.1102L91.2242 103.266L85.3242 94.2852L87.4659 92.9297L94.1325 99.1102ZM94.1325 99.1102L95.0381 103.266L98.0242 96.8824L96.9103 94.9435L94.1325 99.1102Z" fill="#F2F2F2"/>
<path d="M94.7418 101.905L94.1334 103.602L96.6556 113.499C96.6556 113.499 94.5112 129.349 94.2584 128.521C94.0056 127.693 89.4751 112.827 89.4751 112.827L92.4834 103.644L92.189 101.888L94.1334 99.1104L94.7418 101.905Z" fill="#9AD3CC"/>
<path d="M141.055 135.37C141.591 134.62 143.202 132.611 143.202 132.611L147.28 135.37L144.491 137.195L141.055 135.37ZM148.686 129.806C148.686 129.806 146.597 128.792 145.194 128.703C143.791 128.614 141.944 130.611 141.944 130.611C141.944 130.611 142.002 130.97 142.75 130.97C143.494 130.97 144.986 130.253 144.986 130.253L148.75 131.831L148.686 129.806Z" fill="#FFE3CA"/>
<path d="M254.788 46.3105H222.341C215.916 46.3105 210.661 51.5633 210.661 57.9826C210.661 62.4687 213.227 66.3797 216.963 68.3325L216.255 71.663C216.255 71.663 221.497 69.6547 222.341 69.6547H254.788C261.213 69.6547 266.469 64.402 266.469 57.9826C266.469 51.5633 261.213 46.3105 254.788 46.3105Z" fill="#41AAF7"/>
<path d="M257.497 49.3477H225.05C218.625 49.3477 213.369 54.6004 213.369 61.0197C213.369 65.5058 215.936 69.4168 219.672 71.3696L218.964 74.7001C218.964 74.7001 224.205 72.6918 225.05 72.6918H257.497C263.922 72.6918 269.177 67.4391 269.177 61.0197C269.177 54.6004 263.922 49.3477 257.497 49.3477Z" stroke="#8F89FF" stroke-width="0.671131" stroke-miterlimit="10"/>
<path d="M78.8303 54.6914H43.3552C41.8802 54.6914 40.6719 55.8997 40.6719 57.3747V74.0439C40.6719 75.5189 41.8802 76.7272 43.3552 76.7272H70.133L75.1025 80.4299L73.0108 76.7272H78.833C80.308 76.7272 81.5164 75.5189 81.5164 74.0439V57.3747C81.5164 55.8997 80.308 54.6914 78.8303 54.6914Z" fill="white"/>
<path d="M77.8614 56.4189H42.3835C40.9085 56.4189 39.7002 57.6273 39.7002 59.1022V75.7715C39.7002 77.2464 40.9085 78.4548 42.3835 78.4548H69.1613L74.1308 82.1575L72.0391 78.4548H77.8614C79.3364 78.4548 80.5447 77.2464 80.5447 75.7715V59.1022C80.5447 57.6273 79.3364 56.4189 77.8614 56.4189Z" stroke="white" stroke-width="0.671131" stroke-miterlimit="10"/>
<path d="M34.8083 248.929C40.8305 248.929 43.3722 244.121 44.3722 239.018C45.5027 233.263 44.6722 227.138 44.6722 227.138H24.9444C24.9444 227.138 24.9138 227.371 24.8694 227.788C24.5027 231.41 23.3138 248.929 34.8083 248.929Z" fill="#B6E7FF"/>
<path d="M24.9443 227.138C24.9443 227.569 29.361 227.919 34.811 227.919C40.2582 227.919 44.6777 227.569 44.6777 227.138C44.6777 226.707 40.261 226.357 34.811 226.357C29.361 226.357 24.9443 226.707 24.9443 227.138Z" fill="#85DDFF"/>
<path d="M8.09473 172.442C8.09473 172.442 18.5003 188.272 24.742 197.933C30.9836 207.594 32.6197 209.6 33.3614 212.722C34.1059 215.844 34.7725 227.361 34.7725 227.361H35.2336C35.2336 227.361 35.0725 217.583 34.5114 214.294C33.967 211.114 34.5503 209.972 34.9975 206.628C35.4448 203.283 36.0392 197.933 32.6559 194.217C29.2753 190.5 30.167 186.859 28.9781 184.409C27.7892 181.956 18.5725 178.984 17.3836 176.456C16.1947 173.928 10.9947 172.367 8.09473 172.442Z" fill="#2A94F4"/>
<path d="M8.09473 172.442C8.09473 172.442 11.3642 176.159 13.5947 177.423C15.8253 178.687 16.8642 177.57 18.5725 180.617C20.2808 183.664 20.3475 185.003 21.9114 186.562C23.4753 188.123 25.3336 188.198 25.4836 191.614C25.6336 195.034 24.7419 197.931 24.7419 197.931C24.7419 197.931 8.76417 173.259 8.09473 172.442Z" fill="#41AAF7"/>
<path d="M33.9502 227.361H33.4835C33.4835 227.361 33.3446 224.197 32.0863 222.661C31.2752 221.67 27.8307 220.545 24.4279 219.195C22.5529 218.453 20.6918 217.642 19.2863 216.747C15.3279 214.234 11.5557 206.134 11.2335 204.689C11.1196 204.186 11.0696 203.881 11.0724 203.673V203.667C11.0807 203.278 11.2724 203.22 11.6057 202.828C11.7668 202.639 12.2474 202.703 12.8363 202.884C14.5418 203.403 15.9835 204.573 16.8752 206.117C17.7002 207.545 19.0196 209.331 20.6363 209.764C23.4307 210.509 23.1974 210.973 24.2279 213.814C25.2557 216.656 27.8529 217.12 31.1113 220.47C34.3696 223.822 33.9502 227.361 33.9502 227.361Z" fill="#2A94F4"/>
<path d="M24.4275 219.194C22.5525 218.452 20.6913 217.641 19.2858 216.747C15.3274 214.233 11.5552 206.133 11.233 204.689C11.1191 204.186 11.0691 203.88 11.0719 203.672C11.083 203.766 11.2663 205.05 13.3302 205.902C15.4691 206.786 15.8886 206.786 16.1691 208.136C16.4497 209.486 16.683 210.93 17.7997 211.208C18.9163 211.488 19.6163 210.23 20.4969 212.277C21.383 214.325 21.8052 215.025 22.6163 215.302C23.4302 215.583 24.0469 215.163 24.2275 216.747C24.3358 217.713 24.3969 218.63 24.4275 219.194Z" fill="#41AAF7"/>
<path d="M37.3724 227.362H37.9252C37.9252 227.362 39.0058 207.765 40.4919 205.945C41.4502 204.77 44.6169 202.667 48.6502 201.068C50.8696 200.187 53.078 199.229 54.7419 198.17C59.4308 195.193 63.8974 185.598 64.2808 183.887C64.4169 183.293 64.4752 182.932 64.4724 182.682V182.676C64.4613 182.215 64.2335 182.146 63.8419 181.684C63.653 181.459 63.0808 181.537 62.3835 181.751C60.3613 182.368 58.6558 183.751 57.6002 185.582C56.6224 187.273 55.0585 189.39 53.1447 189.901C49.8363 190.784 50.1113 191.334 48.8891 194.698C47.6724 198.062 44.5946 198.612 40.7363 202.581C36.8752 206.551 37.3724 227.362 37.3724 227.362Z" fill="#2A94F4"/>
<path d="M48.6494 201.067C50.8689 200.186 53.0772 199.228 54.7411 198.169C59.43 195.192 63.8966 185.597 64.28 183.886C64.4161 183.292 64.4744 182.931 64.4716 182.681C64.4577 182.795 64.2411 184.311 61.7994 185.32C59.2661 186.364 58.7689 186.364 58.4383 187.967C58.1077 189.564 57.83 191.275 56.5077 191.606C55.1855 191.936 54.3577 190.447 53.3105 192.872C52.2605 195.297 51.7633 196.125 50.7994 196.455C49.8355 196.786 49.105 196.289 48.8911 198.167C48.7577 199.314 48.6855 200.4 48.6494 201.067Z" fill="#41AAF7"/>
<path d="M34.8083 248.93C40.8305 248.93 43.3722 244.122 44.3722 239.019C38.4694 236.781 31.036 233.195 24.8694 227.789C24.5027 231.411 23.3138 248.93 34.8083 248.93Z" fill="#CCE9FF"/>
<path d="M249.525 249.669C253.511 249.669 255.192 246.486 255.856 243.108C256.603 239.3 256.056 235.244 256.056 235.244H242.997C242.997 235.244 242.978 235.4 242.947 235.675C242.703 238.075 241.917 249.669 249.525 249.669Z" fill="#B6E7FF"/>
<path d="M242.995 235.246C242.995 235.532 245.917 235.763 249.525 235.763C253.131 235.763 256.056 235.532 256.056 235.246C256.056 234.96 253.134 234.729 249.525 234.729C245.92 234.729 242.995 234.96 242.995 235.246Z" fill="#85DDFF"/>
<path d="M228.111 191.879C228.111 191.879 236.355 204.42 241.3 212.076C246.247 219.731 247.541 221.32 248.13 223.792C248.719 226.265 249.25 235.392 249.25 235.392H249.897C249.897 235.392 250.308 227.678 249.544 225.148C248.778 222.617 249.072 221.615 249.428 218.965C249.78 216.315 250.253 212.076 247.572 209.131C244.894 206.187 245.6 203.304 244.658 201.359C243.716 199.415 236.414 197.062 235.472 195.059C234.53 193.057 230.408 191.821 228.111 191.879Z" fill="#2A94F4"/>
<path d="M229.914 191.878C229.914 191.878 232.506 194.822 234.272 195.822C236.039 196.822 236.864 195.939 238.217 198.353C239.572 200.767 239.622 201.828 240.864 203.064C242.103 204.3 243.575 204.358 243.695 207.067C243.811 209.775 243.106 212.072 243.106 212.072C243.106 212.072 230.445 192.525 229.914 191.878Z" fill="#41AAF7"/>
<path d="M251.992 235.244L252.464 235.103C252.464 235.103 251.644 231.858 252.453 229.922C252.972 228.672 256.117 226.489 259.153 224.092C260.825 222.772 262.464 221.386 263.617 220.056C266.861 216.311 268.22 206.97 268.111 205.409C268.075 204.864 268.033 204.542 267.967 204.331L267.964 204.325C267.839 203.934 267.625 203.934 267.17 203.639C266.95 203.495 266.481 203.709 265.942 204.07C264.372 205.114 263.269 206.734 262.833 208.567C262.431 210.264 261.636 212.473 260.133 213.398C257.533 215 257.908 215.397 257.725 218.586C257.547 221.772 255.058 223.031 252.778 227.411C250.495 231.789 251.992 235.244 251.992 235.244Z" fill="#2A94F4"/>
<path d="M259.152 224.091C260.825 222.772 262.464 221.385 263.616 220.055C266.861 216.31 268.219 206.969 268.111 205.408C268.075 204.863 268.033 204.541 267.966 204.33C267.983 204.43 268.186 205.783 266.358 207.272C264.461 208.813 264.036 208.941 264.164 210.394C264.291 211.844 264.491 213.377 263.444 213.999C262.397 214.622 261.311 213.561 261.039 215.899C260.764 218.241 260.55 219.074 259.811 219.605C259.072 220.133 258.322 219.897 258.616 221.555C258.797 222.563 259.014 223.51 259.152 224.091Z" fill="#41AAF7"/>
<path d="M249.525 249.667C253.511 249.667 255.192 246.484 255.856 243.106C251.95 241.626 247.028 239.251 242.947 235.673C242.703 238.073 241.917 249.667 249.525 249.667Z" fill="#CCE9FF"/>
<defs>
<filter id="filter0_i_385_969" x="8.0542" y="29.5674" width="314.094" height="314.761" filterUnits="userSpaceOnUse" color-interpolation-filters="sRGB">
<feFlood flood-opacity="0" result="BackgroundImageFix"/>
<feBlend mode="normal" in="SourceGraphic" in2="BackgroundImageFix" result="shape"/>
<feColorMatrix in="SourceAlpha" type="matrix" values="0 0 0 0 0 0 0 0 0 0 0 0 0 0 0 0 0 0 127 0" result="hardAlpha"/>
<feOffset dx="32.8854" dy="50.3348"/>
<feGaussianBlur stdDeviation="16.7783"/>
<feComposite in2="hardAlpha" operator="arithmetic" k2="-1" k3="1"/>
<feColorMatrix type="matrix" values="0 0 0 0 0.603922 0 0 0 0 0.827451 0 0 0 0 0.8 0 0 0 0.18 0"/>
<feBlend mode="normal" in2="shape" result="effect1_innerShadow_385_969"/>
</filter>
<filter id="filter1_i_385_969" x="-25.5023" y="11.443" width="314.765" height="299.325" filterUnits="userSpaceOnUse" color-interpolation-filters="sRGB">
<feFlood flood-opacity="0" result="BackgroundImageFix"/>
<feBlend mode="normal" in="SourceGraphic" in2="BackgroundImageFix" result="shape"/>
<feColorMatrix in="SourceAlpha" type="matrix" values="0 0 0 0 0 0 0 0 0 0 0 0 0 0 0 0 0 0 127 0" result="hardAlpha"/>
<feOffset dx="-115" dy="-18.1205"/>
<feGaussianBlur stdDeviation="16.7783"/>
<feComposite in2="hardAlpha" operator="arithmetic" k2="-1" k3="1"/>
<feColorMatrix type="matrix" values="0 0 0 0 0.531246 0 0 0 0 0.393819 0 0 0 0 0.891667 0 0 0 0.13 0"/>
<feBlend mode="normal" in2="shape" result="effect1_innerShadow_385_969"/>
</filter>
<linearGradient id="paint0_linear_385_969" x1="148.993" y1="245" x2="148.993" y2="301.375" gradientUnits="userSpaceOnUse">
<stop stop-color="#504CA7" stop-opacity="0.58"/>
<stop offset="1" stop-color="#5B56BD" stop-opacity="0"/>
</linearGradient>
</defs>
</svg>
