<svg width="30" height="31" viewBox="0 0 30 31" fill="none" xmlns="http://www.w3.org/2000/svg">
<path d="M1.5 4.75996C1.5 3.89414 1.80406 3.17986 2.41216 2.6171C3.02026 2.05433 3.81082 1.77295 4.78378 1.77295C5.73939 1.77295 6.51254 2.04999 7.10328 2.60412C7.71138 3.17555 8.01544 3.92012 8.01544 4.83788C8.01544 5.66905 7.72009 6.36167 7.12934 6.9158C6.52124 7.48723 5.72201 7.77295 4.73166 7.77295H4.7056C3.74999 7.77295 2.97684 7.48723 2.3861 6.9158C1.79536 6.34438 1.5 5.62575 1.5 4.75996ZM1.8388 27.4872V10.1366H7.62452V27.4872H1.8388ZM10.8301 27.4872H16.6158V17.7989C16.6158 17.1928 16.6853 16.7253 16.8243 16.3963C17.0676 15.8076 17.4368 15.3097 17.932 14.9028C18.4271 14.4959 19.0483 14.2924 19.7954 14.2924C21.7413 14.2924 22.7143 15.5998 22.7143 18.2145V27.4872H28.5V17.5392C28.5 14.9764 27.8919 13.0327 26.6757 11.708C25.4595 10.3833 23.8523 9.721 21.8542 9.721C19.6129 9.721 17.8668 10.682 16.6158 12.6041V12.6561H16.5898L16.6158 12.6041V10.1366H10.8301C10.8649 10.6907 10.8822 12.4136 10.8822 15.3054C10.8822 18.1972 10.8649 22.2578 10.8301 27.4872Z" fill="white"/>
</svg>
