<svg width="30" height="30" viewBox="0 0 30 30" fill="none" xmlns="http://www.w3.org/2000/svg">
<path d="M16.4944 13.2691H16.5174V13.233L16.4944 13.2691ZM16.4944 13.2691H16.5174V13.233L16.4944 13.2691ZM16.4944 13.2691H16.5174V13.233L16.4944 13.2691ZM16.4944 13.2691H16.5174V13.233L16.4944 13.2691ZM16.4944 13.2691H16.5174V13.233L16.4944 13.2691ZM16.4944 13.2691H16.5174V13.233L16.4944 13.2691ZM16.4944 13.2691H16.5174V13.233L16.4944 13.2691ZM16.4944 13.2691H16.5174V13.233L16.4944 13.2691ZM16.4944 13.2691H16.5174V13.233L16.4944 13.2691ZM16.4944 13.2691H16.5174V13.233L16.4944 13.2691ZM16.4944 13.2691H16.5174V13.233L16.4944 13.2691ZM16.4944 13.2691H16.5174V13.233L16.4944 13.2691ZM16.4944 13.2691H16.5174V13.233L16.4944 13.2691ZM16.4944 13.2691H16.5174V13.233L16.4944 13.2691ZM16.4944 13.2691H16.5174V13.233L16.4944 13.2691ZM16.4944 13.2691H16.5174V13.233L16.4944 13.2691ZM15 0C12.0333 0 9.13319 0.879734 6.66645 2.52796C4.19971 4.17618 2.27713 6.51886 1.14181 9.25975C0.00649908 12.0006 -0.290551 15.0166 0.288228 17.9263C0.867006 20.8361 2.29562 23.5088 4.3934 25.6066C6.49119 27.7044 9.16393 29.133 12.0736 29.7118C14.9834 30.2906 17.9994 29.9935 20.7403 28.8582C23.4811 27.7229 25.8238 25.8003 27.472 23.3335C29.1203 20.8668 30 17.9667 30 15C29.9957 11.0231 28.4139 7.2103 25.6018 4.3982C22.7897 1.58609 18.9769 0.00434683 15 0ZM11.2492 21.7528C11.2483 21.8193 11.2213 21.8828 11.174 21.9295C11.1266 21.9762 11.0628 22.0024 10.9963 22.0024H8.10598C8.03978 22.0024 7.97629 21.9761 7.92948 21.9293C7.88266 21.8825 7.85637 21.819 7.85637 21.7528V12.0407C7.85593 12.0077 7.86207 11.9749 7.87442 11.9442C7.88677 11.9135 7.90508 11.8856 7.92831 11.8621C7.95153 11.8386 7.97919 11.8199 8.00969 11.8071C8.04019 11.7944 8.07292 11.7878 8.10598 11.7878H10.9963C11.0295 11.7878 11.0624 11.7944 11.0931 11.8071C11.1237 11.8198 11.1516 11.8384 11.1751 11.8619C11.1986 11.8854 11.2172 11.9133 11.2299 11.9439C11.2426 11.9746 11.2492 12.0075 11.2492 12.0407V21.7528ZM9.44932 10.4905C9.09009 10.4905 8.73892 10.3839 8.44024 10.1844C8.14155 9.9848 7.90875 9.70113 7.77128 9.36925C7.63381 9.03736 7.59784 8.67217 7.66792 8.31984C7.73801 7.96752 7.91099 7.64388 8.165 7.38987C8.41902 7.13586 8.74265 6.96287 9.09497 6.89279C9.4473 6.82271 9.8125 6.85868 10.1444 6.99615C10.4763 7.13362 10.7599 7.36642 10.9595 7.66511C11.1591 7.96379 11.2656 8.31495 11.2656 8.67418C11.266 8.91282 11.2194 9.1492 11.1282 9.36976C11.0371 9.59032 10.9033 9.79071 10.7346 9.95946C10.5658 10.1282 10.3654 10.262 10.1449 10.3531C9.92433 10.4442 9.68796 10.4909 9.44932 10.4905ZM23.4804 21.7528C23.4795 21.8193 23.4525 21.8828 23.4052 21.9295C23.3578 21.9762 23.294 22.0024 23.2275 22.0024H20.3372C20.3044 22.0024 20.272 21.9959 20.2417 21.9834C20.2114 21.9709 20.1839 21.9525 20.1607 21.9293C20.1375 21.9061 20.1191 21.8786 20.1066 21.8483C20.094 21.818 20.0876 21.7856 20.0876 21.7528V16.5338C20.0876 15.1609 19.5982 14.2347 18.3698 14.2347C17.9871 14.2369 17.6143 14.3573 17.3027 14.5796C16.991 14.8018 16.7558 15.115 16.6291 15.4762C16.5425 15.7432 16.5047 16.0236 16.5174 16.3039V21.7528C16.5174 21.8199 16.4908 21.8842 16.4433 21.9316C16.3959 21.979 16.3316 22.0057 16.2645 22.0057H13.3742C13.3412 22.0057 13.3084 21.9991 13.2779 21.9864C13.2474 21.9736 13.2198 21.9549 13.1965 21.9314C13.1733 21.9079 13.155 21.88 13.1426 21.8493C13.1303 21.8187 13.1242 21.7858 13.1246 21.7528C13.1246 20.3668 13.1607 13.637 13.1246 12.0539C13.1242 12.0208 13.1303 11.988 13.1426 11.9573C13.155 11.9267 13.1733 11.8988 13.1965 11.8752C13.2198 11.8517 13.2474 11.833 13.2779 11.8203C13.3084 11.8075 13.3412 11.801 13.3742 11.801H16.2579C16.2913 11.8005 16.3244 11.8068 16.3552 11.8193C16.3861 11.8319 16.4142 11.8505 16.4378 11.874C16.4613 11.8976 16.4799 11.9257 16.4925 11.9566C16.505 11.9874 16.5113 12.0205 16.5108 12.0539V13.2461C16.8181 12.7128 17.2655 12.2738 17.8045 11.9768C18.3436 11.6798 18.9537 11.536 19.5686 11.5612C21.7988 11.5612 23.4738 13.0195 23.4738 16.1594L23.4804 21.7528ZM16.5174 13.279V13.2428L16.4944 13.279H16.5174ZM16.4944 13.279H16.5174V13.2428L16.4944 13.279ZM16.4944 13.279H16.5174V13.2428L16.4944 13.279ZM16.4944 13.279H16.5174V13.2428L16.4944 13.279ZM16.4944 13.279H16.5174V13.2428L16.4944 13.279ZM16.4944 13.279H16.5174V13.2428L16.4944 13.279ZM16.4944 13.279H16.5174V13.2428L16.4944 13.279ZM16.4944 13.279H16.5174V13.2428L16.4944 13.279ZM16.4944 13.279H16.5174V13.2428L16.4944 13.279ZM16.4944 13.279H16.5174V13.2428L16.4944 13.279ZM16.4944 13.279H16.5174V13.2428L16.4944 13.279ZM16.4944 13.279H16.5174V13.2428L16.4944 13.279ZM16.4944 13.279H16.5174V13.2428L16.4944 13.279ZM16.4944 13.279H16.5174V13.2428L16.4944 13.279ZM16.4944 13.279H16.5174V13.2428L16.4944 13.279Z" fill="white"/>
</svg>
