<svg width="73" height="73" viewBox="0 0 73 73" fill="none" xmlns="http://www.w3.org/2000/svg">
<circle cx="36.5" cy="36.3669" r="35.5" fill="#A18129" stroke="white"/>
<path d="M35.128 50.8709C33.308 50.8709 31.726 50.6329 30.382 50.1569C29.038 49.6529 27.89 49.0509 26.938 48.3509L28.66 45.2009C29.444 45.7889 30.354 46.3069 31.39 46.7549C32.426 47.2029 33.686 47.4269 35.17 47.4269C37.018 47.4269 38.474 46.9369 39.538 45.9569C40.63 44.9769 41.176 43.7589 41.176 42.3029C41.176 41.2669 40.896 40.3289 40.336 39.4889C39.776 38.6209 38.908 37.9209 37.732 37.3889C36.584 36.8569 35.086 36.5909 33.238 36.5909H30.886V33.5249H33.07C34.722 33.5249 36.08 33.2729 37.144 32.7689C38.236 32.2649 39.048 31.6069 39.58 30.7949C40.112 29.9829 40.378 29.1289 40.378 28.2329C40.378 26.9169 39.874 25.8529 38.866 25.0409C37.886 24.2289 36.668 23.8229 35.212 23.8229C33.896 23.8229 32.72 24.0469 31.684 24.4949C30.676 24.9149 29.85 25.3909 29.206 25.9229L27.652 22.9409C28.492 22.3809 29.57 21.8349 30.886 21.3029C32.202 20.7429 33.742 20.4629 35.506 20.4629C37.354 20.4629 38.922 20.7989 40.21 21.4709C41.498 22.1429 42.478 23.0389 43.15 24.1589C43.85 25.2509 44.2 26.4409 44.2 27.7289C44.2 29.3809 43.78 30.7669 42.94 31.8869C42.128 33.0069 40.966 33.9309 39.454 34.6589C41.218 35.3309 42.59 36.3249 43.57 37.6409C44.578 38.9289 45.082 40.4409 45.082 42.1769C45.082 43.6329 44.718 45.0329 43.99 46.3769C43.29 47.6929 42.198 48.7709 40.714 49.6109C39.258 50.4509 37.396 50.8709 35.128 50.8709Z" fill="white"/>
</svg>
