<svg width="73" height="73" viewBox="0 0 73 73" fill="none" xmlns="http://www.w3.org/2000/svg">
<circle cx="36.5" cy="36.3669" r="35.5" fill="#A18129" stroke="white"/>
<path d="M27.9458 50.3669C27.8618 49.8629 27.8198 49.3449 27.8198 48.8129C27.8198 46.9929 28.1278 45.3689 28.7438 43.9409C29.3878 42.4849 30.2138 41.1689 31.2218 39.9929C32.2298 38.7889 33.2938 37.6829 34.4138 36.6749C35.5618 35.6389 36.6258 34.6589 37.6058 33.7349C38.6138 32.7829 39.4398 31.8309 40.0838 30.8789C40.7278 29.9269 41.0498 28.9329 41.0498 27.8969C41.0498 26.7209 40.6158 25.7549 39.7478 24.9989C38.8798 24.2149 37.7598 23.8229 36.3878 23.8229C35.2118 23.8229 34.1338 24.0609 33.1538 24.5369C32.2018 24.9849 31.3058 25.6009 30.4658 26.3849L28.3658 23.8229C29.4858 22.8149 30.7178 22.0029 32.0618 21.3869C33.4338 20.7709 35.0158 20.4629 36.8078 20.4629C38.4598 20.4629 39.9018 20.7849 41.1338 21.4289C42.3658 22.0449 43.3178 22.8989 43.9898 23.9909C44.6898 25.0829 45.0398 26.3009 45.0398 27.6449C45.0398 28.9889 44.7458 30.2349 44.1578 31.3829C43.5698 32.5309 42.8138 33.6089 41.8898 34.6169C40.9658 35.6249 39.9718 36.6049 38.9078 37.5569C37.8438 38.4809 36.8218 39.4329 35.8418 40.4129C34.8618 41.3929 34.0218 42.4149 33.3218 43.4789C32.6498 44.5429 32.2298 45.6909 32.0618 46.9229H44.9978V50.3669H27.9458Z" fill="white"/>
</svg>
