<svg width="362" height="281" viewBox="0 0 362 281" fill="none" xmlns="http://www.w3.org/2000/svg">
<path d="M325.485 261.779H301.524V261.97H325.485V261.779Z" fill="#EBEBEB"/>
<path d="M239.625 263.852H233.338V264.043H239.625V263.852Z" fill="#EBEBEB"/>
<path d="M300.8 254.707H286.917V254.898H300.8V254.707Z" fill="#EBEBEB"/>
<path d="M69.1993 255.988H37.9531V256.178H69.1993V255.988Z" fill="#EBEBEB"/>
<path d="M80.224 255.988H75.6445V256.178H80.224V255.988Z" fill="#EBEBEB"/>
<path d="M162.889 259.203H95.1152V259.394H162.889V259.203Z" fill="#EBEBEB"/>
<path d="M171.462 215.527H31.7769C30.6813 215.527 29.6306 215.068 28.8559 214.252C28.0812 213.436 27.646 212.329 27.646 211.175V4.31358C27.6555 3.16606 28.095 2.06895 28.8686 1.26108C29.6423 0.453202 30.6876 -4.39939e-05 31.7769 3.20283e-09H171.462C172.558 3.20284e-09 173.609 0.45848 174.383 1.27458C175.158 2.09068 175.593 3.19755 175.593 4.35168V211.175C175.593 212.329 175.158 213.436 174.383 214.252C173.609 215.068 172.558 215.527 171.462 215.527ZM31.7769 0.152424C30.7299 0.154438 29.7263 0.593491 28.9859 1.37342C28.2456 2.15335 27.8288 3.21059 27.8269 4.31358V211.175C27.8288 212.278 28.2456 213.335 28.9859 214.115C29.7263 214.895 30.7299 215.334 31.7769 215.336H171.462C172.509 215.334 173.513 214.895 174.253 214.115C174.994 213.335 175.41 212.278 175.412 211.175V4.31358C175.41 3.21059 174.994 2.15335 174.253 1.37342C173.513 0.593491 172.509 0.154438 171.462 0.152424H31.7769Z" fill="#EBEBEB"/>
<path d="M327.952 215.527H188.252C187.157 215.525 186.107 215.065 185.333 214.25C184.559 213.434 184.123 212.328 184.121 211.175V4.31358C184.133 3.16668 184.573 2.07073 185.346 1.26328C186.119 0.455828 187.163 0.00194209 188.252 0H327.952C329.039 0.00396643 330.08 0.458984 330.851 1.26643C331.621 2.07388 332.059 3.16869 332.068 4.31358V211.175C332.068 212.326 331.635 213.431 330.864 214.247C330.092 215.062 329.045 215.522 327.952 215.527ZM188.252 0.152424C187.205 0.154438 186.201 0.593491 185.461 1.37342C184.721 2.15335 184.304 3.21059 184.302 4.31358V211.175C184.304 212.278 184.721 213.335 185.461 214.115C186.201 214.895 187.205 215.334 188.252 215.336H327.952C328.999 215.334 330.002 214.895 330.743 214.115C331.483 213.335 331.9 212.278 331.902 211.175V4.31358C331.9 3.21059 331.483 2.15335 330.743 1.37342C330.002 0.593491 328.999 0.154438 327.952 0.152424H188.252Z" fill="#EBEBEB"/>
<path d="M361.729 249.517H0V249.707H361.729V249.517Z" fill="#EBEBEB"/>
<path d="M310.206 65.4279V70.0006C312.935 70.2481 315.521 71.3917 317.6 73.2701L320.689 70.0158C317.78 67.2955 314.089 65.6802 310.206 65.4279Z" fill="#F0F0F0"/>
<path d="M308.096 97.4821C305.004 97.2179 302.102 95.8042 299.909 93.4936C297.715 91.183 296.373 88.126 296.122 84.869H291.782C292.03 89.3483 293.826 93.5767 296.832 96.7557C299.838 99.9347 303.845 101.844 308.096 102.123V97.4821Z" fill="#E6E6E6"/>
<path d="M296.118 82.652C296.37 79.3948 297.712 76.3377 299.905 74.0261C302.098 71.7146 304.999 70.2988 308.091 70.0314V65.4587C303.841 65.7332 299.832 67.6362 296.822 70.8089C293.811 73.9816 292.007 78.2049 291.748 82.6825L296.118 82.652Z" fill="#EBEBEB"/>
<path d="M322.201 71.5856L319.112 74.8399C320.672 76.77 321.695 79.1165 322.07 81.6206C322.444 84.1247 322.155 86.6891 321.234 89.031C320.313 91.3729 318.796 93.4013 316.85 94.8926C314.904 96.3839 312.605 97.2801 310.206 97.4824V102.055C313.465 101.845 316.603 100.675 319.262 98.6781C321.92 96.6811 323.993 93.9374 325.243 90.7598C326.493 87.5822 326.871 84.0985 326.333 80.7057C325.795 77.313 324.364 74.1476 322.201 71.5704V71.5856Z" fill="#E0E0E0"/>
<path d="M177.877 75.2588H181.089C181.617 75.2588 182.123 75.4796 182.496 75.8727C182.869 76.2657 183.079 76.7988 183.079 77.3547V175.736H175.88V77.3547C175.88 77.0788 175.932 76.8056 176.033 76.5509C176.133 76.2961 176.28 76.0647 176.466 75.87C176.651 75.6753 176.871 75.521 177.114 75.4162C177.356 75.3113 177.615 75.2578 177.877 75.2588Z" fill="#E6E6E6"/>
<path d="M180.091 75.2588H178.109C177.519 75.2588 176.953 75.5051 176.536 75.9436C176.118 76.3822 175.882 76.9773 175.88 77.5985V175.736H177.863V77.5985C177.865 76.9773 178.1 76.3822 178.518 75.9436C178.936 75.5051 179.501 75.2588 180.091 75.2588Z" fill="#F0F0F0"/>
<path d="M185.169 169.251H173.84V249.707H185.169V169.251Z" fill="#EBEBEB"/>
<path d="M169.809 246.454H189.198C189.931 246.454 190.634 246.76 191.152 247.306C191.67 247.852 191.961 248.593 191.961 249.365V249.7H167.045V249.365C167.045 248.593 167.337 247.852 167.855 247.306C168.373 246.76 169.076 246.454 169.809 246.454Z" fill="#E6E6E6"/>
<path d="M286.792 209.964H305.059C306.634 209.962 308.143 209.302 309.257 208.129C310.37 206.956 310.997 205.365 310.998 203.707V175.569C310.998 175.266 310.884 174.975 310.681 174.761C310.477 174.547 310.201 174.426 309.913 174.426C309.625 174.426 309.349 174.547 309.146 174.761C308.942 174.975 308.828 175.266 308.828 175.569V203.707C308.828 204.76 308.431 205.77 307.724 206.514C307.017 207.259 306.058 207.677 305.059 207.677H286.792V209.964Z" fill="#E0E0E0"/>
<path d="M281.569 236.926V210.725L280.123 210.245C279.322 209.979 278.623 209.452 278.126 208.739C277.629 208.027 277.36 207.166 277.359 206.282H291.141C291.141 207.166 290.873 208.027 290.376 208.74C289.878 209.453 289.178 209.98 288.377 210.245L286.93 210.725V236.926L298.368 242.353V244.639L284.239 239.434L270.11 244.639V242.353L281.569 236.926Z" fill="#E0E0E0"/>
<path d="M266.233 207.677H302.269C302.783 207.677 303.292 207.571 303.767 207.364C304.241 207.156 304.673 206.853 305.036 206.47C305.4 206.087 305.688 205.632 305.885 205.132C306.081 204.632 306.183 204.096 306.183 203.554C306.181 202.462 305.768 201.415 305.034 200.644C304.3 199.872 303.306 199.439 302.269 199.439H266.233C265.197 199.439 264.204 199.873 263.471 200.644C262.738 201.416 262.327 202.463 262.327 203.554C262.326 204.095 262.426 204.631 262.622 205.132C262.818 205.632 263.105 206.086 263.468 206.469C263.831 206.852 264.262 207.156 264.737 207.363C265.211 207.571 265.72 207.677 266.233 207.677Z" fill="#F0F0F0"/>
<path d="M308.614 185.469L310.56 156.173C310.631 155.086 310.291 154.013 309.613 153.19C308.934 152.367 307.974 151.861 306.942 151.783C305.909 151.706 304.889 152.064 304.106 152.778C303.323 153.493 302.842 154.506 302.768 155.594L300.822 184.89C300.75 185.978 301.091 187.051 301.769 187.875C302.446 188.699 303.407 189.207 304.439 189.287C305.473 189.362 306.493 189.003 307.276 188.287C308.058 187.571 308.539 186.558 308.614 185.469Z" fill="#EBEBEB"/>
<path d="M295.894 246.247C295.894 246.763 296.039 247.267 296.311 247.696C296.583 248.124 296.969 248.458 297.421 248.655C297.874 248.853 298.371 248.904 298.851 248.804C299.331 248.703 299.772 248.455 300.118 248.09C300.464 247.726 300.699 247.262 300.795 246.756C300.89 246.25 300.841 245.726 300.654 245.25C300.467 244.774 300.15 244.367 299.743 244.08C299.336 243.794 298.858 243.641 298.368 243.641C298.043 243.641 297.722 243.708 297.421 243.839C297.121 243.97 296.848 244.162 296.619 244.404C296.389 244.646 296.207 244.934 296.082 245.25C295.958 245.566 295.894 245.905 295.894 246.247Z" fill="#E0E0E0"/>
<path d="M267.636 246.247C267.636 246.763 267.781 247.267 268.053 247.696C268.325 248.124 268.711 248.458 269.163 248.655C269.615 248.853 270.113 248.904 270.593 248.804C271.073 248.703 271.513 248.455 271.86 248.09C272.206 247.726 272.441 247.262 272.537 246.756C272.632 246.25 272.583 245.726 272.396 245.25C272.209 244.774 271.891 244.367 271.485 244.08C271.078 243.794 270.599 243.641 270.11 243.641C269.454 243.641 268.824 243.916 268.36 244.404C267.896 244.893 267.636 245.556 267.636 246.247Z" fill="#E0E0E0"/>
<path d="M72.6145 209.964H54.3472C52.7713 209.964 51.2598 209.305 50.1447 208.131C49.0297 206.958 48.4023 205.367 48.4004 203.707V175.569C48.4004 175.266 48.5147 174.975 48.7182 174.761C48.9217 174.547 49.1978 174.426 49.4856 174.426C49.7734 174.426 50.0494 174.547 50.2529 174.761C50.4564 174.975 50.5708 175.266 50.5708 175.569V203.707C50.5727 204.76 50.9714 205.77 51.6794 206.515C52.3874 207.259 53.3469 207.677 54.3472 207.677H72.6145V209.964Z" fill="#E0E0E0"/>
<path d="M77.8378 236.926V210.725L79.2847 210.245C80.0845 209.979 80.783 209.451 81.2787 208.738C81.7744 208.026 82.0415 207.165 82.0411 206.282H68.2953C68.2966 207.166 68.5651 208.027 69.062 208.739C69.5589 209.452 70.2584 209.979 71.059 210.245L72.5059 210.725V236.926L61.0391 242.353V244.639L75.1682 239.434L89.2973 244.639V242.353L77.8378 236.926Z" fill="#E0E0E0"/>
<path d="M93.183 207.677H57.1547C56.1179 207.675 55.1243 207.24 54.3918 206.467C53.6594 205.694 53.248 204.647 53.248 203.554C53.248 202.463 53.6596 201.416 54.3923 200.644C55.1249 199.873 56.1186 199.439 57.1547 199.439H93.183C94.2197 199.439 95.2142 199.872 95.9479 200.644C96.6817 201.415 97.0949 202.462 97.0969 203.554C97.0969 204.648 96.6845 205.697 95.9505 206.47C95.2165 207.243 94.221 207.677 93.183 207.677Z" fill="#F0F0F0"/>
<path d="M50.788 185.469L48.8419 156.173C48.7703 155.086 49.1109 154.013 49.789 153.19C50.4671 152.367 51.4274 151.861 52.4592 151.783C53.4924 151.706 54.5125 152.064 55.2953 152.778C56.0781 153.493 56.5594 154.506 56.6335 155.594L58.6014 184.897C58.673 185.985 58.3327 187.059 57.6547 187.883C56.9768 188.707 56.0165 189.215 54.9841 189.295C54.4698 189.335 53.953 189.268 53.4634 189.098C52.9738 188.927 52.521 188.656 52.1311 188.301C51.7412 187.945 51.4218 187.512 51.1913 187.026C50.9608 186.54 50.8237 186.011 50.788 185.469Z" fill="#EBEBEB"/>
<path d="M63.5051 246.247C63.5051 246.763 63.3598 247.268 63.0876 247.696C62.8154 248.125 62.4286 248.459 61.976 248.656C61.5235 248.853 61.0257 248.904 60.5455 248.803C60.0654 248.702 59.6245 248.453 59.2788 248.088C58.933 247.723 58.698 247.257 58.6033 246.751C58.5087 246.245 58.5587 245.721 58.7471 245.245C58.9354 244.769 59.2537 244.362 59.6615 244.077C60.0694 243.791 60.5484 243.64 61.0381 243.641C61.3627 243.641 61.6841 243.709 61.9839 243.84C62.2836 243.971 62.5559 244.163 62.7851 244.405C63.0143 244.647 63.1958 244.934 63.3194 245.251C63.4429 245.567 63.506 245.906 63.5051 246.247Z" fill="#E0E0E0"/>
<path d="M91.7614 246.247C91.7614 246.763 91.6161 247.268 91.344 247.696C91.0718 248.125 90.6849 248.459 90.2324 248.656C89.7799 248.853 89.282 248.904 88.8019 248.803C88.3217 248.702 87.8808 248.453 87.5351 248.088C87.1894 247.723 86.9543 247.257 86.8597 246.751C86.765 246.245 86.815 245.721 87.0034 245.245C87.1918 244.769 87.51 244.362 87.9179 244.077C88.3257 243.791 88.8048 243.64 89.2945 243.641C89.619 243.641 89.9404 243.709 90.2402 243.84C90.54 243.971 90.8123 244.163 91.0414 244.405C91.2706 244.647 91.4522 244.934 91.5757 245.251C91.6993 245.567 91.7624 245.906 91.7614 246.247Z" fill="#E0E0E0"/>
<path d="M150.249 249.707H136.141L134.694 221.524H151.696L150.249 249.707Z" fill="#EBEBEB"/>
<path d="M139.397 249.707H133.609V248.45L139.397 247.688V249.707Z" fill="#E0E0E0"/>
<path d="M136.84 219.239H149.544C150.12 219.239 150.672 219.479 151.079 219.908C151.486 220.337 151.715 220.918 151.715 221.525H134.685C134.685 220.918 134.913 220.337 135.32 219.908C135.727 219.479 136.279 219.239 136.855 219.239H136.84Z" fill="#E0E0E0"/>
<path d="M121.311 176.613H98.7246V173.762L121.311 172.238V176.613Z" fill="#E0E0E0"/>
<path d="M154.706 179.517H87.9087V189.257H154.706V179.517Z" fill="#F0F0F0"/>
<path d="M168.55 176.613H74.2974V182.42H168.55V176.613Z" fill="#FAFAFA"/>
<path d="M159.8 249.707H164.053L156.689 182.42H151.697L159.8 249.707Z" fill="#E6E6E6"/>
<path d="M91.1559 182.42H86.164L78.792 249.707H83.0532L91.1559 182.42Z" fill="#E6E6E6"/>
<path d="M144.178 175.165C142.249 165.074 140.319 154.979 138.39 144.878C138.115 143.438 136.017 144.048 136.292 145.488L141.798 174.327H129.861C129.573 174.327 129.297 174.447 129.093 174.661C128.89 174.876 128.775 175.167 128.775 175.47C128.775 175.773 128.89 176.064 129.093 176.278C129.297 176.492 129.573 176.613 129.861 176.613H143.122C143.289 176.612 143.453 176.57 143.603 176.492C143.753 176.413 143.883 176.3 143.985 176.16C144.087 176.021 144.157 175.859 144.191 175.686C144.224 175.514 144.22 175.335 144.178 175.165Z" fill="#E0E0E0"/>
<path d="M130.663 167.04L134.382 111.04C135.755 112.072 136.853 113.459 137.572 115.067C138.29 116.675 138.604 118.451 138.484 120.224L135.944 158.52C135.831 160.298 135.286 162.015 134.361 163.507C133.436 165 132.163 166.216 130.663 167.04Z" fill="#FAFAFA"/>
<path d="M159.639 160.334H153.591C152.432 160.334 151.493 161.324 151.493 162.545V174.403C151.493 175.624 152.432 176.613 153.591 176.613H159.639C160.798 176.613 161.737 175.624 161.737 174.403V162.545C161.737 161.324 160.798 160.334 159.639 160.334Z" fill="#F5F5F5"/>
<path d="M155.544 154.275C153.945 154.275 152.65 154.695 152.65 155.205C152.65 155.716 153.952 155.022 155.544 155.022C155.749 155.011 155.954 155.011 156.159 155.022V158.711H157.07V155.167C157.895 155.327 158.445 155.502 158.445 155.167C158.438 154.71 157.143 154.275 155.544 154.275Z" fill="#E0E0E0"/>
<path d="M158.248 157.552H154.985V160.989H158.248V157.552Z" fill="#F0F0F0"/>
<path d="M204.702 189.264H271.499V179.524H204.702V189.264Z" fill="#F0F0F0"/>
<path d="M190.856 182.428H285.108V176.621H190.856V182.428Z" fill="#FAFAFA"/>
<path d="M199.608 249.707H195.347L202.712 182.42H207.704L199.608 249.707Z" fill="#E6E6E6"/>
<path d="M268.252 182.42H273.244L280.609 249.707H276.347L268.252 182.42Z" fill="#E6E6E6"/>
<path d="M252.218 176.613H274.797V173.762L252.218 172.238V176.613Z" fill="#263238"/>
<path opacity="0.6" d="M252.218 176.613H274.797V173.762L252.218 172.238V176.613Z" fill="white"/>
<path d="M206.793 125.498V176.613H209.933L210.656 172.079C210.788 171.276 211.184 170.548 211.776 170.023C212.368 169.499 213.117 169.212 213.89 169.213H243.082C243.855 169.212 244.604 169.499 245.196 170.023C245.787 170.548 246.184 171.276 246.315 172.079L247.039 176.613H250.172V125.498H206.793Z" fill="#FAFAFA"/>
<path d="M220.835 175.165C222.764 165.074 224.694 154.979 226.623 144.878C226.898 143.438 228.989 144.048 228.714 145.488L223.201 174.327H235.124C235.411 174.327 235.687 174.447 235.891 174.661C236.094 174.876 236.209 175.167 236.209 175.47C236.209 175.773 236.094 176.064 235.891 176.278C235.687 176.492 235.411 176.613 235.124 176.613H221.877C221.711 176.609 221.548 176.566 221.4 176.487C221.253 176.407 221.124 176.294 221.024 176.154C220.923 176.015 220.854 175.854 220.822 175.682C220.789 175.511 220.794 175.334 220.835 175.165Z" fill="#E0E0E0"/>
<path d="M234.346 167.04L230.628 111.04C229.256 112.074 228.159 113.461 227.441 115.069C226.722 116.676 226.407 118.451 226.526 120.224L229.065 158.52C229.18 160.298 229.725 162.014 230.65 163.506C231.575 164.998 232.848 166.215 234.346 167.04Z" fill="#E0E0E0"/>
<path d="M177.602 15.1283H173.24V39.1197L177.602 39.1044V15.1283Z" fill="#EBEBEB"/>
<path d="M164.739 20.1052V39.0895C164.899 39.1202 165.061 39.1355 165.224 39.1352H169.102V20.0823L164.739 20.1052Z" fill="#E6E6E6"/>
<path d="M190.894 12.6356V39.081H194.786C194.944 39.0778 195.101 39.0625 195.257 39.0353V12.6356H190.894Z" fill="#F0F0F0"/>
<path d="M186.536 24.9972H182.174V39.0964L186.536 39.0888V24.9972Z" fill="#E0E0E0"/>
<path d="M51.9604 65.2599V83.4669L58.3703 100.378C61.9347 98.6674 64.8498 95.744 66.6469 92.0776C68.4441 88.4113 69.0191 84.2149 68.2795 80.1628C67.5399 76.1107 65.5287 72.4382 62.569 69.7354C59.6093 67.0325 55.873 65.4563 51.9604 65.2599Z" fill="#E0E0E0"/>
<path d="M50.4471 83.2382V65.2599C46.101 65.4772 42.001 67.4483 38.9972 70.7644C35.9935 74.0804 34.3165 78.4871 34.314 83.0706C34.314 83.2941 34.314 83.5151 34.314 83.7336C34.314 83.9623 34.314 84.1833 34.314 84.4119C34.3117 87.2556 34.9553 90.0587 36.191 92.587C37.4267 95.1153 39.2187 97.2955 41.4173 98.9455C43.616 100.596 46.1574 101.667 48.8295 102.072C51.5016 102.476 54.2267 102.201 56.7774 101.27L50.4471 83.2382Z" fill="#F0F0F0"/>
<path d="M177.376 281C254.846 281 317.648 277.138 317.648 272.373C317.648 267.608 254.846 263.746 177.376 263.746C99.9066 263.746 37.105 267.608 37.105 272.373C37.105 277.138 99.9066 281 177.376 281Z" fill="#F5F5F5"/>
<path d="M162.548 268.356L176.091 254.089L189.634 268.356C189.984 268.722 190.457 268.928 190.951 268.927C191.319 268.928 191.679 268.814 191.986 268.599C192.292 268.383 192.531 268.077 192.672 267.719C192.813 267.36 192.85 266.966 192.778 266.585C192.706 266.205 192.528 265.856 192.267 265.582L176.091 248.541L159.885 265.582C159.625 265.856 159.447 266.205 159.375 266.585C159.303 266.966 159.34 267.36 159.481 267.719C159.622 268.077 159.861 268.383 160.167 268.599C160.474 268.814 160.834 268.928 161.202 268.927C161.451 268.931 161.699 268.883 161.93 268.785C162.161 268.687 162.371 268.541 162.548 268.356Z" fill="#7944FC"/>
<path opacity="0.2" d="M176.544 249.029H175.633L171.48 253.396V258.738H171.675L176.088 254.089L180.502 258.738H180.697V253.396L176.544 249.029Z" fill="black"/>
<path d="M173.318 204.529H178.86V266.641C178.86 267.247 178.631 267.829 178.224 268.258C177.817 268.687 177.265 268.927 176.69 268.927H175.489C174.913 268.927 174.361 268.687 173.954 268.258C173.547 267.829 173.318 267.247 173.318 266.641V204.529Z" fill="#7944FC"/>
<path opacity="0.2" d="M178.86 204.529H173.318V227.415H178.86V204.529Z" fill="black"/>
<path d="M274.727 219.208H77.4544C75.5068 219.203 73.6402 218.386 72.2637 216.935C70.8873 215.483 70.1132 213.516 70.1113 211.464V50.2463H282.085V211.464C282.083 213.519 281.307 215.488 279.927 216.94C278.548 218.392 276.677 219.208 274.727 219.208ZM72.5928 52.8604V211.464C72.5928 212.823 73.1048 214.127 74.0163 215.089C74.9278 216.05 76.1644 216.591 77.4544 216.593H274.727C276.017 216.591 277.254 216.05 278.165 215.089C279.077 214.127 279.589 212.823 279.589 211.464V52.8604H72.5928Z" fill="#7944FC"/>
<g opacity="0.8">
<path d="M274.722 219.207H77.4495C75.502 219.203 73.6353 218.385 72.2589 216.934C70.8824 215.483 70.1084 213.515 70.1064 211.464V50.2456H282.08V211.464C282.078 213.518 281.302 215.488 279.922 216.939C278.543 218.391 276.672 219.207 274.722 219.207ZM72.5879 52.8597V211.464C72.5879 212.823 73.0999 214.126 74.0114 215.088C74.9229 216.05 76.1595 216.591 77.4495 216.593H274.722C276.012 216.591 277.249 216.05 278.16 215.088C279.072 214.126 279.584 212.823 279.584 211.464V52.8597H72.5879Z" fill="white"/>
</g>
<path d="M72.5913 52.8595V211.464C72.5913 212.823 73.1033 214.126 74.0148 215.088C74.9263 216.049 76.1629 216.591 77.453 216.593H274.726C276.016 216.591 277.252 216.049 278.164 215.088C279.075 214.126 279.587 212.823 279.587 211.464V52.8595H72.5913Z" fill="white"/>
<path d="M286.859 48.615H65.3213V54.4985H286.859V48.615Z" fill="#7944FC"/>
<path opacity="0.5" d="M286.859 48.615H65.3213V51.5567H286.859V48.615Z" fill="white"/>
<path d="M92.272 188.471C92.272 188.471 215.73 186.048 253.755 72.706L252.446 188.731L92.272 188.471Z" fill="#7944FC"/>
<g opacity="0.7">
<path d="M92.2729 188.471C92.2729 188.471 215.731 186.047 253.756 72.7055L252.447 188.73L92.2729 188.471Z" fill="white"/>
</g>
<path d="M93.2257 189.126C93.0338 189.131 92.8479 189.056 92.7088 188.917C92.5697 188.777 92.4889 188.585 92.4841 188.383C92.4793 188.181 92.5509 187.985 92.6832 187.839C92.8155 187.692 92.9976 187.607 93.1895 187.602C99.1797 187.305 130.744 185.026 164.732 169.418C208.14 149.466 237.744 116.832 252.647 72.4005C252.721 72.2267 252.855 72.0887 253.022 72.0136C253.188 71.9386 253.375 71.932 253.546 71.9952C253.717 72.0583 253.859 72.1867 253.944 72.3548C254.03 72.523 254.052 72.7188 254.007 72.9035C245.796 97.4055 232.904 118.63 215.664 136.03C201.643 150.197 184.693 161.896 165.282 170.813C131.063 186.535 99.2593 188.829 93.2329 189.103L93.2257 189.126Z" fill="#7944FC"/>
<path d="M99.6634 196.26C99.4715 196.26 99.2875 196.179 99.1518 196.036C99.0162 195.894 98.9399 195.7 98.9399 195.498V189.164C98.9399 188.962 99.0162 188.768 99.1518 188.626C99.2875 188.483 99.4715 188.402 99.6634 188.402C99.8553 188.402 100.039 188.483 100.175 188.626C100.311 188.768 100.387 188.962 100.387 189.164V195.498C100.387 195.7 100.311 195.894 100.175 196.036C100.039 196.179 99.8553 196.26 99.6634 196.26Z" fill="#7944FC"/>
<path d="M124.776 196.29C124.584 196.29 124.4 196.21 124.264 196.067C124.128 195.924 124.052 195.73 124.052 195.528V189.195C124.052 188.993 124.128 188.799 124.264 188.656C124.4 188.513 124.584 188.433 124.776 188.433C124.968 188.433 125.152 188.513 125.287 188.656C125.423 188.799 125.499 188.993 125.499 189.195V195.528C125.499 195.73 125.423 195.924 125.287 196.067C125.152 196.21 124.968 196.29 124.776 196.29Z" fill="#7944FC"/>
<path d="M149.885 196.313C149.693 196.313 149.509 196.233 149.373 196.09C149.237 195.947 149.161 195.753 149.161 195.551V189.218C149.161 189.015 149.237 188.822 149.373 188.679C149.509 188.536 149.693 188.456 149.885 188.456C150.076 188.456 150.26 188.536 150.396 188.679C150.532 188.822 150.608 189.015 150.608 189.218V195.551C150.608 195.753 150.532 195.947 150.396 196.09C150.26 196.233 150.076 196.313 149.885 196.313Z" fill="#7944FC"/>
<path d="M174.995 196.336C174.803 196.336 174.619 196.256 174.483 196.113C174.348 195.97 174.271 195.776 174.271 195.574V189.241C174.271 189.039 174.348 188.845 174.483 188.702C174.619 188.559 174.803 188.479 174.995 188.479C175.187 188.479 175.371 188.559 175.507 188.702C175.642 188.845 175.718 189.039 175.718 189.241V195.574C175.718 195.776 175.642 195.97 175.507 196.113C175.371 196.256 175.187 196.336 174.995 196.336Z" fill="#7944FC"/>
<path d="M200.109 196.359C199.917 196.359 199.733 196.279 199.598 196.136C199.462 195.993 199.386 195.799 199.386 195.597V189.271C199.386 189.069 199.462 188.875 199.598 188.732C199.733 188.59 199.917 188.509 200.109 188.509C200.301 188.509 200.485 188.59 200.621 188.732C200.756 188.875 200.833 189.069 200.833 189.271V195.597C200.833 195.799 200.756 195.993 200.621 196.136C200.485 196.279 200.301 196.359 200.109 196.359Z" fill="#7944FC"/>
<path d="M225.214 196.39C225.022 196.39 224.838 196.31 224.702 196.167C224.566 196.024 224.49 195.83 224.49 195.628V189.295C224.49 189.093 224.566 188.899 224.702 188.756C224.838 188.613 225.022 188.533 225.214 188.533C225.406 188.533 225.59 188.613 225.725 188.756C225.861 188.899 225.937 189.093 225.937 189.295V195.628C225.937 195.83 225.861 196.024 225.725 196.167C225.59 196.31 225.406 196.39 225.214 196.39Z" fill="#7944FC"/>
<path d="M250.318 196.413C250.126 196.413 249.942 196.332 249.807 196.189C249.671 196.046 249.595 195.853 249.595 195.65V189.317C249.595 189.115 249.671 188.921 249.807 188.778C249.942 188.635 250.126 188.555 250.318 188.555C250.51 188.555 250.694 188.635 250.83 188.778C250.965 188.921 251.042 189.115 251.042 189.317V195.65C251.042 195.853 250.965 196.046 250.83 196.189C250.694 196.332 250.51 196.413 250.318 196.413Z" fill="#7944FC"/>
<path d="M92.6018 79.7545H89.3607C89.1688 79.7545 88.9848 79.6742 88.8491 79.5313C88.7134 79.3884 88.6372 79.1945 88.6372 78.9924C88.6372 78.7903 88.7134 78.5964 88.8491 78.4535C88.9848 78.3106 89.1688 78.2303 89.3607 78.2303H92.6018C92.7936 78.2303 92.9776 78.3106 93.1133 78.4535C93.249 78.5964 93.3252 78.7903 93.3252 78.9924C93.3252 79.1945 93.249 79.3884 93.1133 79.5313C92.9776 79.6742 92.7936 79.7545 92.6018 79.7545Z" fill="#7944FC"/>
<path d="M92.6018 96.3461H89.3607C89.1688 96.3461 88.9848 96.2658 88.8491 96.1229C88.7134 95.98 88.6372 95.7861 88.6372 95.584C88.6372 95.3819 88.7134 95.188 88.8491 95.0451C88.9848 94.9022 89.1688 94.8219 89.3607 94.8219H92.6018C92.7936 94.8219 92.9776 94.9022 93.1133 95.0451C93.249 95.188 93.3252 95.3819 93.3252 95.584C93.3252 95.7861 93.249 95.98 93.1133 96.1229C92.9776 96.2658 92.7936 96.3461 92.6018 96.3461Z" fill="#7944FC"/>
<path d="M92.6018 112.945H89.3607C89.1688 112.945 88.9848 112.865 88.8491 112.722C88.7134 112.579 88.6372 112.385 88.6372 112.183C88.6372 111.981 88.7134 111.787 88.8491 111.644C88.9848 111.501 89.1688 111.421 89.3607 111.421H92.6018C92.7936 111.421 92.9776 111.501 93.1133 111.644C93.249 111.787 93.3252 111.981 93.3252 112.183C93.3252 112.385 93.249 112.579 93.1133 112.722C92.9776 112.865 92.7936 112.945 92.6018 112.945Z" fill="#7944FC"/>
<path d="M92.6018 129.559H89.3607C89.1688 129.559 88.9848 129.479 88.8491 129.336C88.7134 129.193 88.6372 128.999 88.6372 128.797C88.6372 128.595 88.7134 128.401 88.8491 128.258C88.9848 128.115 89.1688 128.035 89.3607 128.035H92.6018C92.7936 128.035 92.9776 128.115 93.1133 128.258C93.249 128.401 93.3252 128.595 93.3252 128.797C93.3252 128.999 93.249 129.193 93.1133 129.336C92.9776 129.479 92.7936 129.559 92.6018 129.559Z" fill="#7944FC"/>
<path d="M92.6018 146.135H89.3607C89.1688 146.135 88.9848 146.055 88.8491 145.912C88.7134 145.769 88.6372 145.575 88.6372 145.373C88.6372 145.171 88.7134 144.977 88.8491 144.834C88.9848 144.691 89.1688 144.611 89.3607 144.611H92.6018C92.7936 144.611 92.9776 144.691 93.1133 144.834C93.249 144.977 93.3252 145.171 93.3252 145.373C93.3252 145.575 93.249 145.769 93.1133 145.912C92.9776 146.055 92.7936 146.135 92.6018 146.135Z" fill="#7944FC"/>
<path d="M92.6018 162.734H89.3607C89.1688 162.734 88.9848 162.654 88.8491 162.511C88.7134 162.368 88.6372 162.174 88.6372 161.972C88.6372 161.77 88.7134 161.576 88.8491 161.433C88.9848 161.29 89.1688 161.21 89.3607 161.21H92.6018C92.7936 161.21 92.9776 161.29 93.1133 161.433C93.249 161.576 93.3252 161.77 93.3252 161.972C93.3252 162.174 93.249 162.368 93.1133 162.511C92.9776 162.654 92.7936 162.734 92.6018 162.734Z" fill="#7944FC"/>
<path d="M92.6018 179.326H89.3607C89.1688 179.326 88.9848 179.245 88.8491 179.102C88.7134 178.959 88.6372 178.766 88.6372 178.563C88.6372 178.361 88.7134 178.168 88.8491 178.025C88.9848 177.882 89.1688 177.801 89.3607 177.801H92.6018C92.7936 177.801 92.9776 177.882 93.1133 178.025C93.249 178.168 93.3252 178.361 93.3252 178.563C93.3252 178.766 93.249 178.959 93.1133 179.102C92.9776 179.245 92.7936 179.326 92.6018 179.326Z" fill="#7944FC"/>
<path d="M258.565 189.927H93.2254C93.0335 189.927 92.8495 189.846 92.7138 189.703C92.5782 189.561 92.502 189.367 92.502 189.165V72.4388C92.502 72.2367 92.5782 72.0428 92.7138 71.8999C92.8495 71.757 93.0335 71.6767 93.2254 71.6767C93.4173 71.6767 93.6013 71.757 93.737 71.8999C93.8726 72.0428 93.9489 72.2367 93.9489 72.4388V188.402H258.565C258.756 188.402 258.94 188.483 259.076 188.626C259.212 188.769 259.288 188.962 259.288 189.165C259.288 189.367 259.212 189.561 259.076 189.703C258.94 189.846 258.756 189.927 258.565 189.927Z" fill="#7944FC"/>
<path d="M165.113 95.1954H131.646V97.6495H165.113V95.1954Z" fill="#7944FC"/>
<path d="M165.113 101.102H126.039V103.556H165.113V101.102Z" fill="#7944FC"/>
<path d="M165.113 106.856H126.039V109.31H165.113V106.856Z" fill="#7944FC"/>
<path d="M156.482 112.61H126.039V115.064H156.482V112.61Z" fill="#7944FC"/>
<path d="M287.438 204.194C287.438 204.194 292.704 216.144 293.03 241.842H296.611C296.611 241.842 293.645 203.111 286.83 200.337C283.191 198.912 287.438 204.194 287.438 204.194Z" fill="#7944FC"/>
<g opacity="0.1">
<path d="M287.436 204.194C287.436 204.194 292.703 216.144 293.029 241.842H296.61C296.61 241.842 293.643 203.111 286.829 200.337C283.19 198.912 287.436 204.194 287.436 204.194Z" fill="black"/>
</g>
<path d="M285.339 200.36C286.063 198.074 286.432 198.112 287.727 196.61C285.802 196.275 283.465 195.246 280.318 196.565C277.555 197.937 276.52 201.137 277.056 204.262C277.078 204.376 277.077 204.493 277.052 204.607C277.027 204.72 276.979 204.826 276.911 204.918C276.834 205.018 276.736 205.097 276.624 205.15C276.512 205.202 276.391 205.226 276.269 205.219C276.146 205.213 276.028 205.176 275.922 205.111C275.816 205.047 275.726 204.957 275.659 204.849C275.055 203.816 274.708 202.639 274.648 201.427C274.589 200.215 274.82 199.007 275.319 197.914C272.852 198.737 270.009 200.093 268.49 202.303C266.826 204.719 267.383 210.412 269.329 212.79C269.41 212.892 269.454 213.02 269.454 213.152C269.454 213.285 269.41 213.413 269.329 213.514C269.284 213.578 269.227 213.631 269.161 213.67C269.095 213.709 269.023 213.733 268.947 213.74C268.872 213.747 268.796 213.738 268.725 213.712C268.654 213.686 268.588 213.645 268.533 213.59C267.55 212.789 266.747 211.769 266.182 210.603C265.589 209.246 265.321 207.646 266.081 206.388C262.941 206.891 260.293 213.888 260.611 213.811C261.053 216.288 263.172 218.544 264.229 219.543C264.41 219.715 264.53 219.947 264.567 220.202C264.604 220.456 264.556 220.716 264.431 220.937C264.353 221.075 264.248 221.194 264.122 221.286C263.997 221.377 263.854 221.439 263.704 221.468C263.553 221.496 263.399 221.49 263.251 221.449C263.103 221.409 262.965 221.336 262.847 221.234C261.718 220.267 260.011 218.62 259.533 217.218C258.492 217.98 258.528 219.847 258.55 221.189C258.607 225.472 261.668 228.574 264.077 231.714C267.197 232.919 270.574 233.183 273.829 232.476C276.194 231.89 278.253 230.364 279.573 228.215V228.162C277.359 227.651 274.914 226.988 272.657 226.447C272.447 226.399 272.262 226.27 272.139 226.085C272.016 225.9 271.963 225.673 271.991 225.449C272.025 225.218 272.143 225.009 272.32 224.867C272.496 224.725 272.718 224.66 272.939 224.687C275.913 225.06 278.22 225.769 281.273 226.104C282.923 224.58 285.571 218.895 285.086 219.047C282.474 218.88 278.04 219.2 275.573 218.056C275.402 217.969 275.271 217.815 275.207 217.627C275.144 217.439 275.153 217.232 275.232 217.05C275.303 216.918 275.41 216.811 275.539 216.743C275.668 216.676 275.813 216.65 275.956 216.669C279.294 217.365 282.721 217.443 286.084 216.898C288.074 214.055 289.506 211.86 289.738 209.742L281.859 208.98C281.692 208.969 281.535 208.894 281.418 208.768C281.301 208.642 281.233 208.475 281.227 208.299C281.22 208.123 281.276 207.951 281.384 207.816C281.492 207.681 281.643 207.593 281.809 207.57H281.852C285.064 207.173 288.834 208.385 291.409 206.457C291.409 206.457 294.817 202.974 293.673 200.939C290.989 202.502 285.043 201.389 285.339 200.36Z" fill="#7944FC"/>
<path d="M298.68 205.268C296.311 209.693 294.559 214.454 293.478 219.406C289.861 236.561 289.955 241.621 289.955 241.621L286.931 241.728C286.931 241.728 292.82 208.881 297.675 204.262C302.529 199.644 298.68 205.268 298.68 205.268Z" fill="#7944FC"/>
<path opacity="0.4" d="M298.68 205.268C296.311 209.693 294.559 214.454 293.478 219.406C289.861 236.561 289.955 241.621 289.955 241.621L286.931 241.728C286.931 241.728 292.82 208.881 297.675 204.262C302.529 199.644 298.68 205.268 298.68 205.268Z" fill="black"/>
<path d="M299.808 201.678C298.716 200.771 298.535 200.916 297.377 200.558C298.318 199.796 299.273 198.592 301.378 198.272C302.256 198.207 303.13 198.445 303.869 198.949C304.608 199.454 305.17 200.198 305.473 201.069C305.499 201.132 305.538 201.19 305.587 201.237C305.635 201.284 305.692 201.32 305.755 201.343C305.823 201.372 305.897 201.383 305.97 201.377C306.043 201.371 306.114 201.347 306.177 201.307C306.24 201.267 306.294 201.212 306.333 201.147C306.373 201.082 306.398 201.008 306.406 200.931C306.411 200.22 306.237 199.52 305.901 198.903C305.566 198.286 305.081 197.774 304.496 197.418C306.08 197.075 308.034 196.877 309.56 197.494C311.195 198.18 312.613 201.145 312.281 202.913C312.266 202.988 312.279 203.067 312.317 203.133C312.354 203.199 312.413 203.248 312.483 203.271C312.569 203.306 312.666 203.305 312.751 203.266C312.836 203.228 312.903 203.156 312.939 203.065C313.231 202.379 313.361 201.628 313.315 200.878C313.302 200.446 313.182 200.025 312.968 199.656C312.754 199.287 312.452 198.983 312.092 198.775C313.944 198.073 317.504 200.703 317.301 200.764C317.815 202.12 317.345 203.873 317.07 204.681C317.021 204.827 317.027 204.987 317.086 205.128C317.145 205.27 317.253 205.382 317.388 205.443C317.47 205.489 317.56 205.517 317.653 205.526C317.746 205.534 317.839 205.522 317.927 205.49C318.016 205.459 318.097 205.409 318.166 205.343C318.235 205.277 318.29 205.197 318.329 205.108C318.755 204.181 318.956 203.157 318.915 202.128C319.71 202.189 320.253 203.111 320.651 203.774C321.91 205.9 321.194 208.347 320.839 210.633C319.464 212.2 317.715 213.35 315.775 213.964C314.312 214.391 312.754 214.267 311.369 213.613C312.411 212.691 313.539 211.616 314.603 210.664C314.651 210.622 314.69 210.572 314.719 210.514C314.747 210.456 314.765 210.393 314.769 210.328C314.774 210.263 314.766 210.198 314.746 210.137C314.726 210.075 314.695 210.018 314.653 209.97C314.561 209.87 314.439 209.806 314.307 209.789C314.175 209.773 314.042 209.804 313.93 209.879C312.432 210.968 311.398 212.02 309.842 213.11C308.475 212.858 305.328 210.877 305.639 210.824C307.006 209.947 309.502 208.758 310.501 207.44C310.535 207.394 310.558 207.341 310.571 207.284C310.583 207.228 310.583 207.169 310.571 207.112C310.56 207.056 310.536 207.002 310.503 206.956C310.469 206.91 310.427 206.872 310.378 206.845C310.299 206.796 310.207 206.774 310.115 206.781C310.024 206.788 309.936 206.823 309.864 206.883C308.235 208.257 306.401 209.339 304.438 210.084C302.499 209.322 301.06 208.644 300.293 207.676L304.322 204.887C304.367 204.859 304.405 204.823 304.436 204.78C304.467 204.736 304.489 204.687 304.502 204.635C304.515 204.582 304.518 204.528 304.51 204.474C304.503 204.421 304.486 204.369 304.46 204.323C304.434 204.276 304.399 204.236 304.358 204.203C304.317 204.171 304.27 204.147 304.221 204.134C304.171 204.12 304.119 204.117 304.068 204.125C304.018 204.132 303.969 204.15 303.925 204.178C302.058 204.94 300.38 206.708 298.405 206.541C298.405 206.541 295.511 205.87 295.511 204.521C297.392 204.452 300.293 202.082 299.808 201.678Z" fill="#7944FC"/>
<path opacity="0.2" d="M299.808 201.678C298.716 200.771 298.535 200.916 297.377 200.558C298.318 199.796 299.273 198.592 301.378 198.272C302.256 198.207 303.13 198.445 303.869 198.949C304.608 199.454 305.17 200.198 305.473 201.069C305.499 201.132 305.538 201.19 305.587 201.237C305.635 201.284 305.692 201.32 305.755 201.343C305.823 201.372 305.897 201.383 305.97 201.377C306.043 201.371 306.114 201.347 306.177 201.307C306.24 201.267 306.294 201.212 306.333 201.147C306.373 201.082 306.398 201.008 306.406 200.931C306.411 200.22 306.237 199.52 305.901 198.903C305.566 198.286 305.081 197.774 304.496 197.418C306.08 197.075 308.034 196.877 309.56 197.494C311.195 198.18 312.613 201.145 312.281 202.913C312.266 202.988 312.279 203.067 312.317 203.133C312.354 203.199 312.413 203.248 312.483 203.271C312.569 203.306 312.666 203.305 312.751 203.266C312.836 203.228 312.903 203.156 312.939 203.065C313.231 202.379 313.361 201.628 313.315 200.878C313.302 200.446 313.182 200.025 312.968 199.656C312.754 199.287 312.452 198.983 312.092 198.775C313.944 198.073 317.504 200.703 317.301 200.764C317.815 202.12 317.345 203.873 317.07 204.681C317.021 204.827 317.027 204.987 317.086 205.128C317.145 205.27 317.253 205.382 317.388 205.443C317.47 205.489 317.56 205.517 317.653 205.526C317.746 205.534 317.839 205.522 317.927 205.49C318.016 205.459 318.097 205.409 318.166 205.343C318.235 205.277 318.29 205.197 318.329 205.108C318.755 204.181 318.956 203.157 318.915 202.128C319.71 202.189 320.253 203.111 320.651 203.774C321.91 205.9 321.194 208.347 320.839 210.633C319.464 212.2 317.715 213.35 315.775 213.964C314.312 214.391 312.754 214.267 311.369 213.613C312.411 212.691 313.539 211.616 314.603 210.664C314.651 210.622 314.69 210.572 314.719 210.514C314.747 210.456 314.765 210.393 314.769 210.328C314.774 210.263 314.766 210.198 314.746 210.137C314.726 210.075 314.695 210.018 314.653 209.97C314.561 209.87 314.439 209.806 314.307 209.789C314.175 209.773 314.042 209.804 313.93 209.879C312.432 210.968 311.398 212.02 309.842 213.11C308.475 212.858 305.328 210.877 305.639 210.824C307.006 209.947 309.502 208.758 310.501 207.44C310.535 207.394 310.558 207.341 310.571 207.284C310.583 207.228 310.583 207.169 310.571 207.112C310.56 207.056 310.536 207.002 310.503 206.956C310.469 206.91 310.427 206.872 310.378 206.845C310.299 206.796 310.207 206.774 310.115 206.781C310.024 206.788 309.936 206.823 309.864 206.883C308.235 208.257 306.401 209.339 304.438 210.084C302.499 209.322 301.06 208.644 300.293 207.676L304.322 204.887C304.367 204.859 304.405 204.823 304.436 204.78C304.467 204.736 304.489 204.687 304.502 204.635C304.515 204.582 304.518 204.528 304.51 204.474C304.503 204.421 304.486 204.369 304.46 204.323C304.434 204.276 304.399 204.236 304.358 204.203C304.317 204.171 304.27 204.147 304.221 204.134C304.171 204.12 304.119 204.117 304.068 204.125C304.018 204.132 303.969 204.15 303.925 204.178C302.058 204.94 300.38 206.708 298.405 206.541C298.405 206.541 295.511 205.87 295.511 204.521C297.392 204.452 300.293 202.082 299.808 201.678Z" fill="white"/>
<path d="M296.083 211.045C296.083 211.045 290.179 220.107 288.588 228.635C286.996 237.163 286.866 240.829 286.866 240.829L283.285 240.867C283.285 240.867 289.622 214.955 295.07 209.833C300.517 204.712 296.083 211.045 296.083 211.045Z" fill="#7944FC"/>
<path opacity="0.2" d="M296.083 211.045C296.083 211.045 290.179 220.107 288.588 228.635C286.996 237.163 286.866 240.829 286.866 240.829L283.285 240.867C283.285 240.867 289.622 214.955 295.07 209.833C300.517 204.712 296.083 211.045 296.083 211.045Z" fill="black"/>
<path d="M296.315 210.245C295.953 208.278 295.649 208.278 294.745 206.899C296.351 206.846 298.362 206.266 300.815 207.707C302.934 209.147 303.455 211.868 302.688 214.383C302.66 214.475 302.65 214.572 302.66 214.668C302.67 214.764 302.699 214.856 302.746 214.939C302.799 215.029 302.871 215.105 302.957 215.161C303.042 215.216 303.139 215.249 303.24 215.257C303.34 215.265 303.44 215.248 303.533 215.208C303.626 215.167 303.708 215.104 303.773 215.023C304.374 214.247 304.779 213.325 304.952 212.341C305.126 211.356 305.061 210.342 304.765 209.391C306.696 210.351 308.888 211.776 309.901 213.758C311.015 215.93 309.974 220.526 308.136 222.248C308.058 222.319 308.005 222.416 307.988 222.523C307.971 222.631 307.99 222.741 308.042 222.835C308.072 222.891 308.113 222.94 308.162 222.979C308.212 223.017 308.268 223.045 308.327 223.06C308.387 223.075 308.449 223.077 308.509 223.066C308.57 223.055 308.627 223.03 308.679 222.995C309.567 222.451 310.331 221.707 310.914 220.815C311.264 220.333 311.495 219.766 311.586 219.166C311.677 218.566 311.625 217.952 311.435 217.378C313.945 218.14 315.407 224.176 315.146 224.077C314.524 226.051 312.563 227.659 311.587 228.352C311.42 228.473 311.299 228.651 311.244 228.855C311.188 229.06 311.202 229.278 311.283 229.473C311.333 229.595 311.407 229.704 311.5 229.793C311.594 229.882 311.705 229.949 311.825 229.988C311.945 230.028 312.072 230.04 312.197 230.023C312.322 230.007 312.442 229.962 312.549 229.892C313.569 229.229 315.139 228.078 315.674 226.981C316.448 227.743 316.224 229.267 316.072 230.342C315.58 233.84 312.759 236.035 310.465 238.329C307.787 238.955 304.994 238.778 302.406 237.818C300.531 237.072 299.003 235.588 298.145 233.68V233.626C300.011 233.459 302.081 233.207 303.983 233.017C304.161 232.996 304.325 232.907 304.444 232.766C304.563 232.625 304.628 232.443 304.627 232.255C304.627 232.052 304.551 231.859 304.415 231.716C304.28 231.573 304.096 231.492 303.904 231.492C301.429 231.454 299.469 231.774 296.937 231.698C295.743 230.243 294.159 225.304 294.535 225.479C296.705 225.647 300.323 226.417 302.428 225.761C302.501 225.738 302.568 225.699 302.627 225.648C302.685 225.597 302.734 225.535 302.769 225.464C302.805 225.393 302.827 225.316 302.834 225.236C302.841 225.156 302.834 225.076 302.811 224.999C302.771 224.878 302.694 224.773 302.592 224.702C302.49 224.63 302.369 224.596 302.247 224.603C299.441 224.789 296.627 224.462 293.927 223.635C292.589 221.082 291.641 219.123 291.67 217.355L298.181 217.607C298.314 217.608 298.442 217.559 298.543 217.469C298.645 217.379 298.713 217.254 298.734 217.116C298.756 216.979 298.731 216.837 298.662 216.718C298.594 216.598 298.488 216.508 298.362 216.463C295.772 215.762 292.574 216.334 290.657 214.451C290.657 214.451 288.219 211.22 289.369 209.681C291.467 211.35 296.481 211.106 296.315 210.245Z" fill="#7944FC"/>
<path opacity="0.1" d="M296.315 210.245C295.953 208.278 295.649 208.278 294.745 206.899C296.351 206.846 298.362 206.266 300.815 207.707C302.934 209.147 303.455 211.868 302.688 214.383C302.66 214.475 302.65 214.572 302.66 214.668C302.67 214.764 302.699 214.856 302.746 214.939C302.799 215.029 302.871 215.105 302.957 215.161C303.042 215.216 303.139 215.249 303.24 215.257C303.34 215.265 303.44 215.248 303.533 215.208C303.626 215.167 303.708 215.104 303.773 215.023C304.374 214.247 304.779 213.325 304.952 212.341C305.126 211.356 305.061 210.342 304.765 209.391C306.696 210.351 308.888 211.776 309.901 213.758C311.015 215.93 309.974 220.526 308.136 222.248C308.058 222.319 308.005 222.416 307.988 222.523C307.971 222.631 307.99 222.741 308.042 222.835C308.072 222.891 308.113 222.94 308.162 222.979C308.212 223.017 308.268 223.045 308.327 223.06C308.387 223.075 308.449 223.077 308.509 223.066C308.57 223.055 308.627 223.03 308.679 222.995C309.567 222.451 310.331 221.707 310.914 220.815C311.264 220.333 311.495 219.766 311.586 219.166C311.677 218.566 311.625 217.952 311.435 217.378C313.945 218.14 315.407 224.176 315.146 224.077C314.524 226.051 312.563 227.659 311.587 228.352C311.42 228.473 311.299 228.651 311.244 228.855C311.188 229.06 311.202 229.278 311.283 229.473C311.333 229.595 311.407 229.704 311.5 229.793C311.594 229.882 311.705 229.949 311.825 229.988C311.945 230.028 312.072 230.04 312.197 230.023C312.322 230.007 312.442 229.962 312.549 229.892C313.569 229.229 315.139 228.078 315.674 226.981C316.448 227.743 316.224 229.267 316.072 230.342C315.58 233.84 312.759 236.035 310.465 238.329C307.787 238.955 304.994 238.778 302.406 237.818C300.531 237.072 299.003 235.588 298.145 233.68V233.626C300.011 233.459 302.081 233.207 303.983 233.017C304.161 232.996 304.325 232.907 304.444 232.766C304.563 232.625 304.628 232.443 304.627 232.255C304.627 232.052 304.551 231.859 304.415 231.716C304.28 231.573 304.096 231.492 303.904 231.492C301.429 231.454 299.469 231.774 296.937 231.698C295.743 230.243 294.159 225.304 294.535 225.479C296.705 225.647 300.323 226.417 302.428 225.761C302.501 225.738 302.568 225.699 302.627 225.648C302.685 225.597 302.734 225.535 302.769 225.464C302.805 225.393 302.827 225.316 302.834 225.236C302.841 225.156 302.834 225.076 302.811 224.999C302.771 224.878 302.694 224.773 302.592 224.702C302.49 224.63 302.369 224.596 302.247 224.603C299.441 224.789 296.627 224.462 293.927 223.635C292.589 221.082 291.641 219.123 291.67 217.355L298.181 217.607C298.314 217.608 298.442 217.559 298.543 217.469C298.645 217.379 298.713 217.254 298.734 217.116C298.756 216.979 298.731 216.837 298.662 216.718C298.594 216.598 298.488 216.508 298.362 216.463C295.772 215.762 292.574 216.334 290.657 214.451C290.657 214.451 288.219 211.22 289.369 209.681C291.467 211.35 296.481 211.106 296.315 210.245Z" fill="black"/>
<path d="M284.434 269.027H296.849C298.985 269.026 301.058 268.259 302.725 266.851C304.393 265.444 305.555 263.48 306.022 261.284L310.703 239.236H270.573L275.254 261.284C275.721 263.482 276.884 265.446 278.553 266.854C280.222 268.261 282.296 269.028 284.434 269.027Z" fill="#7944FC"/>
<g opacity="0.3">
<path d="M284.433 269.026H296.848C298.984 269.025 301.057 268.258 302.724 266.851C304.392 265.443 305.554 263.48 306.021 261.283L310.702 239.235H270.572L275.253 261.283C275.72 263.481 276.883 265.445 278.552 266.853C280.221 268.261 282.295 269.027 284.433 269.026Z" fill="black"/>
</g>
<path opacity="0.1" d="M285.339 200.36C286.063 198.074 286.432 198.112 287.727 196.61C285.802 196.275 283.465 195.246 280.318 196.565C277.555 197.937 276.52 201.137 277.056 204.262C277.078 204.376 277.077 204.493 277.052 204.607C277.027 204.72 276.979 204.826 276.911 204.918C276.834 205.018 276.736 205.097 276.624 205.15C276.512 205.202 276.391 205.226 276.269 205.219C276.146 205.213 276.028 205.176 275.922 205.111C275.816 205.047 275.726 204.957 275.659 204.849C275.055 203.816 274.708 202.639 274.648 201.427C274.589 200.215 274.82 199.007 275.319 197.914C272.852 198.737 270.009 200.093 268.49 202.303C266.826 204.719 267.383 210.412 269.329 212.79C269.41 212.892 269.454 213.02 269.454 213.152C269.454 213.285 269.41 213.413 269.329 213.514C269.284 213.578 269.227 213.631 269.161 213.67C269.095 213.709 269.023 213.733 268.947 213.74C268.872 213.747 268.796 213.738 268.725 213.712C268.654 213.686 268.588 213.645 268.533 213.59C267.55 212.789 266.747 211.769 266.182 210.603C265.589 209.246 265.321 207.646 266.081 206.388C262.941 206.891 260.293 213.888 260.611 213.811C261.053 216.288 263.172 218.544 264.229 219.543C264.41 219.715 264.53 219.947 264.567 220.202C264.604 220.456 264.556 220.716 264.431 220.937C264.353 221.075 264.248 221.194 264.122 221.286C263.997 221.377 263.854 221.439 263.704 221.468C263.553 221.496 263.399 221.49 263.251 221.449C263.103 221.409 262.965 221.336 262.847 221.234C261.718 220.267 260.011 218.62 259.533 217.218C258.492 217.98 258.528 219.847 258.55 221.189C258.607 225.472 261.668 228.574 264.077 231.714C267.197 232.919 270.574 233.183 273.829 232.476C276.194 231.89 278.253 230.364 279.573 228.215V228.162C277.359 227.651 274.914 226.988 272.657 226.447C272.447 226.399 272.262 226.27 272.139 226.085C272.016 225.9 271.963 225.673 271.991 225.449C272.025 225.218 272.143 225.009 272.32 224.867C272.496 224.725 272.718 224.66 272.939 224.687C275.913 225.06 278.22 225.769 281.273 226.104C282.923 224.58 285.571 218.895 285.086 219.047C282.474 218.88 278.04 219.2 275.573 218.056C275.402 217.969 275.271 217.815 275.207 217.627C275.144 217.439 275.153 217.232 275.232 217.05C275.303 216.918 275.41 216.811 275.539 216.743C275.668 216.676 275.813 216.65 275.956 216.669C279.294 217.365 282.721 217.443 286.084 216.898C288.074 214.055 289.506 211.86 289.738 209.742L281.859 208.98C281.692 208.969 281.535 208.894 281.418 208.768C281.301 208.642 281.233 208.475 281.227 208.299C281.22 208.123 281.276 207.951 281.384 207.816C281.492 207.681 281.643 207.593 281.809 207.57H281.852C285.064 207.173 288.834 208.385 291.409 206.457C291.409 206.457 294.817 202.974 293.673 200.939C290.989 202.502 285.043 201.389 285.339 200.36Z" fill="white"/>
<path d="M263.452 132.266C263.083 132.556 262.815 132.769 262.489 133.028C262.164 133.287 261.875 133.478 261.563 133.699C260.941 134.133 260.305 134.537 259.661 134.941C258.358 135.747 257.012 136.475 255.631 137.121C254.189 137.801 252.696 138.354 251.167 138.775C250.349 139.004 249.518 139.177 248.679 139.293C248.252 139.346 247.803 139.369 247.347 139.407H246.624H246.175L245.698 139.369C244.59 139.229 243.517 138.87 242.536 138.31C241.737 137.86 240.984 137.326 240.287 136.717C239.07 135.64 237.964 134.432 236.988 133.112C235.172 130.655 233.644 127.976 232.437 125.133L235.772 122.945C237.512 125.016 239.36 126.982 241.307 128.837C242.19 129.687 243.144 130.452 244.157 131.123C244.566 131.391 245 131.613 245.452 131.786C245.712 131.895 245.99 131.944 246.27 131.931H246.342L246.682 131.877C246.921 131.832 247.159 131.786 247.405 131.71C247.905 131.58 248.425 131.413 248.954 131.222C250.074 130.783 251.168 130.274 252.231 129.698C253.33 129.096 254.437 128.456 255.523 127.754C256.051 127.434 256.601 127.046 257.143 126.687L257.939 126.139L260.109 124.614L263.452 132.266Z" fill="#7944FC"/>
<path opacity="0.2" d="M263.452 132.266C263.083 132.556 262.815 132.769 262.489 133.028C262.164 133.287 261.875 133.478 261.563 133.699C260.941 134.133 260.305 134.537 259.661 134.941C258.358 135.747 257.012 136.475 255.631 137.121C254.189 137.801 252.696 138.354 251.167 138.775C250.349 139.004 249.518 139.177 248.679 139.293C248.252 139.346 247.803 139.369 247.347 139.407H246.624H246.175L245.698 139.369C244.59 139.229 243.517 138.87 242.536 138.31C241.737 137.86 240.984 137.326 240.287 136.717C239.07 135.64 237.964 134.432 236.988 133.112C235.172 130.655 233.644 127.976 232.437 125.133L235.772 122.945C237.512 125.016 239.36 126.982 241.307 128.837C242.19 129.687 243.144 130.452 244.157 131.123C244.566 131.391 245 131.613 245.452 131.786C245.712 131.895 245.99 131.944 246.27 131.931H246.342L246.682 131.877C246.921 131.832 247.159 131.786 247.405 131.71C247.905 131.58 248.425 131.413 248.954 131.222C250.074 130.783 251.168 130.274 252.231 129.698C253.33 129.096 254.437 128.456 255.523 127.754C256.051 127.434 256.601 127.046 257.143 126.687L257.939 126.139L260.109 124.614L263.452 132.266Z" fill="black"/>
<path d="M233.952 125.431L230.826 123.853L233.344 119.76C233.344 119.76 235.984 122.047 236.238 124.386L233.952 125.431Z" fill="#FF8B7B"/>
<path d="M227.439 121.193L229.551 118.663L233.35 119.768L230.825 123.853L227.439 121.193Z" fill="#FF8B7B"/>
<path d="M293.449 270.614C293.783 269.773 294.253 268.999 294.838 268.327C294.838 268.327 297.189 264.067 295.373 256.667L298.607 253.672C299.489 253.679 300.334 254.045 300.966 254.693C301.378 255.17 301.755 255.68 302.094 256.217C303.281 258.359 305.878 263.275 305.878 263.275L305.393 263.557C304.539 262.101 303.607 260.699 302.601 259.357C301.537 258.1 301.559 260.34 301.949 262.238C302.34 264.136 301.183 267.138 298.101 269.097C294.534 271.444 292.95 272.184 293.449 270.614Z" fill="#263238"/>
<path d="M299.373 260.478C299.373 261.735 300.176 263.953 299.113 265.607C298.64 266.371 298.01 267.013 297.27 267.487C296.53 267.96 295.698 268.253 294.837 268.343C294.837 268.343 296.674 265.028 295.85 259.159C295.73 258.326 295.571 257.499 295.372 256.683C295.372 256.683 298.179 254.495 299.467 254.19L300.147 256.141C300.036 257.435 299.793 258.713 299.424 259.952C299.375 260.122 299.357 260.301 299.373 260.478Z" fill="#FF8B7B"/>
<path d="M300.147 256.14C300.036 257.434 299.794 258.712 299.424 259.951C299.367 260.12 299.343 260.298 299.351 260.477L296.704 261.658L295.828 259.158L292.717 250.249L297.355 248.176L299.445 254.189L300.147 256.14Z" fill="#FF8B7B"/>
<path opacity="0.2" d="M297.376 248.185L292.739 250.25L294.323 254.777H294.381C295.238 254.819 296.093 254.668 296.889 254.333C297.685 253.997 298.404 253.486 298.997 252.834L297.376 248.185Z" fill="black"/>
<path d="M258.128 267.824C258.839 267.332 259.621 266.967 260.443 266.742C260.443 266.742 264.603 264.493 266.853 257.223L271.194 256.301C271.573 256.497 271.911 256.772 272.186 257.11C272.461 257.448 272.667 257.842 272.793 258.267C272.829 259.065 272.815 259.864 272.749 260.66C272.677 263.152 272.286 269.607 272.286 269.607H271.729C271.769 267.624 271.711 265.64 271.556 263.663C271.302 262.001 270.174 263.891 269.53 265.72C268.886 267.55 266.383 269.402 262.773 269.318C258.584 269.127 256.884 268.845 258.128 267.824Z" fill="#263238"/>
<path d="M270.519 259.883C270.03 260.779 269.396 261.579 268.645 262.246C267.777 262.939 267.488 265.904 265.462 266.818C264.673 267.199 263.812 267.39 262.944 267.377C262.075 267.364 261.22 267.147 260.441 266.742C260.441 266.742 263.574 265.05 265.882 259.837C266.41 258.63 266.562 257.277 266.316 255.973L264.782 247.506L270.049 246.782L271.38 256.888C271.471 257.966 271.162 259.039 270.519 259.883Z" fill="#FF8B7B"/>
<path opacity="0.2" d="M264.336 244.297L265.551 251.736L266.007 251.85C266.79 252.037 267.602 252.046 268.388 251.875C269.174 251.704 269.916 251.358 270.565 250.859L269.668 243.657L264.336 244.297Z" fill="black"/>
<path d="M281.902 128.265C281.899 128.054 281.884 127.843 281.859 127.633C281.764 126.729 281.5 125.853 281.082 125.057C280.665 124.261 280.102 123.559 279.426 122.992C278.751 122.426 277.975 122.006 277.145 121.756C276.315 121.506 275.446 121.431 274.588 121.536H274.472C274.031 121.589 273.575 121.658 273.127 121.727C270.065 122.15 267.036 122.802 264.062 123.678C263.555 123.822 263.034 123.998 262.528 124.173C261.841 124.417 261.153 124.668 260.502 124.935C259.014 125.511 257.773 126.634 257.009 128.098C256.245 129.561 256.008 131.266 256.342 132.899C257.366 138.851 259.193 144.618 261.768 150.024C262.622 151.807 262.752 155.42 263.476 157.645L283.414 153.392V153.431C282.474 146.815 282.069 135.589 281.902 128.265Z" fill="#263238"/>
<path d="M263.487 157.599C263.487 157.599 262.38 184.426 261.388 205.018C260.607 221.396 263.638 249.374 263.638 249.374C266.39 250.112 269.307 249.685 271.763 248.185C271.879 249.503 272.964 222.425 271.763 206.832C277.362 184.022 285.574 162.462 279.511 154.063L263.487 157.599Z" fill="#263238"/>
<path opacity="0.3" d="M272.973 173.345L281.199 168.429C280.085 176.561 277.068 186.781 274.138 197.687C271.852 189.006 270.788 179.96 272.973 173.345Z" fill="black"/>
<path d="M267.064 158.255C267.064 158.255 272.519 179.037 276.035 198.952C277.561 213.264 292.182 252.391 292.182 252.391L294.7 251.888C295.895 251.645 297.002 251.056 297.898 250.189L298.744 249.373C298.744 249.373 294.403 221.015 290.215 209.972C290.316 186.895 290.721 162.027 282.488 154.284L267.064 158.255Z" fill="#263238"/>
<path d="M273.559 121.566C273.559 121.566 271.468 146.129 276.757 178.047C285.438 177.498 290.799 174.96 290.799 174.96C290.799 174.96 289.019 157.653 283.666 148.827C282.747 142.639 283.572 129.439 283.022 124.622C282.922 123.778 282.56 122.992 281.992 122.387C281.424 121.782 280.682 121.391 279.882 121.277C277.771 121.117 275.649 121.214 273.559 121.566Z" fill="#7944FC"/>
<path opacity="0.1" d="M273.559 121.566C273.559 121.566 271.468 146.129 276.757 178.047C285.438 177.498 290.799 174.96 290.799 174.96C290.799 174.96 289.019 157.653 283.666 148.827C282.747 142.639 283.572 129.439 283.022 124.622C282.922 123.778 282.56 122.992 281.992 122.387C281.424 121.782 280.682 121.391 279.882 121.277C277.771 121.117 275.649 121.214 273.559 121.566Z" fill="black"/>
<path d="M263.979 123.342C263.979 123.342 262.844 134.979 269.948 178.649C267.134 180.219 261.122 179.678 261.122 179.678C261.122 179.678 261.223 165.136 262.164 153.522C262.619 147.874 258.734 147.036 256.542 140.794C255.464 133.57 256.115 127.694 257.085 126.863C258.655 125.529 261.23 123.708 263.979 123.342Z" fill="#7944FC"/>
<path opacity="0.1" d="M263.979 123.342C263.979 123.342 262.844 134.979 269.948 178.649C267.134 180.219 261.122 179.678 261.122 179.678C261.122 179.678 261.223 165.136 262.164 153.522C262.619 147.874 258.734 147.036 256.542 140.794C255.464 133.57 256.115 127.694 257.085 126.863C258.655 125.529 261.23 123.708 263.979 123.342Z" fill="black"/>
<path opacity="0.7" d="M273.467 121.498C273.467 121.498 273.062 131.551 273.207 138.905C273.93 133.7 275.681 128.723 275.63 127.077C275.126 126.795 274.642 126.474 274.183 126.117C274.74 125.637 275.347 125.225 275.992 124.89C276.078 123.657 276.095 122.42 276.042 121.186C274.646 121.315 273.467 121.498 273.467 121.498Z" fill="white"/>
<path opacity="0.7" d="M264.061 123.25C263.918 129.066 264.16 134.884 264.785 140.664C263.244 136.023 261.254 131.588 261.435 129.842C262.238 129.134 262.947 128.318 262.947 128.318C262.436 127.982 261.873 127.742 261.283 127.609C261.305 126.312 261.399 125.016 261.565 123.73C262.933 123.463 264.061 123.25 264.061 123.25Z" fill="white"/>
<path d="M280.7 125.08C280.047 126.294 279.863 127.727 280.188 129.08C280.513 130.433 281.321 131.602 282.443 132.343H282.487C283.934 133.28 285.308 134.225 286.654 135.193C288 136.161 289.316 137.167 290.51 138.166C291.07 138.643 291.607 139.152 292.116 139.69C292.32 139.898 292.513 140.116 292.695 140.345C292.847 140.528 292.919 140.665 292.897 140.574L292.709 139.53C292.781 140.19 292.652 140.857 292.34 141.435C291.89 142.436 291.337 143.382 290.691 144.255C289.983 145.252 289.222 146.206 288.412 147.113C287.609 148.058 286.705 149.003 285.88 149.879L288.014 153.347C289.267 152.737 290.476 152.031 291.631 151.236C292.817 150.434 293.941 149.537 294.995 148.553C296.156 147.492 297.182 146.278 298.048 144.941C298.608 144.053 299.055 143.092 299.38 142.083C299.687 141.116 299.833 140.1 299.814 139.08V138.661L299.64 138.12C299.425 137.455 299.139 136.818 298.786 136.222C298.418 135.606 298.007 135.021 297.556 134.469C296.899 133.661 296.193 132.897 295.444 132.183C294.082 130.864 292.649 129.627 291.154 128.479C289.707 127.343 288.224 126.284 286.734 125.271C285.243 124.257 283.753 123.297 282.147 122.367L280.7 125.08Z" fill="#7944FC"/>
<path d="M288.376 149.978C286.802 149.413 285.087 149.462 283.543 150.116L285.367 155.931L288.21 153.332L288.376 149.978Z" fill="#FF8B7B"/>
<path d="M285.365 155.93L283.542 150.116L280.742 153.37L283.101 157.386L285.365 155.93Z" fill="#FF8B7B"/>
<path d="M261.361 120.986C260.214 113.818 261.176 106.452 264.118 99.8758C267.562 92.2546 281.937 97.5895 279.766 110.378C278.486 117.915 275.426 116.635 280.83 121.672C283.948 124.568 274.753 125.323 273.993 123.387C273.993 123.387 270.709 123.715 268.43 121.771C268.401 121.771 261.94 124.934 261.361 120.986Z" fill="#263238"/>
<path d="M266.954 128.577C270.086 129.11 272.098 124.888 272.886 122.8H272.532C271.635 120.171 272.271 115.895 272.857 113.365L267.07 118.159C267.424 120.11 267.482 122.137 265.767 123.219C265.42 123.28 265.044 123.356 264.733 123.432C264.349 125.368 264.313 128.135 266.954 128.577Z" fill="#FF8B7B"/>
<path opacity="0.2" d="M270.367 115.332L266.952 118.167C267.068 118.734 267.14 119.31 267.169 119.889C268.428 119.752 270.36 118.654 270.548 117.275C270.596 116.621 270.535 115.963 270.367 115.332Z" fill="black"/>
<path d="M275.934 108.868C274.089 113.67 273.409 115.727 270.262 117.435C265.523 119.98 260.321 116.551 260.763 111.261C261.16 106.498 264.105 99.441 269.278 99.0676C270.419 98.9851 271.562 99.2114 272.597 99.725C273.633 100.239 274.526 101.022 275.193 102.002C275.86 102.982 276.278 104.125 276.408 105.322C276.537 106.52 276.374 107.733 275.934 108.846V108.868Z" fill="#FF8B7B"/>
<path d="M265.074 107.329C264.446 108.124 263.715 108.821 262.903 109.402C263.046 109.62 263.234 109.801 263.451 109.933C263.669 110.065 263.912 110.144 264.162 110.164L265.074 107.329Z" fill="#D85B5B"/>
<path d="M269.848 106.628C269.881 106.639 269.917 106.639 269.95 106.628C269.973 106.618 269.995 106.603 270.013 106.584C270.031 106.565 270.045 106.542 270.055 106.517C270.064 106.492 270.069 106.466 270.068 106.439C270.067 106.412 270.062 106.385 270.051 106.361C269.911 106.004 269.693 105.688 269.413 105.439C269.134 105.19 268.802 105.015 268.445 104.928C268.393 104.919 268.34 104.932 268.297 104.964C268.255 104.996 268.226 105.045 268.217 105.1C268.208 105.154 268.221 105.21 268.251 105.255C268.282 105.3 268.328 105.331 268.38 105.34C268.674 105.415 268.946 105.563 269.175 105.771C269.404 105.979 269.583 106.241 269.697 106.536C269.713 106.563 269.736 106.585 269.762 106.601C269.789 106.617 269.818 106.626 269.848 106.628Z" fill="#263238"/>
<path d="M262.738 103.648C262.771 103.656 262.805 103.656 262.839 103.648C263.115 103.523 263.416 103.468 263.716 103.488C264.017 103.508 264.308 103.602 264.568 103.762C264.589 103.779 264.612 103.79 264.638 103.797C264.663 103.803 264.689 103.804 264.714 103.8C264.74 103.796 264.765 103.786 264.787 103.772C264.809 103.758 264.828 103.739 264.843 103.717C264.871 103.671 264.882 103.615 264.873 103.561C264.863 103.507 264.834 103.459 264.792 103.427C264.479 103.226 264.124 103.106 263.758 103.079C263.392 103.051 263.025 103.115 262.687 103.267C262.663 103.275 262.641 103.289 262.622 103.307C262.603 103.325 262.587 103.346 262.576 103.37C262.566 103.395 262.56 103.421 262.559 103.448C262.558 103.474 262.562 103.501 262.571 103.526C262.584 103.563 262.607 103.595 262.636 103.619C262.665 103.643 262.701 103.659 262.738 103.663V103.648Z" fill="#263238"/>
<path d="M267.959 107.612C267.836 108.008 267.532 108.259 267.279 108.176C267.026 108.092 266.932 107.695 267.069 107.292C267.207 106.888 267.496 106.644 267.742 106.728C267.988 106.811 268.089 107.208 267.959 107.612Z" fill="#263238"/>
<path d="M263.677 106.102C263.547 106.499 263.243 106.75 262.997 106.666C262.751 106.583 262.65 106.186 262.78 105.79C262.91 105.394 263.207 105.135 263.453 105.226C263.699 105.317 263.807 105.698 263.677 106.102Z" fill="#263238"/>
<path d="M263.554 105.279L262.737 104.685C262.737 104.685 262.968 105.599 263.554 105.279Z" fill="#263238"/>
<path d="M267.84 106.789L267.016 106.194C267.016 106.194 267.247 107.109 267.84 106.789Z" fill="#263238"/>
<path d="M266.989 113.014C267.236 112.943 267.478 112.851 267.712 112.74C267.744 112.723 267.77 112.695 267.783 112.659C267.797 112.624 267.797 112.585 267.784 112.549C267.769 112.515 267.741 112.489 267.708 112.474C267.674 112.46 267.637 112.46 267.603 112.473C267.072 112.736 266.49 112.864 265.903 112.847C265.316 112.83 264.742 112.668 264.225 112.374C264.21 112.363 264.193 112.355 264.175 112.351C264.157 112.347 264.138 112.347 264.12 112.351C264.102 112.354 264.084 112.361 264.069 112.372C264.053 112.382 264.04 112.396 264.03 112.412C264.019 112.428 264.012 112.446 264.008 112.465C264.004 112.484 264.004 112.504 264.007 112.523C264.011 112.542 264.017 112.56 264.028 112.577C264.038 112.593 264.051 112.607 264.066 112.618C264.956 113.14 266.002 113.282 266.989 113.014Z" fill="#263238"/>
<path d="M267.61 100.6C267.61 100.6 266.026 101.979 266.966 103.313C267.907 104.646 270.822 104.075 271.379 106.628C271.936 109.181 270.88 111.155 272.638 111.963C274.396 112.771 276.082 110.24 276.082 110.24C276.082 110.24 278.853 104.296 275.431 101.095C272.009 97.894 268.03 96.7737 265.65 98.2217C263.269 99.6698 261.938 100.714 262.821 101.339C263.703 101.964 265.078 102.413 265.671 101.788C266.195 101.203 266.868 100.79 267.61 100.6Z" fill="#263238"/>
<path d="M275.806 113.129C275.253 113.937 274.422 114.484 273.491 114.654C272.247 114.867 271.762 113.663 272.218 112.497C272.63 111.46 273.773 110.081 274.974 110.393C275.388 110.518 275.738 110.81 275.948 111.205C276.158 111.601 276.211 112.068 276.095 112.504C276.044 112.733 275.945 112.946 275.806 113.129Z" fill="#FF8B7B"/>
<path d="M263.987 123.517C264.422 123.239 264.927 123.106 265.434 123.136C265.434 123.136 264.031 127.83 267.229 128.097C270.426 128.364 272.835 122.602 272.835 122.602C273.055 122.515 273.29 122.481 273.523 122.505C273.757 122.529 273.982 122.609 274.181 122.739C274.181 122.739 271.649 129.415 267.243 129.225C262.837 129.034 263.987 123.517 263.987 123.517Z" fill="#7944FC"/>
<path opacity="0.7" d="M263.987 123.517C264.422 123.239 264.927 123.106 265.434 123.136C265.434 123.136 264.031 127.83 267.229 128.097C270.426 128.364 272.835 122.602 272.835 122.602C273.055 122.515 273.29 122.481 273.523 122.505C273.757 122.529 273.982 122.609 274.181 122.739C274.181 122.739 271.649 129.415 267.243 129.225C262.837 129.034 263.987 123.517 263.987 123.517Z" fill="white"/>
<path d="M273.169 109.067L270.094 107.81C269.993 106.895 268.893 106.446 268.423 106.248C267.953 106.049 266.759 105.569 266.108 106.286L265.037 105.851C265.037 104.86 263.844 104.373 263.352 104.175C262.86 103.976 261.268 103.321 260.762 104.693C260.607 105.261 260.66 105.868 260.909 106.398C261.158 106.927 261.585 107.339 262.107 107.554C262.63 107.768 263.209 107.77 263.732 107.558C264.256 107.346 264.685 106.935 264.936 106.408C264.963 106.336 264.985 106.262 265.001 106.187L265.92 106.56C265.883 106.626 265.851 106.694 265.826 106.766C265.672 107.333 265.724 107.941 265.973 108.471C266.222 109 266.649 109.412 267.172 109.626C267.694 109.841 268.273 109.842 268.797 109.631C269.32 109.419 269.749 109.008 270 108.481C270.042 108.375 270.071 108.265 270.087 108.153L273.053 109.372C273.462 109.537 273.802 109.847 274.016 110.249L274.283 110.089C274.034 109.623 273.641 109.263 273.169 109.067ZM262.23 107.223C261.771 107.066 261.389 106.724 261.166 106.272C260.944 105.819 260.9 105.293 261.044 104.807C261.319 104.045 261.977 103.961 263.214 104.479C264.451 104.998 264.9 105.539 264.625 106.286C264.419 106.739 264.054 107.089 263.608 107.264C263.161 107.439 262.667 107.424 262.23 107.223ZM267.295 109.296C266.836 109.14 266.453 108.8 266.231 108.349C266.009 107.898 265.965 107.373 266.108 106.888C266.39 106.126 267.041 106.034 268.278 106.552C269.516 107.071 269.964 107.612 269.689 108.359C269.485 108.813 269.12 109.165 268.673 109.34C268.225 109.515 267.731 109.499 267.295 109.296Z" fill="#263238"/>
<path d="M93.3246 114.5C93.3246 114.5 87.4719 114.957 84.2814 122.022C81.091 129.087 78.9133 142.355 86.4518 142.706C93.9902 143.057 93.3102 141.113 93.3102 141.113V137.577L88.4702 136.053C88.2292 135.976 88.0054 135.849 87.8122 135.679C87.6191 135.508 87.4607 135.299 87.3464 135.062C87.2322 134.826 87.1646 134.568 87.1476 134.303C87.1306 134.038 87.1646 133.773 87.2476 133.523L89.7942 125.901L93.3246 114.5Z" fill="#7944FC"/>
<path opacity="0.2" d="M93.3246 114.5C93.3246 114.5 87.4719 114.957 84.2814 122.022C81.091 129.087 78.9133 142.355 86.4518 142.706C93.9902 143.057 93.3102 141.113 93.3102 141.113V137.577L88.4702 136.053C88.2292 135.976 88.0054 135.849 87.8122 135.679C87.6191 135.508 87.4607 135.299 87.3464 135.062C87.2322 134.826 87.1646 134.568 87.1476 134.303C87.1306 134.038 87.1646 133.773 87.2476 133.523L89.7942 125.901L93.3246 114.5Z" fill="black"/>
<path d="M108.569 96.1866C108.815 96.1409 109.068 96.4153 109.147 96.8039C109.227 97.1926 109.09 97.5661 108.844 97.5661C108.598 97.5661 108.344 97.345 108.265 96.9564C108.185 96.5677 108.323 96.2324 108.569 96.1866Z" fill="#263238"/>
<path d="M109.276 101.362C109.597 101.373 109.917 101.311 110.213 101.179C110.509 101.048 110.775 100.85 110.991 100.6C110.058 99.727 109.243 98.7245 108.567 97.62L109.276 101.362Z" fill="#EC837E"/>
<path d="M106.643 95.0587C106.823 94.8315 107.053 94.6529 107.312 94.5376C107.571 94.4223 107.852 94.3736 108.133 94.3956C108.157 94.4038 108.182 94.4038 108.205 94.3956C108.265 94.3956 108.322 94.3707 108.364 94.3264C108.406 94.2821 108.43 94.222 108.43 94.1594C108.431 94.1281 108.426 94.0969 108.415 94.0677C108.404 94.0386 108.387 94.0121 108.366 93.99C108.345 93.9678 108.32 93.9504 108.292 93.9389C108.265 93.9274 108.235 93.9221 108.205 93.9231C107.856 93.8792 107.501 93.9256 107.172 94.0584C106.843 94.1912 106.55 94.4063 106.317 94.6852C106.28 94.7295 106.26 94.7863 106.259 94.8453C106.261 94.9081 106.285 94.968 106.326 95.0131C106.368 95.0582 106.424 95.0854 106.484 95.0892C106.538 95.0971 106.594 95.0864 106.643 95.0587Z" fill="#263238"/>
<path d="M105.104 108.373C104.424 111.201 104.381 114.706 107.325 115.667C107.325 115.667 110.986 118.898 103.939 118.898C97.5439 118.898 96.5962 115.217 96.5962 115.217C99.0125 112.786 98.6002 107.763 97.9274 104.128L105.104 108.373Z" fill="#FFC2BC"/>
<path d="M93.9834 114.592C93.9834 114.592 95.1409 111.361 96.7181 110.401C98.2952 109.44 104.922 110.873 105.949 111.353C106.977 111.834 107.917 114.402 107.917 114.402L93.9834 114.592Z" fill="#7944FC"/>
<path opacity="0.2" d="M93.9834 114.592C93.9834 114.592 95.1409 111.361 96.7181 110.401C98.2952 109.44 104.922 110.873 105.949 111.353C106.977 111.834 107.917 114.402 107.917 114.402L93.9834 114.592Z" fill="black"/>
<path d="M104.076 264.408C104.054 264.405 104.033 264.394 104.016 264.377C104 264.36 103.989 264.339 103.985 264.315C103.981 264.292 103.984 264.267 103.994 264.246C104.004 264.224 104.02 264.206 104.04 264.195C104.127 264.149 105.776 263.166 106.557 263.387C106.632 263.405 106.702 263.439 106.764 263.486C106.827 263.533 106.879 263.593 106.919 263.661C106.968 263.736 106.995 263.825 106.995 263.917C106.995 264.008 106.968 264.097 106.919 264.172C106.724 264.461 106.196 264.553 105.53 264.553C105.043 264.546 104.556 264.498 104.076 264.408ZM106.246 263.577C105.596 263.66 104.967 263.875 104.394 264.21C105.27 264.339 106.463 264.332 106.68 264.012C106.731 263.966 106.753 263.897 106.68 263.753C106.658 263.711 106.626 263.675 106.589 263.647C106.551 263.619 106.509 263.601 106.463 263.593C106.392 263.577 106.318 263.577 106.246 263.593V263.577Z" fill="#7944FC"/>
<path d="M104.032 264.386C104.004 264.358 103.986 264.32 103.981 264.279C104.013 263.575 104.268 262.901 104.705 262.366C104.791 262.289 104.891 262.23 104.999 262.195C105.108 262.16 105.222 262.148 105.334 262.161C105.645 262.199 105.754 262.366 105.754 262.496C105.841 263.075 104.712 264.127 104.141 264.401H104.097C104.075 264.401 104.053 264.396 104.032 264.386ZM105.276 262.389C105.202 262.389 105.129 262.404 105.06 262.434C104.992 262.464 104.93 262.509 104.879 262.565C104.525 262.992 104.305 263.525 104.249 264.089C104.835 263.715 105.595 262.869 105.544 262.565C105.544 262.565 105.544 262.435 105.327 262.435H105.262L105.276 262.389Z" fill="#7944FC"/>
<path d="M99.4043 252.786H104.114L103.644 264.279H98.9341L99.4043 252.786Z" fill="#FFC2BC"/>
<path d="M104.748 264.096C107.931 266.161 108.915 266.253 112.597 267.144C113.408 267.327 112.872 269.385 110.941 269.385C107.743 269.385 107.41 269.233 104.683 269.233C102.346 269.233 99.6693 269.339 97.81 269.377C97.7548 269.385 97.6988 269.385 97.6436 269.377C97.468 269.334 97.316 269.219 97.2211 269.057C97.1261 268.896 97.0959 268.701 97.1372 268.516L98.0632 264.111C98.0843 264.014 98.1358 263.928 98.2093 263.866C98.2828 263.804 98.374 263.769 98.4683 263.768H103.612C104.012 263.765 104.405 263.879 104.748 264.096Z" fill="#263238"/>
<path d="M110.472 114.515C105.79 114.149 101.094 114.034 96.4011 114.172C95.1712 114.264 93.9485 114.393 92.7331 114.553C92.1262 114.635 91.5411 114.844 91.013 115.17C90.4848 115.495 90.0246 115.93 89.6597 116.447C89.2949 116.965 89.033 117.554 88.8898 118.181C88.7467 118.808 88.7251 119.458 88.8264 120.094C91.619 137.729 90.2155 155.029 89.832 158.505L115.001 158.253C117.635 136.426 116.933 125.421 115.92 120.079C115.655 118.679 114.992 117.396 114.019 116.403C113.046 115.409 111.809 114.751 110.472 114.515Z" fill="#7944FC"/>
<path opacity="0.1" d="M110.472 114.515C105.79 114.149 101.094 114.034 96.4011 114.172C95.1712 114.264 93.9485 114.393 92.7331 114.553C92.1262 114.635 91.5411 114.844 91.013 115.17C90.4848 115.495 90.0246 115.93 89.6597 116.447C89.2949 116.965 89.033 117.554 88.8898 118.181C88.7467 118.808 88.7251 119.458 88.8264 120.094C91.619 137.729 90.2155 155.029 89.832 158.505L115.001 158.253C117.635 136.426 116.933 125.421 115.92 120.079C115.655 118.679 114.992 117.396 114.019 116.403C113.046 115.409 111.809 114.751 110.472 114.515Z" fill="black"/>
<path opacity="0.2" d="M99.3926 252.794L99.1538 258.715H103.871L104.11 252.794H99.3926Z" fill="black"/>
<path d="M95.5609 95.7366C95.8815 93.9858 96.8486 92.4406 98.2498 91.4404C99.651 90.4401 101.372 90.0666 103.034 90.4017C107.881 91.362 109.885 98.3735 109.741 102.916C109.596 107.953 104.351 111.368 100.162 108.395C97.3767 106.414 96.892 103.571 95.6838 98.8155C95.4202 97.8126 95.3781 96.7593 95.5609 95.7366Z" fill="#FFC2BC"/>
<path d="M90.198 156.668C90.198 156.668 85.3725 172.954 81.6395 189.53C76.7706 211.105 65.0361 255.308 65.0361 255.308L73.3414 257.236C73.3414 257.236 90.4729 205.839 94.9728 190.345C99.0893 176.201 106.454 156.683 106.454 156.683L90.198 156.668Z" fill="#263238"/>
<path opacity="0.3" d="M100.228 174.783C92.8195 196.008 91.2496 202.38 91.1411 202.791C92.0382 189.873 95.7278 175.462 100.228 174.783C100.561 174.73 99.9239 174.684 100.228 174.783Z" fill="black"/>
<path d="M98.823 156.668C98.823 156.668 98.2732 174.722 97.9259 191.572C97.6004 207.036 97.9259 257.572 97.9259 257.572H105.884C105.884 257.572 112.012 206.015 113.632 190.292C115.202 175.187 115.369 156.668 115.369 156.668H98.823Z" fill="#263238"/>
<path d="M96.7471 254.6L97.0148 257.71H106.716C106.716 257.71 107.201 254.219 107.165 254.219L96.7471 254.6Z" fill="#7944FC"/>
<path d="M64.8069 264.355C64.799 264.376 64.7851 264.395 64.767 264.408C64.7489 264.421 64.7275 264.428 64.7056 264.428C64.6837 264.428 64.6622 264.421 64.6442 264.408C64.6261 264.395 64.6122 264.376 64.6043 264.355C64.5609 264.271 63.6349 262.525 63.8809 261.702C63.9183 261.547 64.0117 261.413 64.1413 261.329C64.2137 261.276 64.2994 261.248 64.3873 261.248C64.4751 261.248 64.5609 261.276 64.6332 261.329C64.9009 261.542 64.9805 262.129 64.9805 262.792C64.9646 263.317 64.9065 263.84 64.8069 264.355ZM64.04 262.03C64.1062 262.714 64.3005 263.377 64.6115 263.981C64.7418 263.059 64.7418 261.809 64.4379 261.573C64.4379 261.519 64.3366 261.497 64.1919 261.573C64.1513 261.598 64.1166 261.632 64.0903 261.673C64.064 261.714 64.0468 261.76 64.04 261.809C64.0256 261.882 64.0256 261.957 64.04 262.03Z" fill="#7944FC"/>
<path d="M64.7979 264.401C64.7864 264.417 64.771 264.43 64.7532 264.438C64.7354 264.446 64.7158 264.449 64.6966 264.447C64.0302 264.411 63.394 264.143 62.888 263.685C62.8155 263.593 62.7615 263.487 62.7292 263.373C62.6968 263.259 62.6869 263.14 62.6999 263.021C62.6999 262.701 62.888 262.595 63.0182 262.595C63.5536 262.503 64.5592 263.7 64.8124 264.294V264.34C64.8135 264.361 64.8084 264.383 64.7979 264.401ZM62.9386 263.098C62.9468 263.25 63.0028 263.394 63.0978 263.509C63.5042 263.881 64.0093 264.113 64.5447 264.172C64.1974 263.555 63.4016 262.747 63.0978 262.8C63.0978 262.8 62.9748 262.8 62.9748 263.029V263.098H62.9386Z" fill="#7944FC"/>
<path d="M66.8618 254.829L71.4558 255.195L69.3361 264.698L64.7349 264.355L66.8618 254.829Z" fill="#FFC2BC"/>
<path opacity="0.2" d="M66.9181 254.562L65.9849 258.746L70.5788 259.089L71.5193 254.897L66.9181 254.562Z" fill="black"/>
<path d="M63.6632 263.692C62.4261 265.216 61.7677 266.032 58.1721 267.228C57.3763 267.487 58.0853 269.515 60.017 269.309C63.2002 269.012 61.4639 269.019 64.1551 268.76C66.4774 268.547 69.1542 268.41 71.0063 268.272C71.0688 268.28 71.1319 268.28 71.1944 268.272C71.3612 268.205 71.4986 268.075 71.5801 267.908C71.6616 267.741 71.6814 267.547 71.6357 267.365L70.3407 263.052C70.3129 262.958 70.2552 262.877 70.1775 262.823C70.0997 262.769 70.0066 262.745 69.9139 262.755L64.7918 263.235C64.3731 263.225 63.9676 263.389 63.6632 263.692Z" fill="#263238"/>
<path d="M64.0448 253.671L63.9941 256.834L73.9851 257.961C73.9851 257.961 74.8388 254.547 74.8026 254.547L64.0448 253.671Z" fill="#7944FC"/>
<path d="M97.1163 89.3809C99.5037 88.413 99.8582 88.1843 101.254 85.9209C102.029 84.6557 101.92 83.5507 104.271 83.1468C105.525 82.9219 106.813 83.1647 107.915 83.8334C109.017 84.5021 109.863 85.5547 110.307 86.8098C110.751 88.0649 110.765 89.4438 110.347 90.7089C109.93 91.9741 109.106 93.0461 108.019 93.7402C106.789 94.5404 108.612 92.6046 107.295 93.1914C105.979 93.7783 106.254 93.1076 106.174 94.6318C106.109 95.7979 106.782 96.8496 107.216 97.9318C107.65 99.014 107.751 100.47 106.847 101.156C107.1 100.264 105.038 102.68 105.118 103.625C105.335 106.201 103.164 108.563 100.741 108.914C95.4017 109.676 91.8929 103.152 90.3519 98.6634C88.2611 92.6885 91.4805 91.6596 97.1163 89.3809Z" fill="#263238"/>
<path d="M105.84 96.7275C107.178 97.1543 107.858 99.2501 107.909 100.576C107.952 102.039 107.019 102.954 105.818 101.963C104.912 101.198 104.269 100.14 103.987 98.9529C103.676 97.5506 104.501 96.2931 105.84 96.7275Z" fill="#FFC2BC"/>
<path opacity="0.1" d="M110.536 114.919C111.914 114.841 113.279 115.235 114.427 116.043C115.575 116.851 116.443 118.029 116.902 119.4C118.241 122.982 120.903 130.938 122.263 135.039C122.335 135.257 122.465 135.448 122.639 135.589C122.813 135.73 123.022 135.814 123.24 135.831C123.459 135.848 123.677 135.797 123.869 135.685C124.06 135.573 124.216 135.404 124.318 135.199L126.134 131.594C126.134 131.594 128.818 132.127 129.823 134.597C130.829 137.066 124.759 143.803 121.605 143.788C118.06 143.788 113.459 134.642 112.2 130.474C110.674 125.456 110.108 120.169 110.536 114.919Z" fill="white"/>
<path d="M126.134 132.761L128.211 129.049C128.211 129.049 127.039 126.763 127.805 125.239C128.572 123.714 129.332 124.949 130.077 124.477C130.822 124.004 132.493 120.78 133.297 122.404C134.1 124.027 135.098 126.832 130.96 130.147L128.724 136.061L126.134 132.761Z" fill="#FFC2BC"/>
<path d="M126.447 131.198C127.355 131.403 128.192 131.866 128.867 132.538C129.542 133.211 130.029 134.065 130.274 135.009V135.085C130.332 135.428 130.737 137.966 130.274 138.012C129.811 138.057 129.145 135.626 125.34 133.515C125.285 133.485 125.237 133.443 125.197 133.393C125.158 133.342 125.129 133.284 125.111 133.222C125.094 133.159 125.088 133.094 125.095 133.029C125.102 132.964 125.121 132.901 125.152 132.845L125.969 131.427C126.015 131.34 126.086 131.271 126.172 131.23C126.258 131.189 126.354 131.178 126.447 131.198Z" fill="#7944FC"/>
<path d="M126.447 131.198C127.355 131.403 128.192 131.866 128.867 132.538C129.542 133.211 130.029 134.065 130.274 135.009V135.085C130.332 135.428 130.737 137.966 130.274 138.012C129.811 138.057 129.145 135.626 125.34 133.515C125.285 133.485 125.237 133.443 125.197 133.393C125.158 133.342 125.129 133.284 125.111 133.222C125.094 133.159 125.088 133.094 125.095 133.029C125.102 132.964 125.121 132.901 125.152 132.845L125.969 131.427C126.015 131.34 126.086 131.271 126.172 131.23C126.258 131.189 126.354 131.178 126.447 131.198Z" fill="#7944FC"/>
<path d="M110.536 114.919C111.914 114.841 113.279 115.235 114.427 116.043C115.575 116.851 116.443 118.029 116.902 119.4C118.241 122.982 120.903 130.938 122.263 135.039C122.335 135.257 122.465 135.448 122.639 135.589C122.813 135.73 123.022 135.814 123.24 135.831C123.459 135.848 123.677 135.797 123.869 135.685C124.06 135.573 124.216 135.404 124.318 135.199L126.134 131.594C126.134 131.594 128.818 132.127 129.823 134.597C130.829 137.066 124.759 143.803 121.605 143.788C118.06 143.788 113.459 134.642 112.2 130.474C110.674 125.456 110.108 120.169 110.536 114.919Z" fill="#7944FC"/>
<path opacity="0.1" d="M110.536 114.919C111.914 114.841 113.279 115.235 114.427 116.043C115.575 116.851 116.443 118.029 116.902 119.4C118.241 122.982 120.903 130.938 122.263 135.039C122.335 135.257 122.465 135.448 122.639 135.589C122.813 135.73 123.022 135.814 123.24 135.831C123.459 135.848 123.677 135.797 123.869 135.685C124.06 135.573 124.216 135.404 124.318 135.199L126.134 131.594C126.134 131.594 128.818 132.127 129.823 134.597C130.829 137.066 124.759 143.803 121.605 143.788C118.06 143.788 113.459 134.642 112.2 130.474C110.674 125.456 110.108 120.169 110.536 114.919Z" fill="white"/>
<path d="M138.577 87.8716C137.824 87.8716 137.153 87.7331 136.563 87.4561C135.977 87.1791 135.512 86.7973 135.168 86.3108C134.823 85.8243 134.644 85.2668 134.63 84.6383H136.867C136.892 85.0608 137.069 85.4035 137.399 85.6663C137.73 85.9291 138.122 86.0605 138.577 86.0605C138.939 86.0605 139.258 85.9806 139.535 85.8208C139.816 85.6574 140.034 85.4319 140.191 85.1443C140.35 84.8531 140.43 84.5193 140.43 84.1429C140.43 83.7593 140.349 83.422 140.185 83.1308C140.025 82.8396 139.804 82.6123 139.519 82.449C139.235 82.2856 138.91 82.2022 138.545 82.1986C138.225 82.1986 137.914 82.2643 137.612 82.3957C137.314 82.5271 137.082 82.7064 136.915 82.9337L134.864 82.5662L135.381 76.8133H142.05V78.699H137.282L137 81.4316H137.064C137.256 81.1617 137.545 80.938 137.932 80.7604C138.319 80.5829 138.752 80.4941 139.232 80.4941C139.889 80.4941 140.475 80.6485 140.99 80.9575C141.505 81.2664 141.911 81.6908 142.209 82.2306C142.508 82.7668 142.655 83.3847 142.652 84.0843C142.655 84.8194 142.485 85.4728 142.14 86.0445C141.799 86.6127 141.322 87.0601 140.707 87.3868C140.097 87.71 139.386 87.8716 138.577 87.8716ZM144.095 85.8048V83.9884L148.649 76.8133H150.215V79.3275H149.289L146.418 83.8712V83.9564H152.889V85.8048H144.095ZM149.331 87.7224V85.2508L149.374 84.4465V76.8133H151.536V87.7224H149.331ZM160.397 85.677V85.1017C160.397 84.6649 160.49 84.2636 160.674 83.8978C160.863 83.5285 161.134 83.2338 161.489 83.0136C161.848 82.7899 162.285 82.678 162.8 82.678C163.322 82.678 163.76 82.7881 164.116 83.0083C164.474 83.2284 164.744 83.5232 164.925 83.8925C165.11 84.2583 165.202 84.6613 165.202 85.1017V85.677C165.202 86.1137 165.11 86.5168 164.925 86.8861C164.741 87.2519 164.469 87.5449 164.11 87.765C163.752 87.9887 163.315 88.1006 162.8 88.1006C162.278 88.1006 161.839 87.9887 161.484 87.765C161.129 87.5449 160.859 87.2519 160.674 86.8861C160.49 86.5168 160.397 86.1137 160.397 85.677ZM161.948 85.1017V85.677C161.948 85.9291 162.008 86.167 162.129 86.3907C162.253 86.6145 162.477 86.7263 162.8 86.7263C163.123 86.7263 163.343 86.6162 163.46 86.3961C163.581 86.1759 163.641 85.9362 163.641 85.677V85.1017C163.641 84.8424 163.585 84.601 163.471 84.3772C163.357 84.1535 163.134 84.0417 162.8 84.0417C162.48 84.0417 162.258 84.1535 162.134 84.3772C162.01 84.601 161.948 84.8424 161.948 85.1017ZM154.799 79.4341V78.8588C154.799 78.4184 154.893 78.0154 155.081 77.6496C155.27 77.2803 155.541 76.9856 155.896 76.7654C156.255 76.5452 156.688 76.4351 157.196 76.4351C157.722 76.4351 158.162 76.5452 158.517 76.7654C158.872 76.9856 159.142 77.2803 159.327 77.6496C159.511 78.0154 159.604 78.4184 159.604 78.8588V79.4341C159.604 79.8744 159.51 80.2775 159.321 80.6432C159.137 81.009 158.865 81.302 158.506 81.5221C158.151 81.7387 157.715 81.8471 157.196 81.8471C156.678 81.8471 156.239 81.737 155.88 81.5168C155.525 81.2931 155.255 81.0001 155.071 80.6379C154.89 80.2721 154.799 79.8708 154.799 79.4341ZM156.36 78.8588V79.4341C156.36 79.6933 156.42 79.933 156.541 80.1532C156.665 80.3733 156.884 80.4834 157.196 80.4834C157.523 80.4834 157.745 80.3733 157.862 80.1532C157.983 79.933 158.043 79.6933 158.043 79.4341V78.8588C158.043 78.5995 157.986 78.3581 157.873 78.1343C157.759 77.9106 157.533 77.7988 157.196 77.7988C156.88 77.7988 156.662 77.9124 156.541 78.1397C156.42 78.3669 156.36 78.6066 156.36 78.8588ZM155.502 87.7224L163.002 76.8133H164.398L156.898 87.7224H155.502Z" fill="#6A35F5"/>
</svg>
