<svg width="30" height="31" viewBox="0 0 30 31" fill="none" xmlns="http://www.w3.org/2000/svg">
<path fill-rule="evenodd" clip-rule="evenodd" d="M1.5 15.2729C1.5 9.88024 1.5 7.18389 2.78504 5.24178C3.35887 4.37453 4.10158 3.63182 4.96883 3.05799C6.91094 1.77295 9.60729 1.77295 15 1.77295C20.3927 1.77295 23.0891 1.77295 25.0312 3.05799C25.8984 3.63182 26.6411 4.37453 27.215 5.24178C28.5 7.18389 28.5 9.88024 28.5 15.2729C28.5 20.6657 28.5 23.362 27.215 25.3041C26.6411 26.1714 25.8984 26.9141 25.0312 27.4879C23.0891 28.7729 20.3927 28.7729 15 28.7729C9.60729 28.7729 6.91094 28.7729 4.96883 27.4879C4.10158 26.9141 3.35887 26.1714 2.78504 25.3041C1.5 23.362 1.5 20.6657 1.5 15.2729ZM21.9889 15.2733C21.9889 19.1333 18.8597 22.2624 14.9998 22.2624C11.1398 22.2624 8.01064 19.1333 8.01064 15.2733C8.01064 11.4133 11.1398 8.28418 14.9998 8.28418C18.8597 8.28418 21.9889 11.4133 21.9889 15.2733ZM14.9998 19.8978C17.5538 19.8978 19.6243 17.8273 19.6243 15.2733C19.6243 12.7192 17.5538 10.6488 14.9998 10.6488C12.4457 10.6488 10.3753 12.7192 10.3753 15.2733C10.3753 17.8273 12.4457 19.8978 14.9998 19.8978ZM22.2649 9.57527C23.1719 9.57527 23.9071 8.84002 23.9071 7.93304C23.9071 7.02606 23.1719 6.2908 22.2649 6.2908C21.3579 6.2908 20.6227 7.02606 20.6227 7.93304C20.6227 8.84002 21.3579 9.57527 22.2649 9.57527Z" fill="white"/>
</svg>

