<svg width="30" height="31" viewBox="0 0 30 31" fill="none" xmlns="http://www.w3.org/2000/svg">
<path d="M28.0275 8.9077C26.3998 8.9077 24.8949 8.36702 23.6909 7.45846C22.3085 6.41611 21.3108 4.88326 20.9596 3.12186C20.8704 2.68709 20.8258 2.23559 20.8202 1.77295H16.1659V14.4873L16.1604 21.4493C16.1604 23.311 14.9452 24.8884 13.2674 25.4458C12.7769 25.6075 12.253 25.6855 11.7067 25.6521C11.0044 25.6131 10.3522 25.4012 9.77809 25.0612C8.56296 24.3366 7.74358 23.0211 7.72128 21.5106C7.68783 19.1583 9.58858 17.2353 11.9408 17.2353C12.4035 17.2353 12.8494 17.3133 13.2674 17.4471V13.9745V12.7315C12.8271 12.6646 12.3812 12.6312 11.9241 12.6312C9.34889 12.6312 6.94092 13.7014 5.21854 15.63C3.91979 17.0848 3.13943 18.9465 3.0168 20.8974C2.86073 23.4559 3.79716 25.8918 5.6143 27.6866C5.88185 27.9486 6.16055 28.1938 6.45598 28.4224C8.0167 29.6208 9.91745 30.2729 11.9241 30.2729C12.3756 30.2729 12.8271 30.2395 13.2674 30.1726C15.1403 29.8939 16.8683 29.0355 18.2339 27.6866C19.9117 26.0311 20.837 23.8294 20.8481 21.4883L20.8258 11.0871C21.6285 11.7059 22.498 12.2131 23.44 12.6089C24.9004 13.2276 26.45 13.5341 28.0386 13.5341V10.1563V8.90213C28.0442 8.9077 28.0275 8.9077 28.0275 8.9077Z" fill="white"/>
</svg>
