<svg width="91" height="89" viewBox="0 0 91 89" fill="none" xmlns="http://www.w3.org/2000/svg">
<path d="M18.5945 14.6239H42.3387C42.6953 14.6239 43.0373 14.482 43.2894 14.2294C43.5415 13.9768 43.6832 13.6342 43.6832 13.277C43.6832 12.9198 43.5415 12.5772 43.2894 12.3247C43.0373 12.0721 42.6953 11.9302 42.3387 11.9302H18.5945C18.2379 11.9302 17.8959 12.0721 17.6438 12.3247C17.3917 12.5772 17.25 12.9198 17.25 13.277C17.25 13.6342 17.3917 13.9768 17.6438 14.2294C17.8959 14.482 18.2379 14.6239 18.5945 14.6239Z" fill="#A18129"/>
<path d="M25.075 23.4997C25.075 23.8569 25.2166 24.1995 25.4688 24.4521C25.7209 24.7046 26.0629 24.8465 26.4195 24.8465H50.083C50.4396 24.8465 50.7815 24.7046 51.0337 24.4521C51.2858 24.1995 51.4275 23.8569 51.4275 23.4997C51.4275 23.1425 51.2858 22.7999 51.0337 22.5473C50.7815 22.2947 50.4396 22.1528 50.083 22.1528H26.406C26.0495 22.1528 25.7075 22.2947 25.4553 22.5473C25.2032 22.7999 25.0615 23.1425 25.0615 23.4997H25.075Z" fill="#A18129"/>
<path d="M10.8504 24.8334H21.862C22.2186 24.8334 22.5605 24.6915 22.8127 24.4389C23.0648 24.1863 23.2065 23.8437 23.2065 23.4865C23.2065 23.1293 23.0648 22.7867 22.8127 22.5341C22.5605 22.2815 22.2186 22.1396 21.862 22.1396H10.8504C10.4938 22.1396 10.1518 22.2815 9.89966 22.5341C9.64751 22.7867 9.50586 23.1293 9.50586 23.4865C9.50586 23.8437 9.64751 24.1863 9.89966 24.4389C10.1518 24.6915 10.4938 24.8334 10.8504 24.8334Z" fill="#A18129"/>
<path d="M10.8504 31.2982H35.8718C36.2284 31.2982 36.5704 31.1563 36.8225 30.9037C37.0747 30.6511 37.2163 30.3086 37.2163 29.9513C37.2163 29.5941 37.0747 29.2516 36.8225 28.999C36.5704 28.7464 36.2284 28.6045 35.8718 28.6045H10.8504C10.4938 28.6045 10.1518 28.7464 9.89966 28.999C9.64751 29.2516 9.50586 29.5941 9.50586 29.9513C9.50586 30.3086 9.64751 30.6511 9.89966 30.9037C10.1518 31.1563 10.4938 31.2982 10.8504 31.2982Z" fill="#A18129"/>
<path d="M10.8504 65.7508H26.756C27.1126 65.7508 27.4546 65.6089 27.7067 65.3563C27.9589 65.1038 28.1005 64.7612 28.1005 64.404C28.1005 64.0468 27.9589 63.7042 27.7067 63.4516C27.4546 63.199 27.1126 63.0571 26.756 63.0571H10.8504C10.4938 63.0571 10.1518 63.199 9.89966 63.4516C9.64751 63.7042 9.50586 64.0468 9.50586 64.404C9.50586 64.7612 9.64751 65.1038 9.89966 65.3563C10.1518 65.6089 10.4938 65.7508 10.8504 65.7508Z" fill="#A18129"/>
<path d="M90.0557 80.3909L86.6675 76.9968C86.4086 76.8023 86.0883 76.7079 85.7655 76.7309C85.4427 76.7538 85.139 76.8927 84.9101 77.122C84.6813 77.3512 84.5426 77.6555 84.5197 77.9789C84.4967 78.3022 84.591 78.6231 84.7852 78.8824L87.9314 82.0341L83.7768 86.1689L72.0526 74.4109L76.2072 70.2491L80.4021 74.4648C80.661 74.6593 80.9813 74.7537 81.3041 74.7307C81.6269 74.7078 81.9307 74.5689 82.1595 74.3396C82.3884 74.1104 82.527 73.8061 82.5499 73.4827C82.5729 73.1594 82.4786 72.8385 82.2844 72.5792L77.8475 68.148C77.5136 67.8199 77.0891 67.5996 76.629 67.5156C76.1688 67.4316 75.6941 67.4877 75.266 67.6766L71.5821 63.9728C73.9054 60.5288 75.2199 56.5021 75.3767 52.3484C75.5335 48.1948 74.5265 44.0801 72.4694 40.4701L73.3703 40.1604C73.7551 40.0522 74.0944 39.8216 74.337 39.5033C74.5795 39.1851 74.7121 38.7964 74.7148 38.396C74.7078 37.9967 74.5736 37.6101 74.3317 37.2926C74.0898 36.9752 73.7529 36.7436 73.3703 36.6316C69.8207 35.4868 68.7451 34.4093 67.6023 30.8671C67.4926 30.5162 67.2801 30.2066 66.9923 29.9784C66.7046 29.7502 66.3549 29.614 65.9889 29.5875V8.19949C65.9889 7.58509 65.7452 6.99586 65.3115 6.56141C64.8778 6.12697 64.2896 5.8829 63.6763 5.8829H60.9469V3.09491C60.9434 2.47928 60.6968 1.89007 60.2609 1.45601C59.8251 1.02195 59.2355 0.77831 58.6209 0.77832H2.31257C1.69924 0.77832 1.11103 1.02239 0.677336 1.45683C0.243645 1.89128 3.25063e-10 2.48051 3.25063e-10 3.09491V79.4346C-1.0267e-05 80.0503 0.243204 80.6409 0.676513 81.0775C1.10982 81.5141 1.698 81.7612 2.31257 81.7647H5.08227V84.5392C5.08582 85.1513 5.33104 85.7371 5.76434 86.1686C6.19765 86.6001 6.78383 86.8424 7.39484 86.8424H19.6703C20.0269 86.8424 20.3688 86.7005 20.621 86.4479C20.8731 86.1953 21.0148 85.8527 21.0148 85.4955C21.0148 85.1383 20.8731 84.7957 20.621 84.5431C20.3688 84.2905 20.0269 84.1486 19.6703 84.1486H7.74442V81.7243H58.6209C59.2286 81.7209 59.8107 81.4794 60.2429 81.0515C60.6751 80.6236 60.923 80.0433 60.9335 79.4346V72.2963C61.7645 71.9889 62.577 71.6337 63.3671 71.2323V84.189H25.8685C25.5119 84.189 25.1699 84.3309 24.9178 84.5835C24.6656 84.8361 24.524 85.1787 24.524 85.5359C24.524 85.8931 24.6656 86.2357 24.9178 86.4883C25.1699 86.7409 25.5119 86.8828 25.8685 86.8828H63.7166C64.33 86.8828 64.9182 86.6387 65.3519 86.2042C65.7856 85.7698 66.0292 85.1806 66.0292 84.5662V70.074L69.4443 73.495C69.2555 73.9247 69.2007 74.4015 69.2871 74.863C69.3734 75.3244 69.5969 75.749 69.9283 76.081L82.1365 88.3104C82.3505 88.5287 82.6058 88.7021 82.8874 88.8204C83.1691 88.9388 83.4714 88.9997 83.7768 88.9997C84.0822 88.9997 84.3846 88.9388 84.6662 88.8204C84.9479 88.7021 85.2031 88.5287 85.4171 88.3104L90.0557 83.6772C90.4892 83.2406 90.7326 82.6499 90.7326 82.0341C90.7326 81.4183 90.4892 80.8275 90.0557 80.3909ZM65.8544 33.7089C66.2818 34.7639 66.916 35.7223 67.7197 36.5274C68.5234 37.3325 69.4802 37.9679 70.5333 38.396C69.4875 38.8275 68.5378 39.4628 67.7392 40.2651C66.9406 41.0675 66.309 42.0207 65.8813 43.0696C65.4494 42.0173 64.8135 41.0612 64.0104 40.2567C63.2072 39.4522 62.2529 38.8152 61.2024 38.3825C62.2532 37.954 63.2081 37.32 64.0115 36.5175C64.8148 35.7151 65.4505 34.7603 65.8813 33.7089H65.8544ZM58.3251 40.1604C61.8747 41.3052 62.9503 42.3827 64.0931 45.9384C64.213 46.3114 64.4484 46.6364 64.765 46.8665C65.0817 47.0965 65.4633 47.2196 65.8544 47.2179C66.2054 47.215 66.5492 47.1173 66.8494 46.935C67.8517 49.9683 67.8113 53.2504 66.7346 56.258C65.658 59.2656 63.6071 61.8255 60.909 63.5295C58.2108 65.2335 55.0209 65.9835 51.8477 65.6599C48.6745 65.3362 45.7009 63.9576 43.4009 61.7439C41.101 59.5302 39.6071 56.6088 39.1576 53.4456C38.7081 50.2823 39.3289 47.0594 40.9208 44.2907C42.5128 41.522 44.9843 39.367 47.9413 38.1692C50.8983 36.9715 54.1705 36.8 57.2361 37.6821C57.1274 37.9186 57.0723 38.1761 57.0747 38.4364C57.0815 38.8213 57.2083 39.1945 57.4373 39.5036C57.6664 39.8128 57.9862 40.0424 58.352 40.1604H58.3251ZM58.3251 79.0845H2.6487V3.44509H58.2848V15.5668C58.2848 15.924 58.4264 16.2666 58.6786 16.5192C58.9307 16.7717 59.2727 16.9136 59.6293 16.9136C59.9859 16.9136 60.3279 16.7717 60.58 16.5192C60.8322 16.2666 60.9738 15.924 60.9738 15.5668V8.5362H63.4074V31.7021C62.6214 31.2883 61.8084 30.9284 60.9738 30.6246V21.8162C60.9738 21.459 60.8322 21.1164 60.58 20.8638C60.3279 20.6112 59.9859 20.4693 59.6293 20.4693C59.2727 20.4693 58.9307 20.6112 58.6786 20.8638C58.4264 21.1164 58.2848 21.459 58.2848 21.8162V29.8973C56.6355 29.518 54.9485 29.3282 53.2563 29.3316C52.584 29.3316 51.9118 29.3316 51.2664 29.4125C51.1521 29.1974 50.9817 29.0174 50.7733 28.8917C50.565 28.766 50.3265 28.6993 50.0832 28.6986H40.6716C40.315 28.6986 39.9731 28.8405 39.7209 29.0931C39.4688 29.3457 39.3271 29.6883 39.3271 30.0455C39.3271 30.4027 39.4688 30.7453 39.7209 30.9978C39.9731 31.2504 40.315 31.3923 40.6716 31.3923H44.006C41.9321 32.3605 40.0186 33.6414 38.3322 35.1905H10.8502C10.4937 35.1905 10.1517 35.3324 9.89953 35.5849C9.64738 35.8375 9.50573 36.1801 9.50573 36.5373C9.50573 36.8945 9.64738 37.2371 9.89953 37.4897C10.1517 37.7423 10.4937 37.8842 10.8502 37.8842H35.8179C34.4126 39.6762 33.2923 41.6753 32.497 43.8103H10.8502C10.4937 43.8103 10.1517 43.9522 9.89953 44.2048C9.64738 44.4574 9.50573 44.8 9.50573 45.1572C9.50573 45.5144 9.64738 45.857 9.89953 46.1096C10.1517 46.3621 10.4937 46.504 10.8502 46.504H31.7037C31.4075 47.7511 31.2231 49.0222 31.1524 50.3022H10.8502C10.4937 50.3022 10.1517 50.4441 9.89953 50.6967C9.64738 50.9492 9.50573 51.2918 9.50573 51.649C9.50573 52.0062 9.64738 52.3488 9.89953 52.6014C10.1517 52.854 10.4937 52.9959 10.8502 52.9959H31.1524C31.2334 54.2801 31.4223 55.5551 31.7171 56.8075H10.8502C10.4937 56.8075 10.1517 56.9494 9.89953 57.202C9.64738 57.4546 9.50573 57.7971 9.50573 58.1543C9.50573 58.5116 9.64738 58.8541 9.89953 59.1067C10.1517 59.3593 10.4937 59.5012 10.8502 59.5012H32.5239C33.0192 60.8283 33.6405 62.1047 34.3793 63.3128H31.3407C30.9841 63.3128 30.6421 63.4547 30.39 63.7073C30.1378 63.9599 29.9962 64.3024 29.9962 64.6596C29.9962 65.0169 30.1378 65.3594 30.39 65.612C30.6421 65.8646 30.9841 66.0065 31.3407 66.0065H36.3019C36.7053 66.4914 37.1535 66.9403 37.6465 67.3534C38.5251 68.2288 39.4739 69.0306 40.4834 69.7508H10.904C10.5474 69.7508 10.2055 69.8927 9.95331 70.1452C9.70117 70.3978 9.55951 70.7404 9.55951 71.0976C9.55951 71.4548 9.70117 71.7974 9.95331 72.05C10.2055 72.3026 10.5474 72.4445 10.904 72.4445H45.4178C47.9245 73.3857 50.5793 73.8693 53.2563 73.8721C54.9488 73.8681 56.6355 73.6738 58.2848 73.293L58.3251 79.0845ZM39.5019 65.2792C36.2301 61.9534 34.2552 57.564 33.9347 52.9058C33.6142 48.2475 34.9692 43.6282 37.7545 39.8842C40.5397 36.1402 44.5712 33.5188 49.1189 32.4948C53.6666 31.4708 58.4301 32.1117 62.5469 34.3015C61.9308 35.0233 61.1582 35.5945 60.2881 35.9716C56.6297 34.3007 52.4991 33.9799 48.6273 35.066C44.7554 36.1521 41.3919 38.5752 39.1318 41.9064C36.8717 45.2377 35.8607 49.2624 36.2778 53.2684C36.6948 57.2745 38.513 61.0037 41.4105 63.7961C44.3081 66.5886 48.0984 68.2643 52.1106 68.5269C56.1228 68.7894 60.0985 67.6218 63.334 65.2306C66.5696 62.8394 68.8566 59.3789 69.7903 55.4612C70.724 51.5435 70.2442 47.4213 68.4359 43.8238C68.8342 43 69.4189 42.2805 70.1434 41.7227C72.4775 45.8271 73.2486 50.6395 72.314 55.2695C71.3794 59.8995 68.8023 64.0337 65.0596 66.9072C61.317 69.7807 56.662 71.199 51.956 70.8997C47.25 70.6004 42.8114 68.6038 39.4616 65.2792H39.5019ZM67.9115 68.148C68.2746 67.8382 68.6241 67.5015 68.9737 67.1648C69.3233 66.8281 69.646 66.4644 69.9552 66.1008L73.303 69.4545L71.2594 71.5017L67.9115 68.148Z" fill="#A18129"/>
<path d="M45.5791 44.5778C45.5791 44.935 45.7208 45.2776 45.9729 45.5302C46.225 45.7828 46.567 45.9247 46.9236 45.9247H59.5217C59.8783 45.9247 60.2203 45.7828 60.4725 45.5302C60.7246 45.2776 60.8663 44.935 60.8663 44.5778C60.8663 44.2206 60.7246 43.878 60.4725 43.6254C60.2203 43.3729 59.8783 43.231 59.5217 43.231H46.9236C46.567 43.231 46.225 43.3729 45.9729 43.6254C45.7208 43.878 45.5791 44.2206 45.5791 44.5778Z" fill="#A18129"/>
<path d="M43.9256 49.5344C43.9256 49.8916 44.0672 50.2341 44.3194 50.4867C44.5715 50.7393 44.9135 50.8812 45.2701 50.8812H61.2429C61.5995 50.8812 61.9415 50.7393 62.1936 50.4867C62.4458 50.2341 62.5874 49.8916 62.5874 49.5344C62.5874 49.1771 62.4458 48.8346 62.1936 48.582C61.9415 48.3294 61.5995 48.1875 61.2429 48.1875H45.2566C44.9 48.1875 44.5581 48.3294 44.3059 48.582C44.0538 48.8346 43.9121 49.1771 43.9121 49.5344H43.9256Z" fill="#A18129"/>
<path d="M61.2429 53.1577H45.2566C44.9 53.1577 44.5581 53.2996 44.3059 53.5522C44.0538 53.8048 43.9121 54.1474 43.9121 54.5046C43.9121 54.8618 44.0538 55.2044 44.3059 55.4569C44.5581 55.7095 44.9 55.8514 45.2566 55.8514H61.2429C61.5995 55.8514 61.9415 55.7095 62.1936 55.4569C62.4458 55.2044 62.5874 54.8618 62.5874 54.5046C62.5874 54.1474 62.4458 53.8048 62.1936 53.5522C61.9415 53.2996 61.5995 53.1577 61.2429 53.1577Z" fill="#A18129"/>
<path d="M57.2895 58.1138H49.2224C48.8659 58.1138 48.5239 58.2557 48.2717 58.5083C48.0196 58.7608 47.8779 59.1034 47.8779 59.4606C47.8779 59.8178 48.0196 60.1604 48.2717 60.413C48.5239 60.6656 48.8659 60.8075 49.2224 60.8075H57.2895C57.6461 60.8075 57.9881 60.6656 58.2403 60.413C58.4924 60.1604 58.6341 59.8178 58.6341 59.4606C58.6341 59.1034 58.4924 58.7608 58.2403 58.5083C57.9881 58.2557 57.6461 58.1138 57.2895 58.1138Z" fill="#A18129"/>
<path d="M72.2947 30.7325H73.5317V31.9716C73.5317 32.3288 73.6733 32.6714 73.9255 32.9239C74.1776 33.1765 74.5196 33.3184 74.8762 33.3184C75.2328 33.3184 75.5748 33.1765 75.8269 32.9239C76.079 32.6714 76.2207 32.3288 76.2207 31.9716V30.7325H77.4577C77.8142 30.7325 78.1562 30.5906 78.4084 30.338C78.6605 30.0854 78.8022 29.7428 78.8022 29.3856C78.8022 29.0284 78.6605 28.6858 78.4084 28.4332C78.1562 28.1807 77.8142 28.0388 77.4577 28.0388H76.2207V26.9074C76.2207 26.5502 76.079 26.2076 75.8269 25.955C75.5748 25.7024 75.2328 25.5605 74.8762 25.5605C74.5196 25.5605 74.1776 25.7024 73.9255 25.955C73.6733 26.2076 73.5317 26.5502 73.5317 26.9074V28.133H72.2947C71.9381 28.133 71.5961 28.2749 71.344 28.5275C71.0918 28.7801 70.9502 29.1227 70.9502 29.4799C70.9502 29.8371 71.0918 30.1797 71.344 30.4323C71.5961 30.6848 71.9381 30.8267 72.2947 30.8267V30.7325Z" fill="#A18129"/>
</svg>
